<svg width="20" height="25" viewBox="0 0 20 25" fill="none" xmlns="http://www.w3.org/2000/svg">
<path d="M16.777 13.2799C16.8009 11.4308 17.7939 9.68114 19.3693 8.71263C18.3754 7.29328 16.7108 6.39337 14.979 6.33918C13.1318 6.1453 11.3411 7.4445 10.3998 7.4445C9.4403 7.4445 7.99105 6.35843 6.43044 6.39054C4.39627 6.45626 2.4999 7.61279 1.51023 9.3912C-0.617168 13.0745 0.96968 18.4876 3.00755 21.4649C4.02714 22.9228 5.21875 24.5513 6.77795 24.4935C8.30371 24.4302 8.87356 23.5206 10.7153 23.5206C12.5399 23.5206 13.0746 24.4935 14.6654 24.4568C16.3026 24.4302 17.3341 22.9924 18.3179 21.5207C19.0505 20.482 19.6142 19.3339 19.9882 18.119C18.0642 17.3052 16.7793 15.3689 16.777 13.2799Z" fill="#FFED00"/>
<path d="M13.7722 4.38119C14.6649 3.30956 15.1047 1.93216 14.9982 0.541504C13.6344 0.684746 12.3746 1.33656 11.4698 2.36707C10.5851 3.37394 10.1247 4.7271 10.2118 6.0646C11.5761 6.07865 12.9173 5.44451 13.7722 4.38119Z" fill="#FFED00"/>
</svg>
