<svg width="18" height="18" viewBox="0 0 18 18" fill="none" xmlns="http://www.w3.org/2000/svg">
<path d="M3.75 6.75002V12.75M7.125 6.75002V12.75M10.875 6.75002V12.75M14.25 6.75002V12.75M2.25 13.95L2.25 14.55C2.25 14.9701 2.25 15.1801 2.33175 15.3405C2.40365 15.4816 2.51839 15.5964 2.65951 15.6683C2.81994 15.75 3.02996 15.75 3.45 15.75H14.55C14.97 15.75 15.1801 15.75 15.3405 15.6683C15.4816 15.5964 15.5963 15.4816 15.6683 15.3405C15.75 15.1801 15.75 14.9701 15.75 14.55V13.95C15.75 13.53 15.75 13.32 15.6683 13.1595C15.5963 13.0184 15.4816 12.9037 15.3405 12.8318C15.1801 12.75 14.97 12.75 14.55 12.75H3.45C3.02996 12.75 2.81994 12.75 2.65951 12.8318C2.51839 12.9037 2.40365 13.0184 2.33175 13.1595C2.25 13.32 2.25 13.53 2.25 13.95ZM8.73968 2.30786L3.18968 3.5412C2.85439 3.61571 2.68674 3.65296 2.5616 3.74312C2.45122 3.82264 2.36455 3.93069 2.31086 4.05569C2.25 4.19741 2.25 4.36915 2.25 4.71262L2.25 5.55001C2.25 5.97005 2.25 6.18007 2.33175 6.34051C2.40365 6.48163 2.51839 6.59636 2.65951 6.66827C2.81994 6.75001 3.02996 6.75001 3.45 6.75001H14.55C14.97 6.75001 15.1801 6.75001 15.3405 6.66827C15.4816 6.59636 15.5963 6.48163 15.6683 6.34051C15.75 6.18007 15.75 5.97005 15.75 5.55002V4.71262C15.75 4.36915 15.75 4.19741 15.6891 4.05569C15.6355 3.93069 15.5488 3.82264 15.4384 3.74312C15.3133 3.65296 15.1456 3.61571 14.8103 3.5412L9.26032 2.30786C9.16317 2.28628 9.1146 2.27548 9.06552 2.27118C9.02192 2.26735 8.97808 2.26735 8.93448 2.27118C8.8854 2.27548 8.83683 2.28628 8.73968 2.30786Z" stroke="#161616" stroke-width="1.5" stroke-linecap="round" stroke-linejoin="round"/>
</svg>
