<svg width="20" height="20" viewBox="0 0 20 20" fill="none" xmlns="http://www.w3.org/2000/svg">
<g clip-path="url(#clip0_6608_17816)">
<path d="M19.5349 17.5814C18.2326 15.907 16.2791 14.8837 14.2326 14.8837C12.186 14.8837 10.2326 15.814 8.93023 17.5814C8.55814 17.9535 8.37209 18.2326 8.37209 18.6977C8.37209 19.0698 8.55814 19.4419 8.83721 19.7209C9.2093 20 9.5814 20 10.1395 20H18.2326C18.7907 20 19.1628 20 19.5349 19.7209C19.814 19.5349 20 19.0698 20 18.6977C20 18.2326 19.814 17.9535 19.5349 17.5814ZM18.2326 18.6047H10.1395C10.0465 18.6047 9.95349 18.6047 9.86047 18.6047C9.86047 18.5116 9.95349 18.5116 9.95349 18.4186C10.9767 17.1163 12.4651 16.2791 14.1395 16.2791C15.814 16.2791 17.3023 17.0233 18.3256 18.4186C18.3256 18.5116 18.4186 18.5116 18.4186 18.6047C18.4186 18.6047 18.3256 18.6047 18.2326 18.6047ZM14.2326 7.53488C12.3721 7.53488 10.7907 9.11628 10.7907 10.9767C10.7907 12.8372 12.3721 14.4186 14.2326 14.4186C16.093 14.4186 17.6744 12.8372 17.6744 10.9767C17.6744 9.11628 16.093 7.53488 14.2326 7.53488ZM14.2326 13.1163C13.1163 13.1163 12.186 12.186 12.186 11.0698C12.186 9.95349 13.1163 9.02326 14.2326 9.02326C15.3488 9.02326 16.2791 9.95349 16.2791 11.0698C16.2791 12.186 15.3488 13.1163 14.2326 13.1163ZM1.48837 16.6512L1.39535 16.5581C1.39535 16.4651 1.39535 16.186 1.39535 15.907V15.1628C1.39535 14.8837 1.39535 14.6047 1.39535 14.5116L1.48837 14.4186C1.5814 14.4186 1.86047 14.4186 2.13953 14.4186H10.5116L10.6047 14.3256C10.2326 13.9535 9.95349 13.4884 9.76744 13.0233H7.44186V6.97674H16.7442C16.9302 6.97674 17.1163 6.88372 17.2093 6.7907C17.4884 6.60465 17.7674 6.4186 17.9535 6.04651C18.1395 5.67442 18.1395 5.30233 18.1395 4.74419V3.72093C18.1395 3.25581 18.1395 2.97674 18.0465 2.60465C17.9535 2.32558 17.7674 2.13953 17.4884 1.95349C17.2093 1.76744 16.9302 1.67442 16.4651 1.5814L9.5814 0.0930233C9.39535 0 9.30233 0 9.2093 0C9.11628 0 9.02326 0 8.93023 0C8.83721 0 8.74419 0 8.55814 0.0930233L1.67442 1.5814C1.2093 1.67442 0.930233 1.76744 0.651163 1.95349C0.465116 2.13953 0.27907 2.32558 0.0930233 2.60465C0 2.97674 0 3.25581 0 3.72093V4.74419C0 5.30233 0 5.67442 0.186047 6.04651C0.372093 6.4186 0.55814 6.60465 0.930233 6.7907C1.2093 6.97674 1.48837 6.97674 1.86047 6.97674V13.0233C1.48837 13.0233 1.2093 13.0233 0.930233 13.2093C0.651163 13.3953 0.372093 13.5814 0.186047 13.9535C0 14.2326 0 14.6047 0 15.1628V15.907C0 16.4651 0 16.8372 0.186047 17.2093C0.372093 17.4884 0.55814 17.7674 0.930233 17.9535C1.30233 18.1395 1.67442 18.1395 2.23256 18.1395H7.06977C7.16279 17.4884 7.53488 17.1163 7.81395 16.7442H2.23256C1.86047 16.7442 1.5814 16.7442 1.48837 16.6512ZM6.04651 13.0233H3.25581V6.97674H6.04651V13.0233ZM1.48837 5.48837L1.39535 5.39535C1.39535 5.30233 1.39535 5.02326 1.39535 4.74419V3.72093C1.39535 3.44186 1.39535 3.25581 1.39535 3.16279C1.39535 3.16279 1.39535 3.06977 1.48837 3.06977C1.5814 3.06977 1.76744 2.97674 2.04651 2.97674L8.93023 1.48837C9.02326 1.48837 9.02326 1.48837 9.11628 1.48837C9.11628 1.48837 9.2093 1.48837 9.30233 1.48837L16.186 2.97674C16.3721 3.06977 16.6512 3.06977 16.7442 3.06977L16.8372 3.16279C16.8372 3.25581 16.8372 3.44186 16.8372 3.72093V4.74419C16.8372 5.02326 16.8372 5.30233 16.8372 5.39535L16.7442 5.48837C16.6512 5.48837 16.3721 5.48837 16.093 5.48837H2.23256C1.86047 5.5814 1.5814 5.5814 1.48837 5.48837Z" fill="#161616"/>
</g>
<defs>
<clipPath id="clip0_6608_17816">
<rect width="20" height="20" fill="white"/>
</clipPath>
</defs>
</svg>
