<svg width="1440" height="161" viewBox="0 0 1440 161" fill="none" xmlns="http://www.w3.org/2000/svg">
<g clip-path="url(#clip0_235_26985)">
<rect width="2355" height="62" transform="translate(-652.302) rotate(1.57)" fill="black"/>
<path d="M53.6452 61.2942L53.8533 61.537L52.6367 62.9817C50.9015 65.0943 49.4871 66.6109 48.388 67.5339C47.2917 68.4569 46.1024 68.9009 44.8176 68.8657C43.5327 68.8305 42.5358 68.4064 41.8269 67.5936C41.1179 66.7807 40.7886 65.4049 40.8417 63.4688C40.8582 62.8669 40.8871 62.4056 40.9311 62.09L40.6649 62.0827C39.5734 64.1186 38.2981 65.7189 36.8389 66.886C35.3798 68.053 33.5622 68.608 31.3864 68.5483C29.5311 68.4975 28.0549 68.0047 26.9551 67.0698C25.8553 66.135 25.3299 64.8724 25.3734 63.2867C25.4282 61.2877 26.3106 59.6427 28.0258 58.3569C29.7384 57.0685 32.0381 55.8785 34.9225 54.7819L40.8715 52.659C40.9713 50.3105 40.6669 48.4226 39.9559 46.988C39.2449 45.5558 38.2646 44.8226 37.0178 44.7884C36.2328 44.7669 35.601 45.0036 35.1253 45.4985C34.6469 45.9934 34.3947 46.7654 34.366 47.8121C34.3312 49.0811 34.6096 50.6296 35.2037 52.4577L25.2374 54.6616L25.0836 54.4204C27.0734 50.8536 29.3247 48.1601 31.8374 46.3397C34.3502 44.5194 36.5675 43.3634 38.4919 42.8767C40.4136 42.3899 41.839 42.158 42.768 42.1835C44.9438 42.2431 46.6113 42.5985 47.7705 43.2495C48.9298 43.9006 49.7099 44.7952 50.1055 45.9333C50.5011 47.0714 50.6772 48.4817 50.6311 50.164C50.5989 51.3388 50.5107 52.5749 50.3691 53.8724L49.6573 62.2856L49.6378 62.9987L53.6478 61.2992L53.6452 61.2942ZM38.7305 62.3393C39.4186 61.93 40.0257 61.3032 40.549 60.4588L40.8403 53.7008C38.5926 54.9745 36.9818 56.1205 36.0078 57.1412C35.0338 58.1619 34.5324 59.198 34.5037 60.2447C34.4793 61.1342 34.7112 61.7985 35.1993 62.2401C35.6874 62.6816 36.2166 62.9114 36.787 62.927C37.3928 62.9436 38.0425 62.7462 38.7306 62.3369M80.952 67.1395L83.4164 69.0649L83.4086 69.3501L69.0172 68.9557L69.0251 68.6704L71.537 66.8815L71.9467 51.9312C72.0033 49.8693 71.0672 48.8107 69.1413 48.7579C67.8918 48.7237 66.8258 49.2339 65.9405 50.2909L65.4903 66.7157L67.9005 68.6396L67.8927 68.9248L53.5013 68.5304L53.5091 68.2452L56.0753 66.4577L56.5633 48.6527L52.503 50.3048L52.2949 50.0597L53.4587 48.6619C54.6757 47.2027 55.6521 46.095 56.3878 45.3362C57.1209 44.5774 57.9072 43.9555 58.7415 43.4704C59.5757 42.9853 60.4384 42.7549 61.3293 42.7793C62.6142 42.8145 63.6111 43.2386 64.3201 44.0514C65.029 44.8643 65.3583 46.2401 65.3053 48.1763C65.2878 48.812 65.2549 49.3191 65.2091 49.7L65.2635 49.7015C69.1346 45.2333 71.8892 43.0228 73.5299 43.0678C76.3467 43.145 78.3956 43.9704 79.6735 45.5463C80.9515 47.1222 81.5565 49.149 81.4887 51.6242L80.9573 67.1421L80.952 67.1395ZM106.573 54.4526L114.554 69.9183L114.547 70.2035L101.546 69.8472L101.554 69.562L103.369 67.7999L97.8783 57.1679L97.1129 57.7202L96.8428 67.5751L99.3073 69.5004L99.2995 69.7856L84.9081 69.3912L84.9159 69.106L87.4278 67.317L88.2525 37.2278L84.9102 36.0888L84.918 35.8036L97.4761 32.7636L97.7967 32.7724L97.1403 56.7219L98.3995 55.709C99.8896 54.7024 101.003 53.5573 101.734 52.2735C102.465 50.9921 102.848 49.7156 102.883 48.4466C102.904 47.6852 102.806 46.9762 102.593 46.3196C102.377 45.663 102.081 45.1542 101.697 44.7953L101.705 44.5101L115.135 44.8782L115.128 45.115L98.3125 56.8992L106.57 54.4573L106.573 54.4526ZM19.7414 68.2268C19.7461 67.9535 19.7372 67.6824 19.7447 67.4092C19.9273 60.7499 21.3446 54.2647 23.9967 47.956C26.6489 41.6449 30.1023 36.4492 34.3518 32.3615L24.3338 32.0869C20.313 35.6681 17.0175 40.6528 14.4448 47.0411C11.8721 53.4293 10.4895 60.1332 10.2971 67.1527C10.2896 67.4258 10.2958 67.6969 10.291 67.9702L19.7386 68.2291L19.7414 68.2268ZM1.22378 67.7192L10.9457 67.9857L1.86138 32.753L-7.86055 32.4866L1.22378 67.7192Z" fill="#FFED00"/>
<path d="M159.165 67.3505C153.605 67.1981 150.259 64.1889 150.388 59.4704L153.093 59.5445C153.033 62.8213 155.294 64.8382 159.261 64.947C162.717 65.0417 164.772 63.5942 164.837 61.2199C164.917 58.3046 161.985 57.743 158.813 57.1448C155.013 56.4391 150.832 55.3319 150.958 50.7336C151.063 46.9167 154.047 44.5021 159.156 44.6422C164.355 44.7847 167.437 47.576 167.344 52.055L164.699 51.9825C164.782 48.977 162.727 47.1462 159.09 47.0465C155.664 46.9526 153.76 48.3742 153.697 50.6583C153.621 53.4534 156.432 54.0417 159.544 54.6083C163.374 55.3449 167.709 56.3058 167.577 61.1145C167.468 65.0817 164.364 67.493 159.165 67.3505ZM178.75 67.7369C173.972 67.6059 170.699 64.1175 170.83 59.3088C170.961 54.5302 174.421 51.2263 179.199 51.3573C183.948 51.4874 187.251 54.9767 187.12 59.7553C186.988 64.564 183.499 67.8671 178.75 67.7369ZM178.812 65.4828C182.088 65.5726 184.531 63.1432 184.625 59.6869C184.719 56.2607 182.413 53.7012 179.137 53.6114C175.831 53.5208 173.419 55.951 173.325 59.3772C173.23 62.8335 175.506 65.3922 178.812 65.4828ZM193.211 67.5317L190.716 67.4634L191.132 52.2859L193.537 52.3518L193.482 54.3654L193.782 54.3737C194.666 52.8339 196.288 51.8257 198.272 51.88C200.406 51.9385 202.327 53.1642 203.15 54.9613L203.421 54.9687C204.521 53.2243 206.295 52.13 208.58 52.1926C212.156 52.2907 214.635 55.1257 214.527 59.0628L214.279 68.1092L211.785 68.0408L212.033 58.9644C212.104 56.3797 210.502 54.471 208.218 54.4084C205.784 54.3417 204.02 56.1581 203.949 58.7428L203.7 67.8192L201.205 67.7508L201.454 58.6744C201.527 55.9996 200.013 54.1835 197.669 54.1193C195.205 54.0517 193.533 55.7805 193.46 58.4553L193.211 67.5317ZM225.916 69.0297C221.137 68.8987 217.864 65.4103 217.996 60.6016C218.127 55.8229 221.586 52.519 226.365 52.65C231.113 52.7802 234.416 56.2694 234.285 61.048C234.154 65.8567 230.664 69.1598 225.916 69.0297ZM225.977 66.7756C229.253 66.8654 231.696 64.4359 231.791 60.9797C231.885 57.5535 229.579 54.9939 226.303 54.9041C222.997 54.8135 220.584 57.2437 220.49 60.6699C220.396 64.1262 222.671 66.685 225.977 66.7756ZM244.087 69.5277C239.729 69.4083 237.263 67.2052 237.362 63.5987L239.766 63.6646C239.737 65.8293 241.379 67.3481 244.234 67.4264C246.519 67.489 248.018 66.5676 248.061 64.9747C248.116 62.9911 246.046 62.784 243.77 62.4209C240.954 62.0128 237.699 61.1717 237.793 57.7154C237.874 54.7701 240.388 53.0344 244.025 53.1341C247.811 53.2378 250.341 55.3223 250.255 58.448L247.821 58.3813C247.842 56.5171 246.281 55.3013 243.937 55.237C241.743 55.1769 240.213 56.1275 240.17 57.6903C240.118 59.5838 242.158 59.7901 244.405 60.1223C247.25 60.5612 250.506 61.3723 250.406 65.0089C250.325 67.9843 247.964 69.634 244.087 69.5277ZM268.973 70.0895C263.984 69.9527 260.559 66.5203 260.695 61.5613C260.826 56.7526 264.432 53.6032 269.391 53.7391C274.29 53.8733 277.566 57.2415 277.433 62.0803C277.422 62.471 277.405 63.1021 277.336 63.4311L265.254 63.0999C265.556 65.2737 267.05 66.7283 269.244 66.7884C270.957 66.8354 272.302 66.0301 272.998 64.786L276.758 65.8515C275.721 68.5901 272.699 70.1916 268.973 70.0895ZM265.3 60.3341L272.934 60.5433C272.717 58.5824 271.254 57.0986 269.18 57.0418C267.166 56.9866 265.717 58.3003 265.3 60.3341ZM284.374 70.0304L279.926 69.9084L280.537 47.6081L284.985 47.73L284.374 70.0304ZM300.899 70.4833L296.451 70.3614L296.784 58.2194L294.62 58.1601L294.709 54.9142L296.873 54.9736L296.923 53.1402C297.015 49.8042 299.059 47.6345 302.005 47.7153C303.056 47.7441 304.103 47.9833 304.967 48.2777L304.87 51.8241C304.422 51.6915 303.914 51.5874 303.403 51.5734C302.2 51.5404 301.398 52.2704 301.367 53.4124L301.321 55.0955L304.777 55.1902L304.688 58.4361L301.232 58.3413L300.899 70.4833ZM317.659 55.5433L322.107 55.6652L321.686 71.053L317.238 70.9311L317.297 68.7672L316.996 68.759C315.807 70.4708 314.31 71.302 312.447 71.251C308.96 71.1554 306.72 68.3871 306.822 64.6904L307.08 55.2533L311.528 55.3752L311.287 64.1812C311.235 66.0746 312.281 67.4266 314.084 67.4761C315.857 67.5247 317.369 66.1525 317.422 64.1989L317.659 55.5433ZM331.363 71.7995C328.268 71.7147 326.344 69.4663 326.433 66.2205L326.63 59.0375L324.466 58.9782L324.555 55.7323L326.839 55.7949L327.844 50.95L331.331 51.0455L331.167 55.9135L334.684 56.0099L334.595 59.2558L331.078 59.1594L330.886 66.162C330.851 67.4544 331.608 68.3474 332.871 68.382C333.291 68.3935 333.955 68.3215 334.469 68.2153L334.382 71.401C333.502 71.6777 332.235 71.8234 331.363 71.7995ZM347.89 56.3718L352.338 56.4938L351.916 71.8816L347.468 71.7597L347.527 69.5958L347.227 69.5875C346.037 71.2994 344.54 72.1306 342.677 72.0795C339.191 71.984 336.951 69.2157 337.052 65.519L337.311 56.0819L341.759 56.2038L341.517 65.0097C341.465 66.9032 342.511 68.2552 344.314 68.3046C346.088 68.3532 347.599 66.981 347.653 65.0275L347.89 56.3718ZM359.804 72.0978L355.356 71.9759L355.777 56.588L360.165 56.7083L360.108 58.8121L360.438 58.8212C361.139 57.3967 362.668 56.4761 364.291 56.5206C364.922 56.5379 365.549 56.7055 366.024 56.9591L365.914 60.9563C365.053 60.5417 364.036 60.3334 363.405 60.3161C361.452 60.2626 360.085 61.8492 360.02 64.2235L359.804 72.0978ZM375.425 73.0072C370.286 72.8663 366.978 69.5574 367.114 64.5984C367.249 59.6395 370.734 56.5167 375.873 56.6576C380.982 56.7976 384.32 60.1074 384.184 65.0663C384.048 70.0554 380.534 73.1472 375.425 73.0072ZM375.529 69.2203C377.903 69.2854 379.636 67.4982 379.706 64.9436C379.776 62.389 378.143 60.5396 375.768 60.4745C373.364 60.4086 371.632 62.1657 371.562 64.7204C371.492 67.275 373.124 69.1544 375.529 69.2203ZM388.203 73.2371C386.701 73.1959 385.618 72.1135 385.658 70.6409C385.698 69.1682 386.839 68.1468 388.342 68.188C389.845 68.2292 390.898 69.3107 390.857 70.7834C390.817 72.256 389.706 73.2783 388.203 73.2371ZM417.504 74.4312C411.943 74.2788 408.597 71.2696 408.726 66.5511L411.431 66.6252C411.372 69.902 413.632 71.9189 417.599 72.0277C421.056 72.1224 423.111 70.6749 423.176 68.3006C423.256 65.3853 420.323 64.8237 417.152 64.2254C413.351 63.5197 409.171 62.4126 409.297 57.8143C409.401 53.9974 412.385 51.5828 417.494 51.7228C422.694 51.8653 425.775 54.6567 425.683 59.1356L423.038 59.0632C423.12 56.0577 421.065 54.2269 417.428 54.1272C414.002 54.0333 412.098 55.4549 412.036 57.739C411.959 60.5341 414.77 61.1224 417.883 61.6889C421.712 62.4255 426.047 63.3865 425.916 68.1952C425.807 72.1624 422.703 74.5737 417.504 74.4312ZM437.089 74.8176C432.31 74.6866 429.037 71.1982 429.169 66.3895C429.3 61.6109 432.759 58.307 437.538 58.438C442.286 58.5681 445.589 62.0573 445.458 66.836C445.327 71.6447 441.837 74.9478 437.089 74.8176ZM437.151 72.5635C440.426 72.6533 442.869 70.2239 442.964 66.7676C443.058 63.3414 440.752 60.7818 437.476 60.692C434.17 60.6014 431.757 63.0317 431.663 66.4579C431.569 69.9141 433.845 72.4729 437.151 72.5635ZM451.549 74.6124L449.055 74.544L449.471 59.3666L451.875 59.4325L451.82 61.4461L452.121 61.4544C453.005 59.9146 454.627 58.9063 456.61 58.9607C458.744 59.0192 460.666 60.2449 461.489 62.042L461.759 62.0494C462.86 60.305 464.634 59.2107 466.918 59.2733C470.495 59.3713 472.973 62.2064 472.865 66.1435L472.618 75.1899L470.123 75.1215L470.372 66.0451C470.443 63.4604 468.841 61.5517 466.557 61.4891C464.122 61.4224 462.358 63.2388 462.287 65.8235L462.038 74.8999L459.544 74.8315L459.793 65.7551C459.866 63.0803 458.352 61.2642 456.008 61.2C453.543 61.1324 451.872 62.8611 451.798 65.536L451.549 74.6124ZM484.254 76.1103C479.476 75.9794 476.203 72.491 476.334 67.6823C476.465 62.9036 479.924 59.5997 484.703 59.7307C489.452 59.8609 492.755 63.3501 492.624 68.1287C492.492 72.9374 489.003 76.2405 484.254 76.1103ZM484.316 73.8563C487.592 73.946 490.035 71.5166 490.129 68.0604C490.223 64.6342 487.917 62.0746 484.641 61.9848C481.335 61.8942 478.923 64.3244 478.829 67.7506C478.734 71.2069 481.01 73.7656 484.316 73.8563ZM502.425 76.6084C498.067 76.4889 495.601 74.2859 495.7 70.6793L498.104 70.7452C498.075 72.91 499.718 74.4288 502.573 74.507C504.857 74.5696 506.356 73.6483 506.4 72.0554C506.454 70.0718 504.384 69.8647 502.109 69.5015C499.293 69.0935 496.037 68.2524 496.132 64.7961C496.213 61.8508 498.727 60.1151 502.363 60.2147C506.15 60.3185 508.679 62.403 508.594 65.5287L506.159 65.4619C506.18 63.5977 504.62 62.382 502.275 62.3177C500.081 62.2576 498.552 63.2082 498.509 64.771C498.457 66.6644 500.496 66.8707 502.743 67.203C505.588 67.6419 508.844 68.453 508.745 72.0896C508.663 75.065 506.302 76.7146 502.425 76.6084Z" fill="#FFED00"/>
<path d="M579.526 75.7078L579.734 75.9506L578.518 77.3952C576.782 79.5079 575.368 81.0245 574.269 81.9475C573.173 82.8705 571.983 83.3145 570.698 83.2793C569.414 83.244 568.417 82.82 567.708 82.0071C566.999 81.1943 566.669 79.8185 566.723 77.8823C566.739 77.2805 566.768 76.8192 566.812 76.5035L566.546 76.4962C565.454 78.5321 564.179 80.1324 562.72 81.2995C561.261 82.4666 559.443 83.0216 557.267 82.9619C555.412 82.9111 553.936 82.4183 552.836 81.4834C551.736 80.5486 551.211 79.2859 551.254 77.7003C551.309 75.7013 552.191 74.0563 553.907 72.7705C555.619 71.4821 557.919 70.2921 560.803 69.1955L566.752 67.0726C566.852 64.7241 566.548 62.8362 565.837 61.4016C565.126 59.9694 564.145 59.2362 562.899 59.202C562.114 59.1805 561.482 59.4171 561.006 59.9121C560.528 60.407 560.276 61.179 560.247 62.2256C560.212 63.4947 560.49 65.0432 561.085 66.8713L551.118 69.0752L550.964 68.8339C552.954 65.2672 555.206 62.5737 557.718 60.7533C560.231 58.9329 562.448 57.7769 564.373 57.2902C566.294 56.8035 567.72 56.5716 568.649 56.5971C570.825 56.6567 572.492 57.0121 573.651 57.6631C574.811 58.3141 575.591 59.2088 575.986 60.3469C576.382 61.485 576.558 62.8952 576.512 64.5776C576.48 65.7524 576.392 66.9885 576.25 68.286L575.538 76.6992L575.519 77.4122L579.529 75.7127L579.526 75.7078ZM564.611 76.7528C565.299 76.3435 565.907 75.7167 566.43 74.8723L566.721 68.1143C564.473 69.388 562.863 70.534 561.889 71.5548C560.915 72.5755 560.413 73.6116 560.385 74.6583C560.36 75.5478 560.592 76.2121 561.08 76.6536C561.568 77.0952 562.097 77.325 562.668 77.3406C563.274 77.3572 563.923 77.1597 564.611 76.7504M606.833 81.5531L609.297 83.4784L609.289 83.7637L594.898 83.3692L594.906 83.084L597.418 81.295L597.828 66.3447C597.884 64.2829 596.948 63.2243 595.022 63.1715C593.773 63.1373 592.707 63.6475 591.821 64.7045L591.371 81.1293L593.781 83.0532L593.774 83.3384L579.382 82.944L579.39 82.6587L581.956 80.8713L582.444 63.0662L578.384 64.7184L578.176 64.4732L579.34 63.0755C580.557 61.6163 581.533 60.5086 582.269 59.7498C583.002 58.991 583.788 58.3691 584.622 57.884C585.457 57.3988 586.319 57.1685 587.21 57.1929C588.495 57.2281 589.492 57.6522 590.201 58.465C590.91 59.2779 591.239 60.6537 591.186 62.5898C591.169 63.2255 591.136 63.7326 591.09 64.1136L591.144 64.1151C595.015 59.6468 597.77 57.4364 599.411 57.4813C602.228 57.5585 604.276 58.3839 605.554 59.9599C606.832 61.5358 607.437 63.5626 607.37 66.0378L606.838 81.5557L606.833 81.5531ZM632.454 68.8661L640.435 84.3319L640.427 84.6171L627.427 84.2608L627.435 83.9756L629.25 82.2135L623.759 71.5814L622.994 72.1338L622.724 81.9886L625.188 83.914L625.18 84.1992L610.789 83.8048L610.797 83.5195L613.309 81.7306L614.133 51.6414L610.791 50.5024L610.799 50.2171L623.357 47.1772L623.678 47.1859L623.021 71.1355L624.28 70.1225C625.77 69.116 626.884 67.9708 627.615 66.687C628.346 65.4056 628.729 64.1292 628.764 62.8602C628.784 62.0988 628.687 61.3898 628.474 60.7332C628.258 60.0766 627.962 59.5677 627.578 59.2089L627.586 58.9236L641.015 59.2917L641.009 59.5286L624.193 71.3127L632.451 68.8709L632.454 68.8661ZM545.622 82.6403C545.627 82.3671 545.618 82.0959 545.626 81.8228C545.808 75.1634 547.225 68.6782 549.878 62.3696C552.53 56.0585 555.983 50.8628 560.233 46.775L550.215 46.5005C546.194 50.0817 542.898 55.0664 540.326 61.4546C537.753 67.8429 536.37 74.5467 536.178 81.5663C536.17 81.8394 536.177 82.1105 536.172 82.3837L545.619 82.6427L545.622 82.6403ZM527.105 82.1328L536.827 82.3993L527.742 47.1666L518.02 46.9001L527.105 82.1328Z" fill="#FFED00"/>
<path d="M685.047 81.7646C679.487 81.6122 676.141 78.603 676.27 73.8845L678.975 73.9586C678.915 77.2353 681.176 79.2523 685.143 79.361C688.599 79.4558 690.654 78.0082 690.719 75.6339C690.799 72.7187 687.867 72.1571 684.695 71.5588C680.895 70.8531 676.714 69.746 676.84 65.1477C676.945 61.3308 679.928 58.9162 685.038 59.0562C690.237 59.1987 693.319 61.9901 693.226 66.469L690.581 66.3965C690.664 63.3911 688.608 61.5602 684.972 61.4606C681.546 61.3667 679.642 62.7882 679.579 65.0724C679.503 67.8674 682.314 68.4558 685.426 69.0223C689.256 69.7589 693.591 70.7199 693.459 75.5286C693.35 79.4958 690.246 81.9071 685.047 81.7646ZM704.632 82.151C699.853 82.02 696.58 78.5316 696.712 73.7229C696.843 68.9443 700.302 65.6404 705.081 65.7713C709.83 65.9015 713.133 69.3907 713.002 74.1694C712.87 78.9781 709.381 82.2811 704.632 82.151ZM704.694 79.8969C707.97 79.9867 710.413 77.5573 710.507 74.101C710.601 70.6748 708.295 68.1152 705.019 68.0254C701.713 67.9348 699.301 70.3651 699.207 73.7913C699.112 77.2475 701.388 79.8063 704.694 79.8969ZM719.093 81.9458L716.598 81.8774L717.014 66.7L719.419 66.7659L719.363 68.7795L719.664 68.7877C720.548 67.248 722.17 66.2397 724.154 66.2941C726.287 66.3526 728.209 67.5782 729.032 69.3753L729.302 69.3828C730.403 67.6384 732.177 66.5441 734.461 66.6067C738.038 66.7047 740.517 69.5397 740.409 73.4769L740.161 82.5232L737.666 82.4549L737.915 73.3784C737.986 70.7938 736.384 68.8851 734.1 68.8225C731.666 68.7558 729.901 70.5722 729.831 73.1569L729.582 82.2333L727.087 82.1649L727.336 73.0885C727.409 70.4136 725.895 68.5976 723.551 68.5334C721.086 68.4658 719.415 70.1945 719.342 72.8694L719.093 81.9458ZM751.798 83.4437C747.019 83.3127 743.746 79.8243 743.878 75.0156C744.009 70.237 747.468 66.9331 752.246 67.0641C756.995 67.1942 760.298 70.6835 760.167 75.4621C760.035 80.2708 756.546 83.5739 751.798 83.4437ZM751.859 81.1896C755.135 81.2794 757.578 78.85 757.673 75.3937C757.767 71.9675 755.461 69.408 752.185 69.3182C748.879 69.2275 746.466 71.6578 746.372 75.084C746.277 78.5403 748.553 81.099 751.859 81.1896ZM769.968 83.9418C765.611 83.8223 763.144 81.6193 763.243 78.0127L765.648 78.0786C765.618 80.2434 767.261 81.7622 770.116 81.8404C772.4 81.903 773.899 80.9816 773.943 79.3888C773.997 77.4052 771.928 77.1981 769.652 76.8349C766.836 76.4269 763.581 75.5857 763.675 72.1295C763.756 69.1842 766.27 67.4484 769.906 67.5481C773.693 67.6519 776.223 69.7364 776.137 72.8621L773.703 72.7953C773.724 70.9311 772.163 69.7154 769.819 69.6511C767.625 69.591 766.095 70.5416 766.052 72.1044C766 73.9978 768.04 74.2041 770.286 74.5364C773.132 74.9753 776.388 75.7864 776.288 79.423C776.207 82.3983 773.845 84.048 769.968 83.9418ZM794.854 84.5035C789.865 84.3668 786.44 80.9344 786.576 75.9754C786.708 71.1667 790.314 68.0172 795.272 68.1531C800.171 68.2874 803.448 71.6556 803.315 76.4943C803.304 76.8851 803.287 77.5162 803.218 77.8451L791.136 77.514C791.437 79.6878 792.931 81.1424 795.125 81.2025C796.838 81.2495 798.184 80.4442 798.88 79.2L802.64 80.2655C801.603 83.0042 798.581 84.6057 794.854 84.5035ZM791.182 74.7482L798.816 74.9574C798.599 72.9965 797.135 71.5127 795.062 71.4558C793.048 71.4006 791.598 72.7144 791.182 74.7482ZM810.255 84.4444L805.807 84.3225L806.419 62.0222L810.867 62.1441L810.255 84.4444ZM826.781 84.8974L822.333 84.7755L822.666 72.6335L820.502 72.5742L820.591 69.3283L822.755 69.3876L822.805 67.5543C822.897 64.2183 824.941 62.0486 827.886 62.1293C828.938 62.1582 829.984 62.3974 830.849 62.6918L830.751 66.2382C830.304 66.1056 829.795 66.0014 829.284 65.9874C828.082 65.9545 827.28 66.6844 827.249 67.8265L827.203 69.5095L830.659 69.6043L830.57 72.8501L827.114 72.7554L826.781 84.8974ZM843.541 69.9573L847.989 70.0793L847.567 85.4671L843.119 85.3452L843.179 83.1813L842.878 83.173C841.688 84.8849 840.192 85.7161 838.328 85.665C834.842 85.5695 832.602 82.8011 832.703 79.1045L832.962 69.6674L837.41 69.7893L837.169 78.5952C837.117 80.4887 838.163 81.8407 839.966 81.8901C841.739 81.9387 843.25 80.5665 843.304 78.613L843.541 69.9573ZM857.245 86.2136C854.15 86.1287 852.226 83.8804 852.315 80.6345L852.512 73.4515L850.348 73.3922L850.437 70.1463L852.721 70.2089L853.726 65.364L857.212 65.4596L857.049 70.3276L860.565 70.4239L860.476 73.6698L856.96 73.5734L856.768 80.5761C856.733 81.8684 857.49 82.7614 858.752 82.796C859.173 82.8076 859.837 82.7355 860.351 82.6293L860.264 85.8151C859.384 86.0917 858.117 86.2375 857.245 86.2136ZM873.772 70.7859L878.22 70.9078L877.798 86.2957L873.35 86.1738L873.409 84.0098L873.109 84.0016C871.919 85.7134 870.422 86.5447 868.559 86.4936C865.073 86.398 862.833 83.6297 862.934 79.933L863.193 70.496L867.641 70.6179L867.399 79.4238C867.347 81.3172 868.393 82.6693 870.196 82.7187C871.97 82.7673 873.481 81.3951 873.534 79.4416L873.772 70.7859ZM885.686 86.5119L881.238 86.3899L881.659 71.0021L886.047 71.1224L885.99 73.2262L886.32 73.2352C887.021 71.8107 888.55 70.8902 890.173 70.9347C890.804 70.952 891.431 71.1195 891.905 71.3732L891.796 75.3704C890.935 74.9558 889.918 74.7475 889.287 74.7302C887.333 74.6766 885.966 76.2633 885.901 78.6376L885.686 86.5119ZM901.307 87.4212C896.167 87.2804 892.859 83.9715 892.995 79.0125C893.131 74.0535 896.616 70.9308 901.755 71.0717C906.864 71.2117 910.202 74.5214 910.066 79.4804C909.93 84.4694 906.416 87.5613 901.307 87.4212ZM901.411 83.6344C903.785 83.6995 905.518 81.9123 905.588 79.3577C905.658 76.803 904.025 74.9536 901.65 74.8886C899.246 74.8227 897.513 76.5798 897.443 79.1344C897.373 81.689 899.006 83.5685 901.411 83.6344ZM914.085 87.6512C912.583 87.61 911.499 86.5276 911.54 85.0549C911.58 83.5823 912.721 82.5608 914.224 82.602C915.726 82.6432 916.78 83.7248 916.739 85.1974C916.699 86.6701 915.588 87.6924 914.085 87.6512ZM943.385 88.8452C937.825 88.6929 934.479 85.6837 934.608 80.9651L937.313 81.0393C937.253 84.316 939.514 86.333 943.481 86.4417C946.938 86.5364 948.992 85.0889 949.057 82.7146C949.137 79.7993 946.205 79.2378 943.033 78.6395C939.233 77.9338 935.053 76.8267 935.179 72.2284C935.283 68.4115 938.267 65.9969 943.376 66.1369C948.576 66.2794 951.657 69.0708 951.564 73.5497L948.92 73.4772C949.002 70.4718 946.947 68.6409 943.31 68.5412C939.884 68.4473 937.98 69.8689 937.918 72.1531C937.841 74.9481 940.652 75.5365 943.765 76.103C947.594 76.8396 951.929 77.8006 951.797 82.6093C951.689 86.5764 948.585 88.9878 943.385 88.8452ZM962.971 89.2317C958.192 89.1007 954.919 85.6123 955.051 80.8036C955.182 76.0249 958.641 72.7211 963.42 72.852C968.168 72.9822 971.471 76.4714 971.34 81.2501C971.208 86.0588 967.719 89.3618 962.971 89.2317ZM963.032 86.9776C966.308 87.0674 968.751 84.6379 968.846 81.1817C968.94 77.7555 966.634 75.1959 963.358 75.1061C960.052 75.0155 957.639 77.4458 957.545 80.872C957.451 84.3282 959.726 86.887 963.032 86.9776ZM977.431 89.0265L974.937 88.9581L975.353 73.7806L977.757 73.8465L977.702 75.8602L978.002 75.8684C978.887 74.3287 980.509 73.3204 982.492 73.3748C984.626 73.4333 986.547 74.6589 987.37 76.456L987.641 76.4634C988.741 74.7191 990.516 73.6248 992.8 73.6874C996.376 73.7854 998.855 76.6204 998.747 80.5575L998.499 89.6039L996.005 89.5355L996.254 80.4591C996.324 77.8744 994.723 75.9658 992.438 75.9032C990.004 75.8364 988.24 77.6529 988.169 80.2375L987.92 89.314L985.426 89.2456L985.675 80.1692C985.748 77.4943 984.234 75.6783 981.889 75.614C979.425 75.5465 977.753 77.2752 977.68 79.95L977.431 89.0265ZM1010.14 90.5244C1005.36 90.3934 1002.08 86.905 1002.22 82.0963C1002.35 77.3177 1005.81 74.0138 1010.58 74.1448C1015.33 74.2749 1018.64 77.7641 1018.51 82.5428C1018.37 87.3515 1014.88 90.6545 1010.14 90.5244ZM1010.2 88.2703C1013.47 88.3601 1015.92 85.9307 1016.01 82.4744C1016.11 79.0482 1013.8 76.4886 1010.52 76.3988C1007.22 76.3082 1004.8 78.7385 1004.71 82.1647C1004.62 85.6209 1006.89 88.1797 1010.2 88.2703ZM1028.31 91.0224C1023.95 90.903 1021.48 88.6999 1021.58 85.0934L1023.99 85.1593C1023.96 87.324 1025.6 88.8428 1028.45 88.9211C1030.74 88.9837 1032.24 88.0623 1032.28 86.4694C1032.34 84.4859 1030.27 84.2787 1027.99 83.9156C1025.17 83.5076 1021.92 82.6664 1022.01 79.2102C1022.09 76.2648 1024.61 74.5291 1028.24 74.6288C1032.03 74.7326 1034.56 76.8171 1034.48 79.9427L1032.04 79.876C1032.06 78.0118 1030.5 76.796 1028.16 76.7318C1025.96 76.6716 1024.43 77.6223 1024.39 79.1851C1024.34 81.0785 1026.38 81.2848 1028.62 81.6171C1031.47 82.056 1034.73 82.8671 1034.63 86.5036C1034.55 89.479 1032.18 91.1287 1028.31 91.0224Z" fill="#FFED00"/>
<path d="M1105.41 90.1219L1105.62 90.3646L1104.4 91.8093C1102.66 93.9219 1101.25 95.4386 1100.15 96.3615C1099.05 97.2846 1097.87 97.7285 1096.58 97.6933C1095.3 97.6581 1094.3 97.2341 1093.59 96.4212C1092.88 95.6083 1092.55 94.2326 1092.6 92.2964C1092.62 91.6945 1092.65 91.2333 1092.69 90.9176L1092.43 90.9103C1091.34 92.9462 1090.06 94.5465 1088.6 95.7136C1087.14 96.8807 1085.32 97.4356 1083.15 97.376C1081.29 97.3251 1079.82 96.8323 1078.72 95.8975C1077.62 94.9626 1077.09 93.7 1077.14 92.1143C1077.19 90.1153 1078.07 88.4704 1079.79 87.1845C1081.5 85.8962 1083.8 84.7062 1086.69 83.6096L1092.63 81.4867C1092.73 79.1381 1092.43 77.2502 1091.72 75.8156C1091.01 74.3834 1090.03 73.6502 1088.78 73.616C1088 73.5945 1087.36 73.8312 1086.89 74.3262C1086.41 74.821 1086.16 75.593 1086.13 76.6397C1086.09 77.9087 1086.37 79.4572 1086.97 81.2854L1077 83.4893L1076.85 83.248C1078.84 79.6813 1081.09 76.9877 1083.6 75.1674C1086.11 73.347 1088.33 72.191 1090.25 71.7043C1092.18 71.2175 1093.6 70.9857 1094.53 71.0111C1096.71 71.0708 1098.37 71.4261 1099.53 72.0772C1100.69 72.7282 1101.47 73.6228 1101.87 74.7609C1102.26 75.899 1102.44 77.3093 1102.39 78.9917C1102.36 80.1664 1102.27 81.4025 1102.13 82.7001L1101.42 91.1132L1101.4 91.8263L1105.41 90.1268L1105.41 90.1219ZM1090.49 91.1669C1091.18 90.7576 1091.79 90.1308 1092.31 89.2864L1092.6 82.5284C1090.36 83.8021 1088.74 84.9481 1087.77 85.9688C1086.8 86.9896 1086.3 88.0257 1086.27 89.0723C1086.24 89.9618 1086.47 90.6262 1086.96 91.0677C1087.45 91.5092 1087.98 91.739 1088.55 91.7547C1089.16 91.7713 1089.81 91.5738 1090.49 91.1645M1132.71 95.9672L1135.18 97.8925L1135.17 98.1777L1120.78 97.7833L1120.79 97.4981L1123.3 95.7091L1123.71 80.7588C1123.77 78.6969 1122.83 77.6384 1120.9 77.5856C1119.65 77.5513 1118.59 78.0615 1117.7 79.1186L1117.25 95.5434L1119.66 97.4672L1119.66 97.7525L1105.26 97.358L1105.27 97.0728L1107.84 95.2853L1108.33 77.4803L1104.27 79.1325L1104.06 78.8873L1105.22 77.4896C1106.44 76.0304 1107.41 74.9226 1108.15 74.1639C1108.88 73.4051 1109.67 72.7831 1110.5 72.298C1111.34 71.8129 1112.2 71.5825 1113.09 71.607C1114.38 71.6422 1115.37 72.0662 1116.08 72.8791C1116.79 73.692 1117.12 75.0677 1117.07 77.0039C1117.05 77.6396 1117.02 78.1467 1116.97 78.5276L1117.03 78.5291C1120.9 74.0609 1123.65 71.8504 1125.29 71.8954C1128.11 71.9726 1130.16 72.798 1131.44 74.3739C1132.71 75.9499 1133.32 77.9767 1133.25 80.4519L1132.72 95.9697L1132.71 95.9672ZM1158.34 83.2802L1166.32 98.746L1166.31 99.0312L1153.31 98.6749L1153.32 98.3896L1155.13 96.6275L1149.64 85.9955L1148.88 86.5478L1148.61 96.4027L1151.07 98.3281L1151.06 98.6133L1136.67 98.2188L1136.68 97.9336L1139.19 96.1447L1140.02 66.0555L1136.67 64.9164L1136.68 64.6312L1149.24 61.5912L1149.56 61.6L1148.9 85.5495L1150.16 84.5366C1151.65 83.53 1152.77 82.3849 1153.5 81.1011C1154.23 79.8197 1154.61 78.5433 1154.65 77.2743C1154.67 76.5128 1154.57 75.8038 1154.36 75.1473C1154.14 74.4906 1153.84 73.9818 1153.46 73.6229L1153.47 73.3377L1166.9 73.7058L1166.89 73.9427L1150.08 85.7268L1158.33 83.285L1158.34 83.2802ZM1071.5 97.0544C1071.51 96.7812 1071.5 96.51 1071.51 96.2369C1071.69 89.5775 1073.11 83.0923 1075.76 76.7836C1078.41 70.4726 1081.87 65.2769 1086.11 61.1891L1076.1 60.9145C1072.08 64.4957 1068.78 69.4805 1066.21 75.8687C1063.63 82.2569 1062.25 88.9608 1062.06 95.9803C1062.05 96.2535 1062.06 96.5246 1062.05 96.7978L1071.5 97.0567L1071.5 97.0544ZM1052.99 96.5469L1062.71 96.8133L1053.62 61.5807L1043.9 61.3142L1052.99 96.5469Z" fill="#FFED00"/>
<path d="M1210.93 96.1781C1205.37 96.0257 1202.02 93.0166 1202.15 88.298L1204.86 88.3722C1204.8 91.6489 1207.06 93.6659 1211.02 93.7746C1214.48 93.8693 1216.54 92.4218 1216.6 90.0475C1216.68 87.1322 1213.75 86.5706 1210.58 85.9724C1206.78 85.2667 1202.6 84.1596 1202.72 79.5613C1202.83 75.7444 1205.81 73.3298 1210.92 73.4698C1216.12 73.6123 1219.2 76.4037 1219.11 80.8826L1216.46 80.8101C1216.55 77.8047 1214.49 75.9738 1210.85 75.8741C1207.43 75.7802 1205.52 77.2018 1205.46 79.486C1205.38 82.281 1208.2 82.8694 1211.31 83.4359C1215.14 84.1725 1219.47 85.1335 1219.34 89.9422C1219.23 93.9093 1216.13 96.3206 1210.93 96.1781ZM1230.51 96.5646C1225.74 96.4336 1222.46 92.9452 1222.59 88.1365C1222.73 83.3578 1226.18 80.0539 1230.96 80.1849C1235.71 80.3151 1239.01 83.8043 1238.88 88.5829C1238.75 93.3916 1235.26 96.6947 1230.51 96.5646ZM1230.58 94.3105C1233.85 94.4003 1236.29 91.9708 1236.39 88.5146C1236.48 85.0884 1234.18 82.5288 1230.9 82.439C1227.6 82.3484 1225.18 84.7787 1225.09 88.2048C1224.99 91.6611 1227.27 94.2199 1230.58 94.3105ZM1244.97 96.3594L1242.48 96.291L1242.9 81.1135L1245.3 81.1794L1245.25 83.1931L1245.55 83.2013C1246.43 81.6616 1248.05 80.6533 1250.04 80.7077C1252.17 80.7662 1254.09 81.9918 1254.91 83.7889L1255.18 83.7963C1256.28 82.052 1258.06 80.9577 1260.34 81.0203C1263.92 81.1183 1266.4 83.9533 1266.29 87.8904L1266.04 96.9368L1263.55 96.8684L1263.8 87.792C1263.87 85.2073 1262.27 83.2987 1259.98 83.2361C1257.55 83.1693 1255.78 84.9858 1255.71 87.5704L1255.46 96.6469L1252.97 96.5785L1253.22 87.5021C1253.29 84.8272 1251.78 83.0112 1249.43 82.9469C1246.97 82.8794 1245.3 84.6081 1245.22 87.2829L1244.97 96.3594ZM1277.68 97.8573C1272.9 97.7263 1269.63 94.2379 1269.76 89.4292C1269.89 84.6506 1273.35 81.3467 1278.13 81.4777C1282.88 81.6078 1286.18 85.097 1286.05 89.8757C1285.92 94.6844 1282.43 97.9874 1277.68 97.8573ZM1277.74 95.6032C1281.02 95.693 1283.46 93.2636 1283.55 89.8073C1283.65 86.3811 1281.34 83.8215 1278.07 83.7317C1274.76 83.6411 1272.35 86.0714 1272.25 89.4976C1272.16 92.9538 1274.44 95.5126 1277.74 95.6032ZM1295.85 98.3553C1291.49 98.2359 1289.03 96.0328 1289.13 92.4263L1291.53 92.4922C1291.5 94.6569 1293.14 96.1757 1296 96.254C1298.28 96.3166 1299.78 95.3952 1299.82 93.8023C1299.88 91.8188 1297.81 91.6116 1295.53 91.2485C1292.72 90.8405 1289.46 89.9993 1289.56 86.5431C1289.64 83.5977 1292.15 81.862 1295.79 81.9617C1299.58 82.0655 1302.1 84.15 1302.02 87.2756L1299.58 87.2089C1299.61 85.3447 1298.04 84.1289 1295.7 84.0647C1293.51 84.0045 1291.98 84.9551 1291.93 86.518C1291.88 88.4114 1293.92 88.6177 1296.17 88.95C1299.01 89.3889 1302.27 90.2 1302.17 93.8365C1302.09 96.8119 1299.73 98.4616 1295.85 98.3553ZM1320.74 98.9171C1315.75 98.7804 1312.32 95.348 1312.46 90.389C1312.59 85.5803 1316.2 82.4308 1321.15 82.5667C1326.05 82.701 1329.33 86.0692 1329.2 90.9079C1329.19 91.2986 1329.17 91.9298 1329.1 92.2587L1317.02 91.9276C1317.32 94.1014 1318.81 95.5559 1321.01 95.6161C1322.72 95.663 1324.07 94.8577 1324.76 93.6136L1328.52 94.6791C1327.48 97.4178 1324.46 99.0193 1320.74 98.9171ZM1317.06 89.1617L1324.7 89.371C1324.48 87.41 1323.02 85.9262 1320.94 85.8694C1318.93 85.8142 1317.48 87.1279 1317.06 89.1617ZM1336.14 98.858L1331.69 98.7361L1332.3 76.4357L1336.75 76.5577L1336.14 98.858ZM1352.66 99.3109L1348.21 99.189L1348.55 87.0471L1346.38 86.9878L1346.47 83.7419L1348.64 83.8012L1348.69 81.9679C1348.78 78.6318 1350.82 76.4622 1353.77 76.5429C1354.82 76.5717 1355.87 76.8109 1356.73 77.1053L1356.63 80.6517C1356.19 80.5192 1355.68 80.415 1355.17 80.401C1353.96 80.368 1353.16 81.098 1353.13 82.2401L1353.08 83.9231L1356.54 84.0178L1356.45 87.2637L1353 87.169L1352.66 99.3109ZM1369.42 84.3709L1373.87 84.4928L1373.45 99.8807L1369 99.7588L1369.06 97.5948L1368.76 97.5866C1367.57 99.2985 1366.07 100.13 1364.21 100.079C1360.72 99.983 1358.48 97.2147 1358.59 93.518L1358.84 84.081L1363.29 84.2029L1363.05 93.0088C1363 94.9022 1364.04 96.2543 1365.85 96.3037C1367.62 96.3523 1369.13 94.9801 1369.19 93.0266L1369.42 84.3709ZM1383.13 100.627C1380.03 100.542 1378.11 98.294 1378.2 95.0481L1378.39 87.8651L1376.23 87.8058L1376.32 84.5599L1378.6 84.6225L1379.61 79.7776L1383.09 79.8732L1382.93 84.7411L1386.45 84.8375L1386.36 88.0834L1382.84 87.987L1382.65 94.9897C1382.61 96.282 1383.37 97.175 1384.63 97.2096C1385.06 97.2211 1385.72 97.1491 1386.23 97.0429L1386.15 100.229C1385.27 100.505 1384 100.651 1383.13 100.627ZM1399.65 85.1995L1404.1 85.3214L1403.68 100.709L1399.23 100.587L1399.29 98.4234L1398.99 98.4152C1397.8 100.127 1396.3 100.958 1394.44 100.907C1390.95 100.812 1388.71 98.0433 1388.82 94.3466L1389.07 84.9095L1393.52 85.0314L1393.28 93.8374C1393.23 95.7308 1394.27 97.0828 1396.08 97.1323C1397.85 97.1809 1399.36 95.8087 1399.42 93.8551L1399.65 85.1995ZM1411.57 100.925L1407.12 100.804L1407.54 85.4157L1411.93 85.5359L1411.87 87.6397L1412.2 87.6488C1412.9 86.2243 1414.43 85.3038 1416.05 85.3483C1416.69 85.3655 1417.31 85.5331 1417.79 85.7867L1417.68 89.784C1416.82 89.3694 1415.8 89.161 1415.17 89.1437C1413.22 89.0902 1411.85 90.6769 1411.78 93.0512L1411.57 100.925ZM1427.19 101.835C1422.05 101.694 1418.74 98.3851 1418.88 93.4261C1419.01 88.4671 1422.5 85.3444 1427.64 85.4852C1432.75 85.6253 1436.08 88.935 1435.95 93.894C1435.81 98.883 1432.3 101.975 1427.19 101.835ZM1427.29 98.048C1429.67 98.113 1431.4 96.3259 1431.47 93.7712C1431.54 91.2166 1429.91 89.3672 1427.53 89.3021C1425.13 89.2362 1423.4 90.9934 1423.33 93.548C1423.26 96.1026 1424.89 97.9821 1427.29 98.048ZM1439.97 102.065C1438.46 102.024 1437.38 100.941 1437.42 99.4685C1437.46 97.9958 1438.6 96.9744 1440.11 97.0156C1441.61 97.0568 1442.66 98.1384 1442.62 99.611C1442.58 101.084 1441.47 102.106 1439.97 102.065ZM1469.27 103.259C1463.71 103.106 1460.36 100.097 1460.49 95.3787L1463.2 95.4528C1463.14 98.7296 1465.4 100.747 1469.36 100.855C1472.82 100.95 1474.87 99.5025 1474.94 97.1282C1475.02 94.2129 1472.09 93.6513 1468.92 93.0531C1465.11 92.3474 1460.93 91.2403 1461.06 86.6419C1461.17 82.825 1464.15 80.4104 1469.26 80.5505C1474.46 80.693 1477.54 83.4844 1477.45 87.9633L1474.8 87.8908C1474.88 84.8854 1472.83 83.0545 1469.19 82.9548C1465.77 82.8609 1463.86 84.2825 1463.8 86.5666C1463.72 89.3617 1466.53 89.95 1469.65 90.5166C1473.48 91.2532 1477.81 92.2141 1477.68 97.0228C1477.57 100.99 1474.47 103.401 1469.27 103.259ZM1488.85 103.645C1484.07 103.514 1480.8 100.026 1480.93 95.2172C1481.06 90.4385 1484.52 87.1346 1489.3 87.2656C1494.05 87.3958 1497.35 90.885 1497.22 95.6636C1497.09 100.472 1493.6 103.775 1488.85 103.645ZM1488.91 101.391C1492.19 101.481 1494.63 99.0515 1494.73 95.5953C1494.82 92.1691 1492.52 89.6095 1489.24 89.5197C1485.93 89.4291 1483.52 91.8593 1483.43 95.2855C1483.33 98.7418 1485.61 101.301 1488.91 101.391ZM1503.31 103.44L1500.82 103.372L1501.23 88.1942L1503.64 88.2601L1503.58 90.2738L1503.88 90.282C1504.77 88.7422 1506.39 87.734 1508.37 87.7884C1510.51 87.8468 1512.43 89.0725 1513.25 90.8696L1513.52 90.877C1514.62 89.1326 1516.4 88.0383 1518.68 88.101C1522.26 88.199 1524.74 91.034 1524.63 94.9711L1524.38 104.017L1521.89 103.949L1522.14 94.8727C1522.21 92.288 1520.6 90.3793 1518.32 90.3167C1515.89 90.25 1514.12 92.0664 1514.05 94.6511L1513.8 103.728L1511.31 103.659L1511.56 94.5827C1511.63 91.9079 1510.12 90.0919 1507.77 90.0276C1505.31 89.9601 1503.64 91.6888 1503.56 94.3636L1503.31 103.44ZM1536.02 104.938C1531.24 104.807 1527.97 101.319 1528.1 96.5099C1528.23 91.7312 1531.69 88.4274 1536.47 88.5583C1541.22 88.6885 1544.52 92.1777 1544.39 96.9564C1544.26 101.765 1540.77 105.068 1536.02 104.938ZM1536.08 102.684C1539.36 102.774 1541.8 100.344 1541.89 96.888C1541.99 93.4618 1539.68 90.9022 1536.41 90.8124C1533.1 90.7218 1530.69 93.1521 1530.59 96.5783C1530.5 100.035 1532.77 102.593 1536.08 102.684ZM1554.19 105.436C1549.83 105.317 1547.36 103.114 1547.46 99.507L1549.87 99.5729C1549.84 101.738 1551.48 103.256 1554.34 103.335C1556.62 103.397 1558.12 102.476 1558.16 100.883C1558.22 98.8994 1556.15 98.6923 1553.87 98.3292C1551.06 97.9211 1547.8 97.08 1547.9 93.6237C1547.98 90.6784 1550.49 88.9427 1554.13 89.0424C1557.91 89.1462 1560.44 91.2306 1560.36 94.3563L1557.92 94.2896C1557.94 92.4254 1556.38 91.2096 1554.04 91.1454C1551.85 91.0852 1550.32 92.0358 1550.27 93.5987C1550.22 95.4921 1552.26 95.6984 1554.51 96.0306C1557.35 96.4695 1560.61 97.2806 1560.51 100.917C1560.43 103.893 1558.07 105.542 1554.19 105.436Z" fill="#FFED00"/>
</g>
<g clip-path="url(#clip1_235_26985)">
<rect width="2355" height="62" transform="translate(-653.972 98.4976) rotate(-1.90712)" fill="#FFED00"/>
<path d="M54.3926 116.863L54.615 117.093L53.4882 118.609C51.8844 120.823 50.5646 122.423 49.5235 123.41C48.4851 124.398 47.325 124.914 46.0404 124.956C44.7558 124.999 43.735 124.636 42.978 123.868C42.221 123.1 41.8089 121.746 41.7445 119.811C41.7244 119.209 41.7254 118.747 41.7501 118.429L41.484 118.438C40.5179 120.536 39.342 122.211 37.9563 123.464C36.5707 124.718 34.7901 125.382 32.6147 125.454C30.7597 125.516 29.2564 125.114 28.1019 124.247C26.9474 123.381 26.3464 122.152 26.2936 120.567C26.2271 118.568 27.0081 116.873 28.6421 115.485C30.2734 114.095 32.4968 112.768 35.3094 111.499L41.1187 109.019C41.0758 106.669 40.6575 104.803 39.8608 103.414C39.0642 102.027 38.0413 101.355 36.7947 101.396C36.0098 101.423 35.3936 101.697 34.9488 102.22C34.5012 102.743 34.2963 103.529 34.3312 104.575C34.3734 105.844 34.7451 107.373 35.4491 109.162L25.6348 111.966L25.4666 111.734C27.2364 108.054 29.3202 105.229 31.718 103.259C34.1157 101.29 36.2588 100.001 38.1501 99.3988C40.0388 98.7964 41.4474 98.4785 42.3763 98.4476C44.5517 98.3752 46.2377 98.6287 47.4343 99.2082C48.6309 99.7878 49.4638 100.633 49.9277 101.745C50.3916 102.857 50.6529 104.254 50.709 105.937C50.7481 107.111 50.7349 108.35 50.6723 109.654L50.4721 118.095L50.4959 118.808L54.3955 116.868L54.3926 116.863ZM39.5687 118.811C40.2307 118.361 40.7987 117.698 41.2698 116.824L41.1506 110.061C38.9843 111.468 37.446 112.71 36.5357 113.788C35.6254 114.866 35.1878 115.93 35.2226 116.977C35.2522 117.866 35.524 118.515 36.038 118.926C36.5519 119.337 37.0941 119.535 37.6645 119.516C38.2701 119.496 38.9066 119.259 39.5686 118.809M82.0036 121.042L84.5803 122.814L84.5898 123.099L70.201 123.578L70.1915 123.293L72.5903 121.355L72.0925 106.408C72.0239 104.346 71.0254 103.346 69.0998 103.41C67.8505 103.452 66.8174 104.026 65.9979 105.135L66.5447 121.557L69.0671 123.331L69.0766 123.616L54.6878 124.095L54.6783 123.81L57.1314 121.87L56.5386 104.068L52.5859 105.964L52.3634 105.731L53.4402 104.266C54.5665 102.735 55.4739 101.57 56.1623 100.768C56.8479 99.9666 57.5951 99.2982 58.3984 98.7633C59.2017 98.2285 60.0488 97.9462 60.9396 97.9166C62.2242 97.8738 63.245 98.2366 64.002 99.005C64.759 99.7733 65.1711 101.127 65.2355 103.062C65.2567 103.698 65.2546 104.206 65.232 104.589L65.2863 104.587C68.8794 99.8926 71.4948 97.5192 73.1352 97.4645C75.9516 97.3708 78.0467 98.0704 79.4178 99.5659C80.789 101.061 81.5159 103.048 81.5983 105.523L82.0091 121.044L82.0036 121.042ZM106.808 106.824L115.713 121.778L115.722 122.063L102.724 122.496L102.714 122.21L104.419 120.341L98.294 110.062L97.5635 110.66L97.8916 120.513L100.468 122.285L100.478 122.57L86.089 123.049L86.0795 122.764L88.4782 120.826L87.4765 90.7424L84.0713 89.8082L84.0618 89.523L96.4124 85.727L96.7329 85.7163L97.5302 109.662L98.7257 108.574C100.152 107.479 101.194 106.268 101.846 104.943C102.498 103.619 102.802 102.322 102.76 101.053C102.735 100.292 102.595 99.5902 102.342 98.9477C102.087 98.3054 101.761 97.8154 101.355 97.4805L101.346 97.1954L114.773 96.7483L114.781 96.9851L98.711 109.767L106.805 106.829L106.808 106.824ZM20.9716 125.839C20.9598 125.566 20.9345 125.296 20.9254 125.023C20.7037 118.365 21.7251 111.806 23.9897 105.348C26.2542 98.8877 29.3862 93.4921 33.3799 89.1541L23.3637 89.4876C19.5675 93.3061 16.5804 98.4815 14.3999 105.014C12.2193 111.547 11.2459 118.322 11.4796 125.34C11.4886 125.613 11.5112 125.884 11.5231 126.157L20.9689 125.842L20.9716 125.839ZM2.45731 126.456L12.1775 126.132L0.973039 91.5155L-8.74715 91.8391L2.45731 126.456Z" fill="black"/>
<path d="M160.087 116.509C154.527 116.694 151.005 113.893 150.848 109.175L153.552 109.085C153.691 112.36 156.07 114.236 160.037 114.104C163.492 113.989 165.455 112.419 165.376 110.045C165.279 107.13 162.319 106.748 159.116 106.343C155.28 105.869 151.04 105.018 150.887 100.42C150.76 96.6038 153.592 94.0127 158.7 93.8426C163.899 93.6695 167.144 96.2688 167.323 100.745L164.679 100.833C164.579 97.8283 162.416 96.1254 158.78 96.2465C155.355 96.3606 153.541 97.895 153.617 100.179C153.71 102.973 156.551 103.39 159.692 103.767C163.56 104.27 167.945 104.966 168.105 109.774C168.237 113.74 165.285 116.335 160.087 116.509ZM179.659 115.706C174.881 115.866 171.403 112.582 171.243 107.774C171.084 102.996 174.336 99.4888 179.114 99.3297C183.862 99.1716 187.37 102.454 187.529 107.232C187.689 112.04 184.407 115.548 179.659 115.706ZM179.584 113.453C182.859 113.344 185.15 110.771 185.035 107.315C184.921 103.889 182.464 101.474 179.189 101.583C175.884 101.693 173.623 104.266 173.737 107.691C173.852 111.147 176.279 113.563 179.584 113.453ZM194.081 114.625L191.587 114.708L191.081 99.5329L193.485 99.4528L193.552 101.466L193.853 101.456C194.642 99.8655 196.2 98.7608 198.183 98.6948C200.316 98.6237 202.309 99.7306 203.239 101.474L203.51 101.465C204.502 99.6576 206.207 98.4577 208.491 98.3816C212.067 98.2626 214.713 100.942 214.844 104.878L215.145 113.923L212.651 114.006L212.349 104.931C212.263 102.347 210.548 100.539 208.264 100.615C205.83 100.696 204.18 102.616 204.266 105.201L204.568 114.275L202.074 114.358L201.772 105.284C201.683 102.609 200.061 100.888 197.717 100.966C195.253 101.048 193.69 102.875 193.779 105.55L194.081 114.625ZM226.816 114.136C222.038 114.295 218.56 111.012 218.4 106.204C218.241 101.426 221.493 97.9186 226.271 97.7595C231.019 97.6014 234.527 100.884 234.686 105.662C234.846 110.47 231.564 113.978 226.816 114.136ZM226.741 111.883C230.016 111.773 232.307 109.2 232.192 105.745C232.078 102.319 229.621 99.9041 226.346 100.013C223.04 100.123 220.78 102.695 220.894 106.121C221.009 109.577 223.436 111.993 226.741 111.883ZM244.984 113.531C240.627 113.676 238.032 111.627 237.912 108.021L240.315 107.941C240.418 110.104 242.149 111.52 245.004 111.425C247.288 111.349 248.728 110.338 248.675 108.746C248.609 106.762 246.531 106.681 244.237 106.457C241.401 106.22 238.101 105.578 237.986 102.122C237.888 99.1776 240.292 97.2926 243.928 97.1716C247.714 97.0455 250.365 98.9727 250.469 102.098L248.035 102.179C247.943 100.317 246.312 99.198 243.968 99.276C241.774 99.349 240.305 100.391 240.357 101.953C240.42 103.846 242.468 103.929 244.731 104.124C247.597 104.389 250.897 105.002 251.018 108.638C251.117 111.612 248.86 113.402 244.984 113.531ZM269.858 112.583C264.87 112.749 261.243 109.53 261.078 104.572C260.918 99.7645 264.326 96.4021 269.284 96.237C274.182 96.0739 277.656 99.2372 277.817 104.075C277.83 104.466 277.851 105.097 277.802 105.429L265.723 105.832C266.155 107.983 267.735 109.344 269.928 109.271C271.641 109.214 272.935 108.329 273.554 107.045L277.372 107.88C276.503 110.677 273.584 112.459 269.858 112.583ZM265.6 103.068L273.233 102.814C272.897 100.87 271.347 99.4774 269.274 99.5464C267.26 99.6135 265.893 101.013 265.6 103.068ZM285.227 111.59L280.78 111.738L280.037 89.4413L284.485 89.2932L285.227 111.59ZM301.75 111.039L297.303 111.188L296.898 99.0477L294.735 99.1198L294.627 95.8745L296.79 95.8024L296.729 93.9694C296.618 90.634 298.527 88.3443 301.472 88.2463C302.524 88.2113 303.583 88.3866 304.463 88.628L304.581 92.1738C304.126 92.0686 303.613 91.9955 303.102 92.0125C301.9 92.0525 301.144 92.8297 301.182 93.9716L301.238 95.6543L304.693 95.5393L304.801 98.7846L301.346 98.8996L301.75 111.039ZM317.573 95.1104L322.02 94.9623L322.533 110.347L318.085 110.496L318.013 108.332L317.713 108.342C316.629 110.123 315.186 111.043 313.322 111.105C309.837 111.221 307.433 108.594 307.31 104.898L306.996 95.4626L311.443 95.3145L311.736 104.119C311.799 106.012 312.925 107.298 314.728 107.238C316.501 107.179 317.926 105.718 317.861 103.765L317.573 95.1104ZM332.238 110.506C329.143 110.609 327.086 108.481 326.978 105.236L326.739 98.0541L324.576 98.1261L324.468 94.8808L326.751 94.8048L327.461 89.9078L330.946 89.7918L331.078 94.6607L334.594 94.5437L334.702 97.7889L331.186 97.906L331.42 104.907C331.463 106.2 332.273 107.045 333.535 107.003C333.956 106.989 334.614 106.877 335.121 106.74L335.227 109.925C334.365 110.254 333.109 110.477 332.238 110.506ZM347.798 94.104L352.245 93.9559L352.758 109.341L348.31 109.489L348.238 107.326L347.938 107.336C346.854 109.116 345.411 110.037 343.548 110.099C340.062 110.215 337.658 107.588 337.535 103.892L337.221 94.4562L341.668 94.3081L341.961 103.112C342.024 105.006 343.15 106.292 344.953 106.232C346.726 106.173 348.151 104.711 348.086 102.758L347.798 94.104ZM360.644 109.078L356.197 109.226L355.684 93.8414L360.071 93.6953L360.141 95.7987L360.472 95.7877C361.085 94.3234 362.555 93.3118 364.178 93.2577C364.809 93.2367 365.445 93.366 365.934 93.5904L366.067 97.5869C365.183 97.2252 364.155 97.079 363.524 97.1C361.571 97.165 360.303 98.8317 360.382 101.206L360.644 109.078ZM376.291 109.039C371.153 109.21 367.65 106.108 367.485 101.15C367.32 96.1914 370.609 92.8631 375.747 92.692C380.855 92.5219 384.388 95.6231 384.553 100.581C384.719 105.569 381.4 108.869 376.291 109.039ZM376.165 105.253C378.539 105.173 380.161 103.284 380.076 100.73C379.991 98.1761 378.248 96.4292 375.874 96.5083C373.47 96.5883 371.848 98.4473 371.933 101.001C372.018 103.556 373.761 105.333 376.165 105.253ZM389.06 108.493C387.558 108.543 386.411 107.529 386.362 106.056C386.313 104.584 387.39 103.495 388.892 103.445C390.395 103.395 391.511 104.411 391.561 105.883C391.61 107.355 390.563 108.443 389.06 108.493ZM418.379 107.908C412.82 108.093 409.297 105.292 409.14 100.575L411.844 100.485C411.984 103.759 414.362 105.635 418.329 105.503C421.785 105.388 423.748 103.819 423.669 101.445C423.572 98.5299 420.611 98.1472 417.409 97.7424C413.572 97.2685 409.333 96.417 409.179 91.8195C409.052 88.0032 411.884 85.4121 416.992 85.242C422.191 85.0689 425.436 87.6683 425.615 92.1446L422.971 92.2326C422.871 89.2277 420.708 87.5249 417.072 87.6459C413.647 87.76 411.833 89.2944 411.909 91.5782C412.002 94.3727 414.844 94.7895 417.985 95.1662C421.852 95.6692 426.237 96.3655 426.397 101.173C426.529 105.14 423.577 107.735 418.379 107.908ZM437.952 107.106C433.174 107.265 429.695 103.981 429.535 99.1737C429.376 94.3959 432.628 90.8883 437.406 90.7292C442.154 90.5711 445.663 93.8536 445.822 98.6313C445.982 103.439 442.699 106.948 437.952 107.106ZM437.876 104.852C441.152 104.743 443.443 102.17 443.328 98.7144C443.213 95.2888 440.757 92.8738 437.481 92.9828C434.176 93.0929 431.915 95.665 432.029 99.0906C432.144 102.546 434.571 104.962 437.876 104.852ZM452.373 106.024L449.879 106.107L449.374 90.9323L451.778 90.8523L451.845 92.8656L452.145 92.8556C452.935 91.265 454.492 90.1602 456.475 90.0942C458.609 90.0232 460.601 91.13 461.532 92.8739L461.802 92.8649C462.795 91.057 464.499 89.8571 466.783 89.7811C470.359 89.662 473.005 92.3415 473.136 96.2779L473.437 105.323L470.943 105.406L470.641 96.3309C470.555 93.7467 468.84 91.9387 466.557 92.0147C464.123 92.0957 462.472 94.0158 462.558 96.6L462.86 105.675L460.366 105.758L460.064 96.6831C459.975 94.0087 458.353 92.2879 456.01 92.3659C453.546 92.4479 451.982 94.2749 452.071 96.9492L452.373 106.024ZM485.109 105.536C480.331 105.695 476.852 102.411 476.692 97.6034C476.533 92.8256 479.785 89.318 484.563 89.1589C489.311 89.0009 492.82 92.2833 492.979 97.0611C493.139 101.869 489.856 105.378 485.109 105.536ZM485.033 103.282C488.309 103.173 490.6 100.6 490.485 97.1442C490.37 93.7186 487.914 91.3036 484.638 91.4126C481.333 91.5227 479.072 94.0948 479.186 97.5204C479.301 100.976 481.728 103.392 485.033 103.282ZM503.276 104.931C498.919 105.076 496.324 103.026 496.204 99.4205L498.608 99.3404C498.71 101.503 500.442 102.919 503.296 102.824C505.58 102.748 507.02 101.738 506.967 100.145C506.901 98.1618 504.823 98.0806 502.529 97.8562C499.694 97.6197 496.393 96.9775 496.278 93.5219C496.18 90.5771 498.584 88.6921 502.22 88.571C506.006 88.4449 508.657 90.3722 508.762 93.4973L506.328 93.5783C506.235 91.7163 504.604 90.5974 502.26 90.6754C500.066 90.7485 498.597 91.7901 498.649 93.3527C498.712 95.2458 500.76 95.328 503.023 95.5234C505.89 95.7889 509.189 96.401 509.31 100.037C509.409 103.012 507.152 104.802 503.276 104.931Z" fill="black"/>
<path d="M580.181 99.3561L580.403 99.5858L579.276 101.102C577.672 103.316 576.353 104.915 575.312 105.903C574.273 106.891 573.113 107.406 571.828 107.449C570.544 107.492 569.523 107.129 568.766 106.361C568.009 105.592 567.597 104.239 567.533 102.303C567.513 101.701 567.513 101.239 567.538 100.921L567.272 100.93C566.306 103.029 565.13 104.703 563.744 105.957C562.359 107.21 560.578 107.874 558.403 107.947C556.548 108.009 555.044 107.606 553.89 106.74C552.736 105.873 552.135 104.645 552.082 103.06C552.015 101.061 552.796 99.3655 554.43 97.978C556.062 96.5882 558.285 95.2609 561.097 93.9914L566.907 91.5115C566.864 89.1613 566.446 87.2953 565.649 85.9065C564.852 84.52 563.829 83.8476 562.583 83.8891C561.798 83.9153 561.182 84.1898 560.737 84.7127C560.289 85.2357 560.084 86.0216 560.119 87.068C560.161 88.3368 560.533 89.8656 561.237 91.6544L551.423 94.4587L551.255 94.2272C553.025 90.5463 555.108 87.7212 557.506 85.7518C559.904 83.7824 562.047 82.494 563.938 81.8915C565.827 81.2891 567.236 80.9712 568.164 80.9403C570.34 80.8678 572.026 81.1214 573.222 81.7009C574.419 82.2805 575.252 83.1261 575.716 84.2381C576.18 85.3502 576.441 86.7471 576.497 88.4292C576.536 89.6038 576.523 90.8429 576.46 92.1467L576.26 100.588L576.284 101.3L580.184 99.3609L580.181 99.3561ZM565.357 101.304C566.019 100.854 566.587 100.191 567.058 99.3165L566.939 92.5533C564.772 93.9609 563.234 95.2025 562.324 96.2804C561.414 97.3584 560.976 98.423 561.011 99.4694C561.04 100.359 561.312 101.008 561.826 101.419C562.34 101.83 562.882 102.027 563.453 102.008C564.058 101.988 564.695 101.752 565.357 101.301M607.792 103.535L610.368 105.307L610.378 105.592L595.989 106.071L595.98 105.786L598.378 103.848L597.881 88.9003C597.812 86.8388 596.813 85.8389 594.888 85.9031C593.639 85.9447 592.605 86.5186 591.786 87.6274L592.333 104.049L594.855 105.823L594.865 106.109L580.476 106.588L580.466 106.303L582.919 104.363L582.327 86.5608L578.374 88.4562L578.151 88.2241L579.228 86.7584C580.355 85.2281 581.262 84.0631 581.95 83.2612C582.636 82.4593 583.383 81.7908 584.187 81.256C584.99 80.7212 585.837 80.4389 586.728 80.4093C588.012 80.3665 589.033 80.7293 589.79 81.4977C590.547 82.266 590.959 83.6193 591.024 85.5551C591.045 86.1907 591.043 86.6989 591.02 87.0819L591.074 87.0801C594.667 82.3853 597.283 80.0118 598.923 79.9572C601.74 79.8634 603.835 80.563 605.206 82.0586C606.577 83.5541 607.304 85.5404 607.386 88.0152L607.797 103.537L607.792 103.535ZM632.596 89.317L641.501 104.27L641.51 104.555L628.512 104.988L628.502 104.703L630.207 102.834L624.082 92.5546L623.352 93.1523L623.68 103.005L626.256 104.778L626.266 105.063L611.877 105.542L611.868 105.257L614.266 103.319L613.265 73.2351L609.859 72.3009L609.85 72.0157L622.201 68.2197L622.521 68.209L623.318 92.1542L624.514 91.0668C625.94 89.9717 626.982 88.7612 627.634 87.4354C628.286 86.112 628.591 84.8147 628.548 83.5459C628.523 82.7846 628.383 82.0828 628.13 81.4404C627.875 80.7981 627.549 80.3081 627.143 79.9732L627.134 79.688L640.561 79.2409L640.569 79.4778L624.499 92.2601L632.593 89.3219L632.596 89.317ZM546.76 108.332C546.748 108.059 546.723 107.789 546.713 107.516C546.492 100.858 547.513 94.2985 549.778 87.8406C552.042 81.3803 555.174 75.9847 559.168 71.6468L549.152 71.9803C545.356 75.7988 542.368 80.9742 540.188 87.5067C538.007 94.0392 537.034 100.815 537.268 107.833C537.277 108.106 537.299 108.376 537.311 108.649L546.757 108.335L546.76 108.332ZM528.245 108.949L537.966 108.625L526.761 74.0081L517.041 74.3318L528.245 108.949Z" fill="black"/>
<path d="M685.874 99.0008C680.315 99.1859 676.792 96.3852 676.635 91.6675L679.339 91.5774C679.478 94.8518 681.857 96.7279 685.824 96.5958C689.279 96.4808 691.243 94.9113 691.164 92.5374C691.066 89.6227 688.106 89.2399 684.903 88.8352C681.067 88.3612 676.827 87.5097 676.674 82.9122C676.547 79.096 679.379 76.5049 684.487 76.3348C689.686 76.1617 692.931 78.761 693.11 83.2373L690.466 83.3254C690.366 80.3205 688.203 78.6176 684.567 78.7387C681.142 78.8528 679.328 80.3872 679.404 82.6709C679.497 85.4655 682.338 85.8822 685.479 86.259C689.347 86.7619 693.732 87.4582 693.892 92.2661C694.024 96.2325 691.072 98.8277 685.874 99.0008ZM705.446 98.1986C700.668 98.3577 697.19 95.0742 697.03 90.2664C696.871 85.4886 700.123 81.981 704.901 81.8219C709.649 81.6638 713.157 84.9463 713.316 89.7241C713.476 94.5319 710.194 98.0405 705.446 98.1986ZM705.371 95.9449C708.647 95.8359 710.937 93.2628 710.822 89.8071C710.708 86.3815 708.251 83.9665 704.976 84.0756C701.671 84.1856 699.41 86.7578 699.524 90.1833C699.639 93.639 702.066 96.055 705.371 95.9449ZM719.868 97.1168L717.374 97.1998L716.869 82.0251L719.272 81.945L719.339 83.9583L719.64 83.9483C720.429 82.3577 721.987 81.253 723.97 81.1869C726.104 81.1159 728.096 82.2228 729.026 83.9667L729.297 83.9577C730.289 82.1497 731.994 80.9498 734.278 80.8738C737.854 80.7547 740.5 83.4342 740.631 87.3706L740.932 96.4154L738.438 96.4984L738.136 87.4236C738.05 84.8394 736.335 83.0314 734.051 83.1074C731.618 83.1885 729.967 85.1086 730.053 87.6928L730.355 96.7676L727.861 96.8506L727.559 87.7758C727.47 85.1015 725.848 83.3806 723.504 83.4586C721.04 83.5407 719.477 85.3676 719.566 88.042L719.868 97.1168ZM752.603 96.6284C747.825 96.7875 744.347 93.504 744.187 88.6962C744.028 83.9184 747.28 80.4108 752.058 80.2517C756.806 80.0936 760.314 83.3761 760.473 88.1539C760.633 92.9617 757.351 96.4703 752.603 96.6284ZM752.528 94.3747C755.804 94.2657 758.094 91.6925 757.979 88.2369C757.865 84.8113 755.408 82.3963 752.133 82.5054C748.828 82.6154 746.567 85.1875 746.681 88.6131C746.796 92.0688 749.223 94.4848 752.528 94.3747ZM770.771 96.0235C766.414 96.1685 763.819 94.1191 763.699 90.5132L766.103 90.4332C766.205 92.5957 767.936 94.0121 770.791 93.917C773.075 93.841 774.515 92.8304 774.462 91.2378C774.396 89.2546 772.318 89.1733 770.024 88.9489C767.188 88.7124 763.888 88.0702 763.773 84.6146C763.675 81.6698 766.079 79.7848 769.715 79.6638C773.501 79.5377 776.152 81.4649 776.256 84.59L773.822 84.6711C773.73 82.809 772.099 81.6901 769.755 81.7682C767.561 81.8412 766.092 82.8829 766.144 84.4454C766.207 86.3385 768.255 86.4207 770.518 86.6161C773.385 86.8816 776.684 87.4938 776.805 91.1297C776.904 94.1045 774.647 95.8944 770.771 96.0235ZM795.645 95.0749C790.657 95.241 787.03 92.0226 786.865 87.0645C786.705 82.2567 790.113 78.8943 795.071 78.7292C799.969 78.5661 803.443 81.7294 803.604 86.5673C803.617 86.9579 803.638 87.589 803.589 87.9215L791.51 88.3237C791.942 90.4752 793.522 91.8365 795.715 91.7635C797.428 91.7064 798.722 90.821 799.341 89.537L803.16 90.3725C802.29 93.169 799.371 94.9508 795.645 95.0749ZM791.388 85.5602L799.02 85.3061C798.685 83.3619 797.134 81.9696 795.061 82.0386C793.047 82.1056 791.68 83.5049 791.388 85.5602ZM811.014 94.0818L806.567 94.2299L805.825 71.9335L810.272 71.7854L811.014 94.0818ZM827.537 93.5316L823.09 93.6797L822.685 81.5399L820.522 81.612L820.414 78.3667L822.577 78.2946L822.516 76.4616C822.405 73.1262 824.315 70.8365 827.259 70.7385C828.311 70.7035 829.37 70.8788 830.25 71.1202L830.368 74.666C829.914 74.5608 829.4 74.4877 828.889 74.5047C827.687 74.5447 826.931 75.3219 826.969 76.4638L827.025 78.1465L830.48 78.0315L830.588 81.2768L827.133 81.3918L827.537 93.5316ZM843.36 77.6026L847.807 77.4545L848.32 92.8396L843.872 92.9877L843.8 90.8242L843.5 90.8342C842.416 92.615 840.973 93.5355 839.11 93.5975C835.624 93.7136 833.22 91.0862 833.097 87.3902L832.783 77.9548L837.23 77.8067L837.523 86.6111C837.586 88.5042 838.712 89.7903 840.515 89.7303C842.288 89.6712 843.713 88.2099 843.648 86.2567L843.36 77.6026ZM858.025 92.9978C854.93 93.1008 852.873 90.9733 852.765 87.728L852.526 80.5463L850.363 80.6183L850.255 77.373L852.538 77.297L853.248 72.4L856.733 72.284L856.865 77.1529L860.381 77.0358L860.489 80.2811L856.974 80.3982L857.207 87.3996C857.25 88.6917 858.06 89.5371 859.322 89.4951C859.743 89.4811 860.401 89.3689 860.908 89.2317L861.014 92.4169C860.152 92.7464 858.896 92.9688 858.025 92.9978ZM873.585 76.5962L878.032 76.4481L878.545 91.8332L874.097 91.9813L874.025 89.8177L873.725 89.8277C872.641 91.6086 871.198 92.5291 869.335 92.5911C865.849 92.7072 863.445 90.0798 863.322 86.3838L863.008 76.9484L867.455 76.8003L867.748 85.6047C867.811 87.4977 868.937 88.7839 870.74 88.7238C872.513 88.6648 873.938 87.2035 873.873 85.2503L873.585 76.5962ZM886.431 91.5706L881.984 91.7187L881.471 76.3336L885.859 76.1875L885.929 78.2909L886.259 78.2799C886.872 76.8156 888.343 75.804 889.965 75.7499C890.596 75.7289 891.232 75.8582 891.721 76.0825L891.854 80.0791C890.97 79.7174 889.942 79.5712 889.311 79.5922C887.358 79.6572 886.09 81.3239 886.169 83.6978L886.431 91.5706ZM902.079 91.5309C896.94 91.702 893.438 88.5998 893.272 83.6417C893.107 78.6836 896.396 75.3553 901.534 75.1842C906.643 75.0141 910.175 78.1153 910.34 83.0734C910.506 88.0615 907.187 91.3608 902.079 91.5309ZM901.952 87.7447C904.326 87.6657 905.948 85.7766 905.863 83.2225C905.778 80.6683 904.035 78.9214 901.661 79.0004C899.257 79.0805 897.635 80.9395 897.72 83.4936C897.805 86.0478 899.549 87.8247 901.952 87.7447ZM914.847 90.9854C913.345 91.0354 912.198 90.0207 912.149 88.5483C912.1 87.0759 913.177 85.9872 914.679 85.9371C916.182 85.8871 917.299 86.9028 917.348 88.3752C917.397 89.8476 916.35 90.9353 914.847 90.9854ZM944.166 90.4002C938.607 90.5853 935.084 87.7846 934.927 83.0669L937.632 82.9769C937.771 86.2512 940.15 88.1274 944.116 87.9953C947.572 87.8802 949.535 86.3107 949.456 83.9369C949.359 81.0221 946.398 80.6394 943.196 80.2346C939.36 79.7607 935.12 78.9092 934.967 74.3117C934.839 70.4954 937.671 67.9043 942.78 67.7342C947.978 67.5611 951.223 70.1605 951.402 74.6368L948.758 74.7248C948.658 71.7199 946.496 70.0171 942.86 70.1381C939.434 70.2522 937.62 71.7866 937.696 74.0704C937.789 76.8649 940.631 77.2817 943.772 77.6584C947.639 78.1614 952.024 78.8577 952.184 83.6655C952.316 87.632 949.364 90.2271 944.166 90.4002ZM963.739 89.5981C958.961 89.7572 955.482 86.4737 955.322 81.6658C955.163 76.888 958.416 73.3804 963.193 73.2214C967.941 73.0633 971.45 76.3457 971.609 81.1235C971.769 85.9314 968.486 89.44 963.739 89.5981ZM963.664 87.3444C966.939 87.2353 969.23 84.6622 969.115 81.2066C969.001 77.781 966.544 75.366 963.268 75.475C959.963 75.5851 957.702 78.1572 957.816 81.5828C957.931 85.0384 960.358 87.4545 963.664 87.3444ZM978.16 88.5162L975.666 88.5993L975.161 73.4245L977.565 73.3445L977.632 75.3577L977.932 75.3477C978.722 73.7572 980.279 72.6524 982.262 72.5864C984.396 72.5154 986.388 73.6222 987.319 75.3661L987.589 75.3571C988.582 73.5492 990.287 72.3493 992.57 72.2733C996.146 72.1542 998.792 74.8336 998.923 78.7701L999.225 87.8148L996.731 87.8979L996.428 78.8231C996.342 76.2388 994.628 74.4308 992.344 74.5069C989.91 74.5879 988.259 76.508 988.345 79.0922L988.647 88.167L986.153 88.2501L985.851 79.1753C985.762 76.5009 984.14 74.78 981.797 74.8581C979.333 74.9401 977.769 76.7671 977.858 79.4414L978.16 88.5162ZM1010.9 88.0278C1006.12 88.1869 1002.64 84.9035 1002.48 80.0956C1002.32 75.3178 1005.57 71.8102 1010.35 71.6511C1015.1 71.493 1018.61 74.7755 1018.77 79.5533C1018.93 84.3612 1015.64 87.8698 1010.9 88.0278ZM1010.82 85.7742C1014.1 85.6651 1016.39 83.092 1016.27 79.6364C1016.16 76.2108 1013.7 73.7957 1010.43 73.9048C1007.12 74.0149 1004.86 76.587 1004.97 80.0126C1005.09 83.4682 1007.52 85.8842 1010.82 85.7742ZM1029.06 87.4229C1024.71 87.568 1022.11 85.5186 1021.99 81.9127L1024.39 81.8326C1024.5 83.9952 1026.23 85.4115 1029.08 85.3165C1031.37 85.2404 1032.81 84.2298 1032.75 82.6372C1032.69 80.654 1030.61 80.5728 1028.32 80.3483C1025.48 80.1119 1022.18 79.4697 1022.07 76.0141C1021.97 73.0693 1024.37 71.1843 1028.01 71.0632C1031.79 70.9371 1034.44 72.8644 1034.55 75.9895L1032.11 76.0705C1032.02 74.2085 1030.39 73.0896 1028.05 73.1676C1025.85 73.2407 1024.38 74.2823 1024.44 75.8449C1024.5 77.738 1026.55 77.8202 1028.81 78.0156C1031.68 78.2811 1034.98 78.8932 1035.1 82.5291C1035.2 85.504 1032.94 87.2938 1029.06 87.4229Z" fill="black"/>
<path d="M1105.97 81.8483L1106.19 82.078L1105.06 83.5938C1103.46 85.8078 1102.14 87.4074 1101.1 88.3953C1100.06 89.3832 1098.9 89.8984 1097.62 89.9412C1096.33 89.984 1095.31 89.6212 1094.55 88.8528C1093.8 88.0844 1093.38 86.7312 1093.32 84.7954C1093.3 84.1936 1093.3 83.7314 1093.33 83.4137L1093.06 83.4225C1092.09 85.5209 1090.92 87.1956 1089.53 88.449C1088.15 89.7025 1086.37 90.3666 1084.19 90.4391C1082.33 90.5008 1080.83 90.0985 1079.68 89.232C1078.52 88.3656 1077.92 87.1372 1077.87 85.5518C1077.8 83.5531 1078.58 81.8577 1080.22 80.4702C1081.85 79.0803 1084.07 77.753 1086.88 76.4835L1092.69 74.0037C1092.65 71.6535 1092.23 69.7875 1091.44 68.3987C1090.64 67.0122 1089.62 66.3398 1088.37 66.3813C1087.58 66.4075 1086.97 66.682 1086.52 67.2049C1086.08 67.7279 1085.87 68.5138 1085.91 69.5602C1085.95 70.829 1086.32 72.3578 1087.02 74.1465L1077.21 76.9508L1077.04 76.7193C1078.81 73.0385 1080.9 70.2134 1083.29 68.244C1085.69 66.2745 1087.83 64.9862 1089.73 64.3837C1091.61 63.7813 1093.02 63.4634 1093.95 63.4325C1096.13 63.36 1097.81 63.6136 1099.01 64.1931C1100.21 64.7726 1101.04 65.6183 1101.5 66.7303C1101.97 67.8423 1102.23 69.2393 1102.28 70.9214C1102.32 72.0959 1102.31 73.3351 1102.25 74.6389L1102.05 83.0797L1102.07 83.7926L1105.97 81.8531L1105.97 81.8483ZM1091.14 83.796C1091.81 83.3457 1092.37 82.6832 1092.85 81.8086L1092.73 75.0454C1090.56 76.4531 1089.02 77.6947 1088.11 78.7726C1087.2 79.8506 1086.76 80.9152 1086.8 81.9616C1086.83 82.851 1087.1 83.5 1087.61 83.9111C1088.13 84.3223 1088.67 84.5196 1089.24 84.5006C1089.85 84.4804 1090.48 84.2439 1091.14 83.7936M1133.58 86.0267L1136.16 87.799L1136.16 88.0842L1121.78 88.5633L1121.77 88.2781L1124.17 86.3401L1123.67 71.3925C1123.6 69.331 1122.6 68.3311 1120.68 68.3953C1119.43 68.4369 1118.39 69.0108 1117.57 70.1196L1118.12 86.5414L1120.64 88.3156L1120.65 88.6008L1106.26 89.0799L1106.25 88.7947L1108.71 86.8549L1108.11 69.053L1104.16 70.9484L1103.94 70.7163L1105.02 69.2506C1106.14 67.7203 1107.05 66.5553 1107.74 65.7534C1108.42 64.9515 1109.17 64.283 1109.97 63.7482C1110.78 63.2134 1111.62 62.9311 1112.51 62.9014C1113.8 62.8587 1114.82 63.2215 1115.58 63.9898C1116.33 64.7582 1116.75 66.1115 1116.81 68.0473C1116.83 68.6829 1116.83 69.1911 1116.81 69.5741L1116.86 69.5723C1120.45 64.8775 1123.07 62.504 1124.71 62.4494C1127.53 62.3556 1129.62 63.0552 1130.99 64.5508C1132.36 66.0463 1133.09 68.0326 1133.17 70.5074L1133.58 86.0289L1133.58 86.0267ZM1158.38 71.8092L1167.29 86.7624L1167.3 87.0476L1154.3 87.4804L1154.29 87.1952L1155.99 85.3263L1149.87 75.0468L1149.14 75.6445L1149.47 85.4977L1152.04 87.27L1152.05 87.5552L1137.66 88.0343L1137.65 87.7491L1140.05 85.8111L1139.05 55.7273L1135.65 54.7931L1135.64 54.5079L1147.99 50.7118L1148.31 50.7012L1149.11 74.6464L1150.3 73.559C1151.73 72.4639 1152.77 71.2533 1153.42 69.9276C1154.07 68.6042 1154.38 67.3069 1154.34 66.0381C1154.31 65.2768 1154.17 64.575 1153.92 63.9326C1153.66 63.2903 1153.34 62.8003 1152.93 62.4654L1152.92 62.1802L1166.35 61.7331L1166.36 61.97L1150.29 74.7523L1158.38 71.8141L1158.38 71.8092ZM1072.55 90.8243C1072.53 90.5513 1072.51 90.2812 1072.5 90.0081C1072.28 83.3499 1073.3 76.7907 1075.56 70.3328C1077.83 63.8725 1080.96 58.4769 1084.96 54.139L1074.94 54.4725C1071.14 58.2909 1068.16 63.4664 1065.98 69.9989C1063.79 76.5314 1062.82 83.3068 1063.05 90.325C1063.06 90.5981 1063.09 90.8684 1063.1 91.1414L1072.54 90.8268L1072.55 90.8243ZM1054.03 91.4408L1063.75 91.1172L1052.55 56.5003L1042.83 56.824L1054.03 91.4408Z" fill="black"/>
<path d="M1211.66 81.4934C1206.1 81.6785 1202.58 78.8778 1202.42 74.1602L1205.13 74.0701C1205.27 77.3444 1207.65 79.2206 1211.61 79.0885C1215.07 78.9734 1217.03 77.404 1216.95 75.0301C1216.85 72.1153 1213.89 71.7326 1210.69 71.3278C1206.86 70.8539 1202.62 70.0024 1202.46 65.4049C1202.34 61.5887 1205.17 58.9975 1210.28 58.8274C1215.47 58.6543 1218.72 61.2537 1218.9 65.73L1216.25 65.818C1216.15 62.8131 1213.99 61.1103 1210.36 61.2314C1206.93 61.3454 1205.12 62.8799 1205.19 65.1636C1205.28 67.9581 1208.13 68.3749 1211.27 68.7517C1215.13 69.2546 1219.52 69.9509 1219.68 74.7587C1219.81 78.7252 1216.86 81.3203 1211.66 81.4934ZM1231.23 80.6913C1226.46 80.8504 1222.98 77.5669 1222.82 72.7591C1222.66 67.9813 1225.91 64.4737 1230.69 64.3146C1235.44 64.1565 1238.95 67.439 1239.1 72.2168C1239.26 77.0246 1235.98 80.5332 1231.23 80.6913ZM1231.16 78.4376C1234.43 78.3286 1236.73 75.7554 1236.61 72.2998C1236.5 68.8742 1234.04 66.4592 1230.76 66.5683C1227.46 66.6783 1225.2 69.2504 1225.31 72.676C1225.43 76.1317 1227.85 78.5477 1231.16 78.4376ZM1245.66 79.6094L1243.16 79.6925L1242.66 64.5177L1245.06 64.4377L1245.13 66.451L1245.43 66.441C1246.22 64.8504 1247.77 63.7457 1249.76 63.6796C1251.89 63.6086 1253.88 64.7155 1254.81 66.4593L1255.08 66.4503C1256.08 64.6424 1257.78 63.4425 1260.07 63.3665C1263.64 63.2474 1266.29 65.9269 1266.42 69.8633L1266.72 78.908L1264.23 78.9911L1263.92 69.9163C1263.84 67.3321 1262.12 65.5241 1259.84 65.6001C1257.41 65.6812 1255.75 67.6012 1255.84 70.1854L1256.14 79.2602L1253.65 79.3433L1253.35 70.2685C1253.26 67.5941 1251.64 65.8733 1249.29 65.9513C1246.83 66.0334 1245.26 67.8603 1245.35 70.5346L1245.66 79.6094ZM1278.39 79.1211C1273.61 79.2802 1270.14 75.9967 1269.97 71.1888C1269.82 66.4111 1273.07 62.9035 1277.85 62.7444C1282.59 62.5863 1286.1 65.8687 1286.26 70.6465C1286.42 75.4544 1283.14 78.963 1278.39 79.1211ZM1278.32 76.8674C1281.59 76.7583 1283.88 74.1852 1283.77 70.7296C1283.65 67.304 1281.2 64.889 1277.92 64.998C1274.62 65.1081 1272.35 67.6802 1272.47 71.1058C1272.58 74.5614 1275.01 76.9775 1278.32 76.8674ZM1296.56 78.5161C1292.2 78.6612 1289.61 76.6118 1289.49 73.0059L1291.89 72.9259C1291.99 75.0884 1293.72 76.5048 1296.58 76.4097C1298.86 76.3337 1300.3 75.3231 1300.25 73.7305C1300.18 71.7472 1298.11 71.666 1295.81 71.4416C1292.98 71.2051 1289.68 70.5629 1289.56 67.1073C1289.46 64.1625 1291.87 62.2775 1295.5 62.1564C1299.29 62.0304 1301.94 63.9576 1302.04 67.0827L1299.61 67.1637C1299.52 65.3017 1297.89 64.1828 1295.54 64.2609C1293.35 64.3339 1291.88 65.3755 1291.93 66.9381C1291.99 68.8312 1294.04 68.9134 1296.31 69.1088C1299.17 69.3743 1302.47 69.9864 1302.59 73.6224C1302.69 76.5972 1300.44 78.3871 1296.56 78.5161ZM1321.43 77.5675C1316.45 77.7336 1312.82 74.5153 1312.65 69.5572C1312.49 64.7493 1315.9 61.387 1320.86 61.2219C1325.76 61.0588 1329.23 64.2221 1329.39 69.06C1329.41 69.4506 1329.43 70.0816 1329.38 70.4142L1317.3 70.8164C1317.73 72.9679 1319.31 74.3292 1321.5 74.2562C1323.22 74.1991 1324.51 73.3137 1325.13 72.0297L1328.95 72.8651C1328.08 75.6617 1325.16 77.4435 1321.43 77.5675ZM1317.18 68.0529L1324.81 67.7987C1324.47 65.8546 1322.92 64.4622 1320.85 64.5313C1318.84 64.5983 1317.47 65.9975 1317.18 68.0529ZM1336.8 76.5745L1332.36 76.7226L1331.61 54.4262L1336.06 54.2781L1336.8 76.5745ZM1353.33 76.0243L1348.88 76.1724L1348.47 64.0326L1346.31 64.1046L1346.2 60.8593L1348.37 60.7873L1348.3 58.9543C1348.19 55.6189 1350.1 53.3292 1353.05 53.2311C1354.1 53.1961 1355.16 53.3714 1356.04 53.6129L1356.16 57.1587C1355.7 57.0535 1355.19 56.9803 1354.68 56.9973C1353.47 57.0374 1352.72 57.8146 1352.76 58.9565L1352.81 60.6392L1356.27 60.5241L1356.38 63.7694L1352.92 63.8845L1353.33 76.0243ZM1369.15 60.0953L1373.6 59.9472L1374.11 75.3323L1369.66 75.4804L1369.59 73.3168L1369.29 73.3268C1368.2 75.1077 1366.76 76.0282 1364.9 76.0902C1361.41 76.2063 1359.01 73.5789 1358.89 69.8829L1358.57 60.4475L1363.02 60.2994L1363.31 69.1038C1363.37 70.9968 1364.5 72.283 1366.3 72.2229C1368.08 72.1639 1369.5 70.7026 1369.44 68.7494L1369.15 60.0953ZM1383.81 75.4904C1380.72 75.5935 1378.66 73.466 1378.55 70.2207L1378.31 63.039L1376.15 63.111L1376.04 59.8657L1378.33 59.7897L1379.04 54.8927L1382.52 54.7766L1382.65 59.6456L1386.17 59.5285L1386.28 62.7738L1382.76 62.8909L1382.99 69.8923C1383.04 71.1844 1383.85 72.0298 1385.11 71.9878C1385.53 71.9738 1386.19 71.8616 1386.7 71.7244L1386.8 74.9096C1385.94 75.2391 1384.68 75.4614 1383.81 75.4904ZM1399.37 59.0889L1403.82 58.9408L1404.33 74.3259L1399.89 74.4739L1399.81 72.3104L1399.51 72.3204C1398.43 74.1013 1396.99 75.0217 1395.12 75.0838C1391.64 75.1998 1389.23 72.5725 1389.11 68.8764L1388.8 59.4411L1393.24 59.293L1393.54 68.0973C1393.6 69.9904 1394.73 71.2766 1396.53 71.2165C1398.3 71.1575 1399.73 69.6962 1399.66 67.743L1399.37 59.0889ZM1412.22 74.0633L1407.77 74.2114L1407.26 58.8263L1411.65 58.6802L1411.72 60.7836L1412.05 60.7726C1412.66 59.3082 1414.13 58.2966 1415.75 58.2426C1416.38 58.2216 1417.02 58.3508 1417.51 58.5752L1417.64 62.5717C1416.76 62.2101 1415.73 62.0638 1415.1 62.0848C1413.15 62.1499 1411.88 63.8166 1411.96 66.1904L1412.22 74.0633ZM1427.87 74.0236C1422.73 74.1947 1419.23 71.0925 1419.06 66.1344C1418.9 61.1763 1422.18 57.848 1427.32 57.6769C1432.43 57.5068 1435.96 60.608 1436.13 65.5661C1436.29 70.5542 1432.97 73.8535 1427.87 74.0236ZM1427.74 70.2374C1430.11 70.1583 1431.74 68.2693 1431.65 65.7151C1431.57 63.161 1429.82 61.4141 1427.45 61.4931C1425.05 61.5732 1423.42 63.4321 1423.51 65.9863C1423.59 68.5405 1425.34 70.3174 1427.74 70.2374ZM1440.64 73.478C1439.13 73.5281 1437.99 72.5134 1437.94 71.041C1437.89 69.5686 1438.96 68.4798 1440.47 68.4298C1441.97 68.3798 1443.09 69.3955 1443.14 70.8679C1443.18 72.3403 1442.14 73.428 1440.64 73.478ZM1469.95 72.8929C1464.4 73.078 1460.87 70.2773 1460.72 65.5596L1463.42 65.4695C1463.56 68.7439 1465.94 70.62 1469.9 70.488C1473.36 70.3729 1475.32 68.8034 1475.24 66.4295C1475.15 63.5148 1472.19 63.132 1468.98 62.7273C1465.15 62.2534 1460.91 61.4018 1460.75 56.8043C1460.63 52.9881 1463.46 50.397 1468.57 50.2269C1473.77 50.0538 1477.01 52.6531 1477.19 57.1294L1474.55 57.2175C1474.45 54.2126 1472.28 52.5097 1468.65 52.6308C1465.22 52.7449 1463.41 54.2793 1463.48 56.563C1463.58 59.3576 1466.42 59.7744 1469.56 60.1511C1473.43 60.6541 1477.81 61.3503 1477.97 66.1582C1478.1 70.1247 1475.15 72.7198 1469.95 72.8929ZM1489.53 72.0907C1484.75 72.2498 1481.27 68.9664 1481.11 64.1585C1480.95 59.3807 1484.2 55.8731 1488.98 55.714C1493.73 55.5559 1497.24 58.8384 1497.4 63.6162C1497.56 68.4241 1494.27 71.9327 1489.53 72.0907ZM1489.45 69.8371C1492.73 69.728 1495.02 67.1549 1494.9 63.6993C1494.79 60.2737 1492.33 57.8586 1489.06 57.9677C1485.75 58.0778 1483.49 60.6499 1483.6 64.0755C1483.72 67.5311 1486.15 69.9471 1489.45 69.8371ZM1503.95 71.0089L1501.45 71.0919L1500.95 55.9172L1503.35 55.8371L1503.42 57.8504L1503.72 57.8404C1504.51 56.2499 1506.07 55.1451 1508.05 55.0791C1510.18 55.008 1512.18 56.1149 1513.11 57.8588L1513.38 57.8498C1514.37 56.0419 1516.07 54.842 1518.36 54.7659C1521.93 54.6469 1524.58 57.3263 1524.71 61.2627L1525.01 70.3075L1522.52 70.3905L1522.22 61.3157C1522.13 58.7315 1520.42 56.9235 1518.13 56.9996C1515.7 57.0806 1514.05 59.0007 1514.13 61.5849L1514.44 70.6597L1511.94 70.7427L1511.64 61.6679C1511.55 58.9936 1509.93 57.2727 1507.58 57.3508C1505.12 57.4328 1503.56 59.2597 1503.65 61.9341L1503.95 71.0089ZM1536.68 70.5205C1531.91 70.6796 1528.43 67.3961 1528.27 62.5883C1528.11 57.8105 1531.36 54.3029 1536.14 54.1438C1540.89 53.9857 1544.39 57.2682 1544.55 62.046C1544.71 66.8538 1541.43 70.3624 1536.68 70.5205ZM1536.61 68.2668C1539.88 68.1578 1542.17 65.5847 1542.06 62.129C1541.95 58.7034 1539.49 56.2884 1536.21 56.3975C1532.91 56.5075 1530.65 59.0797 1530.76 62.5052C1530.88 65.9609 1533.3 68.3769 1536.61 68.2668ZM1554.85 69.9156C1550.49 70.0607 1547.9 68.0112 1547.78 64.4053L1550.18 64.3253C1550.29 66.4878 1552.02 67.9042 1554.87 67.8091C1557.16 67.7331 1558.6 66.7225 1558.54 65.1299C1558.48 63.1467 1556.4 63.0655 1554.1 62.841C1551.27 62.6045 1547.97 61.9624 1547.85 58.5067C1547.76 55.5619 1550.16 53.6769 1553.8 53.5559C1557.58 53.4298 1560.23 55.357 1560.34 58.4821L1557.9 58.5632C1557.81 56.7011 1556.18 55.5823 1553.84 55.6603C1551.64 55.7334 1550.17 56.775 1550.22 58.3375C1550.29 60.2306 1552.34 60.3128 1554.6 60.5082C1557.46 60.7738 1560.76 61.3859 1560.89 65.0218C1560.98 67.9967 1558.73 69.7865 1554.85 69.9156Z" fill="black"/>
</g>
<defs>
<clipPath id="clip0_235_26985">
<rect width="2355" height="62" fill="white" transform="translate(-652.302) rotate(1.57)"/>
</clipPath>
<clipPath id="clip1_235_26985">
<rect width="2355" height="62" fill="white" transform="translate(-653.972 98.4976) rotate(-1.90712)"/>
</clipPath>
</defs>
</svg>
