<svg width="256" height="256" viewBox="0 0 256 256" fill="none" xmlns="http://www.w3.org/2000/svg">
<g clip-path="url(#clip0_6623_19043)">
<path d="M234.701 229.898L47.9392 250.193C38.1565 251.256 29.3426 245.948 28.3529 238.398L4.80928 58.7807C3.81955 51.2299 11.0138 44.1822 20.7966 43.1191L207.558 22.8236C217.341 21.7605 226.155 27.0685 227.145 34.6193L250.688 214.236C251.693 221.901 244.484 228.835 234.701 229.898Z" fill="#FFA723" stroke="#FFA723" stroke-width="2.90358" stroke-miterlimit="10"/>
<path d="M237.667 224.624L51.8888 244.812C42.1576 245.87 33.3847 240.549 32.3936 232.988L8.81761 53.1235C7.82652 45.5624 14.9776 38.5107 24.7088 37.4532L210.487 17.2645C220.219 16.207 228.992 21.5282 229.983 29.0894L253.559 208.953C254.565 216.629 247.399 223.566 237.667 224.624Z" fill="#FFED00" stroke="black" stroke-width="2" stroke-miterlimit="10"/>
<path d="M147.954 43.3242L133.264 44.9205C128.379 52.1105 124.929 61.6468 122.924 73.5215C121.054 84.5743 120.77 95.8988 122.06 107.496L100.649 50.7854L86.3956 52.3344L109.28 112.975L136.437 110.023C136.374 109.539 136.286 109.058 136.222 108.574C134.668 96.7158 134.964 84.9125 137.109 73.1638C139.255 61.415 142.87 51.4707 147.955 43.3308L147.954 43.3242Z" fill="#FFA723"/>
<path d="M149.758 40.9006L135.069 42.497C130.184 49.6869 126.733 59.2233 124.728 71.0979C122.859 82.1508 122.575 93.4752 123.865 105.073L102.454 48.3619L88.2003 49.9108L111.085 110.551L138.242 107.6C138.178 107.116 138.09 106.634 138.027 106.15C136.473 94.2923 136.768 82.489 138.914 70.7402C141.06 58.9915 144.675 49.0471 149.759 40.9073L149.758 40.9006Z" fill="black"/>
<g filter="url(#filter0_i_6623_19043)">
<rect width="89.6103" height="30.6561" rx="11.6143" transform="matrix(0.994147 -0.108035 0.129965 0.991519 35.2227 136.894)" fill="#FFED00"/>
<path d="M52.0623 155.004L50.69 144.535L54.6263 144.108C55.4327 144.02 56.1289 144.096 56.7149 144.337C57.3043 144.577 57.7735 144.944 58.1225 145.439C58.4744 145.929 58.694 146.507 58.7811 147.171C58.8691 147.843 58.8054 148.454 58.5902 149.007C58.3749 149.559 58.0102 150.015 57.4959 150.375C56.9813 150.732 56.319 150.954 55.5092 151.042L52.9004 151.325L52.6961 149.766L55.0486 149.511C55.5201 149.459 55.8955 149.336 56.1748 149.139C56.454 148.943 56.6466 148.694 56.7526 148.392C56.862 148.09 56.8924 147.753 56.8437 147.382C56.795 147.01 56.6787 146.691 56.4947 146.424C56.3141 146.157 56.0615 145.961 55.7368 145.838C55.4151 145.71 55.0168 145.672 54.5419 145.724L52.7993 145.913L53.9638 154.798L52.0623 155.004ZM64.2282 153.838C63.4389 153.923 62.7358 153.834 62.1189 153.569C61.5049 153.301 61.0047 152.881 60.6181 152.312C60.2311 151.739 59.9837 151.041 59.8761 150.22C59.7702 149.412 59.8311 148.687 60.0586 148.043C60.2891 147.396 60.6606 146.872 61.1728 146.471C61.6847 146.066 62.3164 145.823 63.0682 145.741C63.5534 145.688 64.0215 145.717 64.4726 145.827C64.9266 145.933 65.3406 146.13 65.7144 146.418C66.0917 146.705 66.4089 147.089 66.6659 147.569C66.9225 148.046 67.0959 148.628 67.1861 149.317L67.2605 149.884L60.8077 150.585L60.6442 149.338L65.3185 148.83C65.2686 148.476 65.1504 148.169 64.9639 147.91C64.7769 147.646 64.538 147.449 64.247 147.319C63.9595 147.187 63.6381 147.141 63.2827 147.18C62.9035 147.221 62.5824 147.349 62.3195 147.564C62.0561 147.776 61.8636 148.039 61.7419 148.353C61.6231 148.663 61.585 148.994 61.6276 149.345L61.7703 150.434C61.8302 150.891 61.9653 151.274 62.1756 151.582C62.3854 151.888 62.6521 152.111 62.9756 152.253C63.2986 152.39 63.6617 152.437 64.0649 152.393C64.3348 152.364 64.5742 152.3 64.7831 152.201C64.9915 152.099 65.1662 151.964 65.3071 151.797C65.448 151.63 65.545 151.431 65.598 151.2L67.3558 151.206C67.3063 151.675 67.1501 152.096 66.8873 152.47C66.6274 152.841 66.2723 153.145 65.8219 153.385C65.3711 153.62 64.8398 153.771 64.2282 153.838ZM68.8454 153.18L67.8162 145.329L69.6152 145.133L69.7867 146.442L69.8687 146.433C69.9528 145.964 70.153 145.588 70.4694 145.305C70.7887 145.018 71.1739 144.85 71.6249 144.801C71.7274 144.79 71.8426 144.782 71.9703 144.779C72.1011 144.771 72.2103 144.772 72.2979 144.779L72.521 146.482C72.4389 146.463 72.311 146.453 72.1375 146.451C71.967 146.445 71.8031 146.451 71.6459 146.468C71.3076 146.505 71.0132 146.611 70.7624 146.787C70.5147 146.959 70.3307 147.181 70.2104 147.453C70.0901 147.726 70.0519 148.029 70.0957 148.363L70.7007 152.979L68.8454 153.18ZM79.5998 146.153L77.9326 146.521C77.8624 146.356 77.7577 146.205 77.6184 146.068C77.4826 145.93 77.3096 145.826 77.0993 145.756C76.8891 145.686 76.6405 145.666 76.3534 145.697C75.9673 145.739 75.6537 145.858 75.4125 146.053C75.1747 146.249 75.0749 146.479 75.1132 146.744C75.1397 146.973 75.2477 147.15 75.4373 147.274C75.6304 147.398 75.9328 147.485 76.3446 147.533L77.725 147.674C78.4909 147.753 79.0777 147.947 79.4854 148.255C79.8966 148.563 80.1407 148.998 80.2179 149.56C80.2792 150.054 80.1912 150.506 79.9537 150.916C79.7193 151.321 79.363 151.657 78.885 151.923C78.407 152.19 77.84 152.358 77.184 152.43C76.2204 152.534 75.4184 152.418 74.778 152.079C74.1371 151.738 73.713 151.212 73.5055 150.502L75.292 150.131C75.4204 150.477 75.6298 150.725 75.92 150.877C76.2102 151.029 76.5688 151.081 76.9959 151.035C77.4367 150.987 77.7785 150.858 78.0213 150.649C78.2676 150.439 78.3733 150.201 78.3385 149.935C78.309 149.71 78.1975 149.534 78.004 149.406C77.814 149.278 77.5327 149.195 77.1603 149.156L75.7806 149.02C75.0049 148.946 74.4116 148.742 74.0007 148.41C73.5894 148.075 73.3479 147.621 73.2763 147.048C73.2095 146.564 73.2861 146.131 73.5061 145.747C73.7292 145.36 74.0671 145.043 74.52 144.797C74.9759 144.547 75.5182 144.388 76.1469 144.32C77.0695 144.219 77.8212 144.336 78.4022 144.671C78.9866 145.005 79.3858 145.499 79.5998 146.153ZM85.0771 151.572C84.3083 151.656 83.6199 151.559 83.0118 151.283C82.4038 151.007 81.9046 150.583 81.5142 150.01C81.1271 149.437 80.8805 148.744 80.7742 147.933C80.6678 147.122 80.7285 146.395 80.956 145.752C81.187 145.108 81.5623 144.587 82.0818 144.188C82.6014 143.789 83.2456 143.548 84.0144 143.465C84.7832 143.381 85.4716 143.477 86.0796 143.754C86.6876 144.03 87.1853 144.456 87.5728 145.033C87.9637 145.609 88.2123 146.302 88.3186 147.114C88.4249 147.925 88.3624 148.65 88.131 149.291C87.9029 149.931 87.5292 150.45 87.0096 150.849C86.49 151.247 85.8459 151.488 85.0771 151.572ZM84.893 150.088C85.3099 150.043 85.6434 149.891 85.8937 149.632C86.1435 149.37 86.3113 149.037 86.397 148.634C86.4862 148.23 86.4995 147.79 86.437 147.313C86.374 146.832 86.247 146.405 86.056 146.032C85.8679 145.655 85.6186 145.366 85.3081 145.165C84.9975 144.963 84.6338 144.885 84.2169 144.931C83.7898 144.977 83.4497 145.132 83.1964 145.394C82.9466 145.656 82.7774 145.991 82.6886 146.398C82.6029 146.801 82.5915 147.243 82.6545 147.724C82.717 148.201 82.8421 148.626 83.0297 149C83.2207 149.373 83.4715 149.661 83.782 149.862C84.0956 150.059 84.4659 150.135 84.893 150.088ZM91.2233 146.082L91.8263 150.683L89.971 150.885L88.9418 143.033L90.7151 142.84L90.89 144.174L90.9823 144.164C91.1058 143.705 91.3487 143.324 91.7111 143.022C92.0769 142.72 92.5537 142.537 93.1414 142.473C93.6847 142.414 94.1731 142.478 94.6067 142.666C95.0437 142.854 95.402 143.155 95.6817 143.571C95.9649 143.986 96.1458 144.507 96.2246 145.135L96.8799 150.134L95.0245 150.335L94.4068 145.622C94.338 145.098 94.1475 144.702 93.8353 144.435C93.5265 144.168 93.1329 144.06 92.6545 144.112C92.3299 144.148 92.0506 144.25 91.8165 144.421C91.5854 144.588 91.4155 144.812 91.3068 145.093C91.2015 145.374 91.1737 145.704 91.2233 146.082ZM100.619 149.888C100.12 149.942 99.6594 149.903 99.2364 149.769C98.8164 149.631 98.4672 149.4 98.1888 149.074C97.9139 148.748 97.7427 148.327 97.6752 147.813C97.6171 147.37 97.6511 146.995 97.7772 146.687C97.9032 146.38 98.0966 146.124 98.3575 145.919C98.6183 145.714 98.9206 145.548 99.2643 145.421C99.611 145.29 99.973 145.183 100.35 145.101C100.805 145.003 101.174 144.92 101.456 144.851C101.738 144.779 101.938 144.695 102.057 144.599C102.179 144.5 102.229 144.361 102.206 144.184L102.202 144.153C102.151 143.768 101.997 143.482 101.741 143.296C101.484 143.11 101.141 143.04 100.71 143.087C100.256 143.136 99.9082 143.274 99.6675 143.501C99.4304 143.727 99.2833 143.98 99.2263 144.259L97.4618 144.202C97.5359 143.71 97.7092 143.286 97.9815 142.932C98.2535 142.574 98.6061 142.29 99.0396 142.081C99.4726 141.868 99.9642 141.731 100.514 141.672C100.894 141.63 101.277 141.634 101.664 141.681C102.052 141.729 102.414 141.838 102.752 142.009C103.089 142.176 103.375 142.424 103.608 142.751C103.845 143.078 103.998 143.502 104.066 144.023L104.755 149.278L102.971 149.472L102.83 148.393L102.769 148.4C102.684 148.63 102.552 148.852 102.372 149.065C102.195 149.275 101.961 149.454 101.668 149.603C101.379 149.749 101.029 149.844 100.619 149.888ZM100.923 148.476C101.295 148.436 101.608 148.327 101.863 148.151C102.116 147.971 102.301 147.751 102.415 147.49C102.533 147.228 102.574 146.952 102.536 146.663L102.414 145.737C102.363 145.791 102.269 145.846 102.134 145.902C102.003 145.958 101.854 146.011 101.687 146.06C101.52 146.109 101.355 146.155 101.191 146.197C101.026 146.239 100.884 146.275 100.763 146.306C100.491 146.373 100.251 146.461 100.044 146.57C99.8364 146.679 99.6795 146.817 99.5732 146.984C99.4664 147.148 99.4287 147.349 99.4599 147.588C99.5046 147.929 99.663 148.172 99.9353 148.319C100.207 148.466 100.537 148.518 100.923 148.476ZM111.653 142.67L109.985 143.038C109.915 142.873 109.811 142.721 109.671 142.584C109.535 142.447 109.362 142.343 109.152 142.273C108.942 142.202 108.693 142.183 108.406 142.214C108.02 142.256 107.707 142.375 107.465 142.57C107.228 142.765 107.128 142.996 107.166 143.261C107.193 143.49 107.301 143.666 107.49 143.791C107.683 143.915 107.986 144.002 108.398 144.05L109.778 144.191C110.544 144.27 111.131 144.463 111.538 144.772C111.949 145.08 112.194 145.514 112.271 146.076C112.332 146.571 112.244 147.023 112.007 147.432C111.772 147.838 111.416 148.174 110.938 148.44C110.46 148.706 109.893 148.875 109.237 148.947C108.273 149.051 107.471 148.934 106.831 148.596C106.19 148.255 105.766 147.729 105.558 147.018L107.345 146.648C107.473 146.993 107.683 147.242 107.973 147.394C108.263 147.545 108.622 147.598 109.049 147.552C109.49 147.504 109.831 147.375 110.074 147.165C110.32 146.955 110.426 146.718 110.391 146.452C110.362 146.227 110.25 146.051 110.057 145.923C109.867 145.795 109.586 145.711 109.213 145.672L107.833 145.537C107.058 145.463 106.465 145.259 106.054 144.927C105.642 144.592 105.401 144.137 105.329 143.564C105.262 143.081 105.339 142.647 105.559 142.264C105.782 141.877 106.12 141.56 106.573 141.314C107.029 141.064 107.571 140.905 108.2 140.836C109.122 140.736 109.874 140.853 110.455 141.188C111.04 141.522 111.439 142.016 111.653 142.67Z" fill="black"/>
<rect width="89.6103" height="30.6561" rx="11.6143" transform="matrix(0.994147 -0.108035 0.129965 0.991519 130.168 126.576)" fill="#FFED00"/>
<path d="M145.019 144.902L143.647 134.433L150.474 133.691L150.682 135.281L145.757 135.816L146.129 138.659L150.701 138.162L150.91 139.751L146.338 140.248L146.712 143.106L151.679 142.566L151.887 144.156L145.019 144.902ZM153.271 144.005L152.242 136.154L154.015 135.961L154.19 137.295L154.283 137.285C154.388 136.818 154.613 136.437 154.959 136.144C155.305 135.847 155.741 135.67 156.267 135.613C156.8 135.555 157.267 135.635 157.666 135.855C158.069 136.07 158.374 136.391 158.583 136.818L158.665 136.809C158.782 136.354 159.03 135.974 159.41 135.67C159.792 135.363 160.269 135.178 160.839 135.116C161.564 135.037 162.185 135.201 162.702 135.608C163.22 136.015 163.536 136.656 163.651 137.532L164.342 142.802L162.481 143.005L161.828 138.021C161.764 137.533 161.588 137.191 161.299 136.995C161.009 136.794 160.676 136.715 160.3 136.756C159.853 136.804 159.521 136.982 159.305 137.289C159.091 137.592 159.014 137.965 159.072 138.408L159.714 143.305L157.894 143.503L157.231 138.442C157.178 138.037 157.012 137.726 156.735 137.511C156.46 137.296 156.127 137.209 155.734 137.252C155.467 137.281 155.233 137.375 155.033 137.535C154.831 137.692 154.682 137.9 154.584 138.16C154.486 138.416 154.458 138.706 154.501 139.029L155.127 143.804L153.271 144.005ZM166.177 145.589L164.762 134.793L166.587 134.595L166.757 135.893L166.864 135.882C166.935 135.68 167.043 135.463 167.19 135.229C167.335 134.992 167.547 134.781 167.824 134.595C168.101 134.406 168.47 134.287 168.931 134.236C169.539 134.17 170.108 134.266 170.637 134.523C171.169 134.776 171.618 135.189 171.985 135.761C172.354 136.329 172.595 137.049 172.71 137.922C172.823 138.784 172.777 139.532 172.572 140.166C172.368 140.8 172.042 141.302 171.595 141.672C171.148 142.042 170.615 142.261 169.997 142.328C169.546 142.377 169.162 142.343 168.845 142.225C168.528 142.107 168.265 141.953 168.056 141.761C167.85 141.566 167.685 141.378 167.561 141.198L167.484 141.206L168.032 145.388L166.177 145.589ZM167.096 138.521C167.163 139.029 167.293 139.466 167.486 139.832C167.683 140.198 167.932 140.473 168.234 140.658C168.538 140.839 168.887 140.909 169.28 140.866C169.69 140.821 170.019 140.675 170.267 140.427C170.515 140.175 170.684 139.851 170.774 139.454C170.867 139.053 170.881 138.608 170.817 138.117C170.753 137.63 170.626 137.204 170.437 136.841C170.247 136.478 170 136.204 169.695 136.02C169.39 135.835 169.031 135.765 168.617 135.81C168.221 135.853 167.898 135.994 167.649 136.232C167.399 136.47 167.227 136.784 167.133 137.175C167.042 137.565 167.03 138.014 167.096 138.521ZM174.379 141.712L173.35 133.86L175.149 133.664L175.32 134.973L175.402 134.964C175.486 134.495 175.686 134.119 176.003 133.836C176.322 133.549 176.707 133.381 177.158 133.332C177.261 133.321 177.376 133.314 177.504 133.31C177.634 133.303 177.744 133.303 177.831 133.311L178.054 135.013C177.972 134.994 177.844 134.984 177.671 134.982C177.5 134.976 177.336 134.982 177.179 134.999C176.841 135.036 176.547 135.142 176.296 135.318C176.048 135.49 175.864 135.712 175.744 135.985C175.624 136.257 175.585 136.56 175.629 136.894L176.234 141.51L174.379 141.712ZM182.849 140.947C182.06 141.032 181.357 140.943 180.74 140.678C180.126 140.41 179.626 139.99 179.239 139.421C178.852 138.848 178.605 138.15 178.497 137.329C178.391 136.521 178.452 135.796 178.68 135.152C178.91 134.505 179.282 133.981 179.794 133.58C180.306 133.175 180.938 132.932 181.689 132.85C182.174 132.797 182.643 132.826 183.094 132.936C183.548 133.042 183.962 133.239 184.336 133.527C184.713 133.814 185.03 134.198 185.287 134.678C185.544 135.155 185.717 135.737 185.807 136.426L185.882 136.993L179.429 137.694L179.265 136.447L183.94 135.939C183.89 135.585 183.772 135.278 183.585 135.019C183.398 134.755 183.159 134.558 182.868 134.428C182.581 134.296 182.259 134.25 181.904 134.289C181.525 134.33 181.203 134.458 180.941 134.673C180.677 134.885 180.485 135.148 180.363 135.462C180.244 135.772 180.206 136.103 180.249 136.454L180.391 137.543C180.451 138 180.586 138.383 180.797 138.692C181.007 138.997 181.273 139.22 181.597 139.362C181.92 139.499 182.283 139.546 182.686 139.502C182.956 139.473 183.195 139.409 183.404 139.31C183.613 139.208 183.787 139.073 183.928 138.906C184.069 138.739 184.166 138.54 184.219 138.309L185.977 138.315C185.927 138.784 185.771 139.205 185.508 139.579C185.249 139.95 184.893 140.254 184.443 140.494C183.992 140.729 183.461 140.88 182.849 140.947ZM192.931 133.837L191.264 134.205C191.194 134.04 191.089 133.888 190.95 133.752C190.814 133.614 190.641 133.51 190.431 133.44C190.221 133.369 189.972 133.35 189.685 133.381C189.299 133.423 188.985 133.542 188.744 133.737C188.506 133.932 188.407 134.163 188.445 134.428C188.471 134.657 188.579 134.834 188.769 134.958C188.962 135.082 189.264 135.169 189.676 135.217L191.057 135.358C191.823 135.437 192.409 135.63 192.817 135.939C193.228 136.247 193.472 136.682 193.55 137.243C193.611 137.738 193.523 138.19 193.285 138.599C193.051 139.005 192.695 139.341 192.217 139.607C191.739 139.874 191.172 140.042 190.516 140.114C189.552 140.218 188.75 140.102 188.11 139.763C187.469 139.422 187.045 138.896 186.837 138.185L188.624 137.815C188.752 138.161 188.961 138.409 189.252 138.561C189.542 138.712 189.9 138.765 190.328 138.719C190.768 138.671 191.11 138.542 191.353 138.332C191.599 138.122 191.705 137.885 191.67 137.619C191.641 137.394 191.529 137.218 191.336 137.09C191.146 136.962 190.864 136.879 190.492 136.839L189.112 136.704C188.337 136.63 187.743 136.426 187.332 136.094C186.921 135.759 186.68 135.304 186.608 134.731C186.541 134.248 186.618 133.814 186.838 133.431C187.061 133.044 187.399 132.727 187.852 132.481C188.308 132.231 188.85 132.072 189.479 132.004C190.401 131.903 191.153 132.02 191.734 132.355C192.318 132.689 192.717 133.183 192.931 133.837ZM197.241 139.388C196.742 139.442 196.281 139.402 195.858 139.269C195.438 139.131 195.089 138.899 194.81 138.574C194.535 138.248 194.364 137.827 194.297 137.313C194.239 136.87 194.273 136.494 194.399 136.187C194.525 135.879 194.718 135.623 194.979 135.419C195.24 135.214 195.542 135.048 195.886 134.921C196.233 134.79 196.595 134.683 196.972 134.601C197.427 134.503 197.796 134.42 198.078 134.351C198.359 134.279 198.56 134.195 198.679 134.099C198.801 133.999 198.85 133.861 198.827 133.684L198.823 133.653C198.773 133.268 198.619 132.982 198.362 132.796C198.106 132.609 197.762 132.539 197.332 132.586C196.877 132.636 196.53 132.774 196.289 133C196.052 133.226 195.905 133.479 195.848 133.758L194.083 133.701C194.158 133.209 194.331 132.786 194.603 132.432C194.875 132.074 195.228 131.79 195.661 131.581C196.094 131.368 196.586 131.231 197.136 131.171C197.515 131.13 197.899 131.133 198.286 131.181C198.674 131.229 199.036 131.338 199.374 131.509C199.711 131.676 199.997 131.923 200.23 132.251C200.467 132.577 200.62 133.001 200.688 133.523L201.377 138.778L199.593 138.972L199.452 137.893L199.39 137.9C199.306 138.13 199.174 138.352 198.994 138.565C198.817 138.774 198.582 138.954 198.29 139.103C198.001 139.248 197.651 139.343 197.241 139.388ZM197.544 137.976C197.917 137.935 198.23 137.827 198.484 137.651C198.738 137.471 198.922 137.251 199.037 136.989C199.155 136.728 199.195 136.452 199.157 136.162L199.036 135.237C198.984 135.291 198.891 135.346 198.756 135.402C198.625 135.458 198.476 135.51 198.309 135.56C198.142 135.609 197.977 135.655 197.812 135.697C197.648 135.739 197.505 135.775 197.385 135.805C197.113 135.873 196.873 135.961 196.666 136.07C196.458 136.179 196.301 136.317 196.195 136.484C196.088 136.648 196.05 136.849 196.082 137.088C196.126 137.428 196.285 137.672 196.557 137.819C196.829 137.965 197.158 138.018 197.544 137.976ZM208.274 132.17L206.607 132.537C206.537 132.372 206.432 132.221 206.293 132.084C206.157 131.947 205.984 131.843 205.774 131.773C205.564 131.702 205.315 131.682 205.028 131.714C204.642 131.756 204.328 131.874 204.087 132.07C203.849 132.265 203.749 132.495 203.788 132.761C203.814 132.99 203.922 133.166 204.112 133.291C204.305 133.415 204.607 133.501 205.019 133.55L206.4 133.69C207.165 133.769 207.752 133.963 208.16 134.271C208.571 134.579 208.815 135.014 208.892 135.576C208.954 136.071 208.866 136.523 208.628 136.932C208.394 137.338 208.038 137.674 207.56 137.94C207.082 138.206 206.515 138.375 205.858 138.446C204.895 138.551 204.093 138.434 203.453 138.096C202.812 137.754 202.388 137.228 202.18 136.518L203.967 136.148C204.095 136.493 204.304 136.742 204.594 136.893C204.885 137.045 205.243 137.098 205.67 137.051C206.111 137.003 206.453 136.875 206.696 136.665C206.942 136.455 207.048 136.217 207.013 135.951C206.984 135.727 206.872 135.55 206.679 135.423C206.489 135.295 206.207 135.211 205.835 135.172L204.455 135.037C203.679 134.962 203.086 134.759 202.675 134.427C202.264 134.091 202.022 133.637 201.951 133.064C201.884 132.581 201.961 132.147 202.181 131.764C202.404 131.377 202.742 131.06 203.195 130.814C203.65 130.564 204.193 130.405 204.821 130.336C205.744 130.236 206.496 130.353 207.077 130.687C207.661 131.021 208.06 131.515 208.274 132.17Z" fill="black"/>
</g>
<rect width="185.512" height="42.445" rx="20.325" transform="matrix(0.994147 -0.108035 0.129965 0.991519 48.2207 192.771)" fill="#FFA723"/>
<rect x="1.12411" y="0.883484" width="183.512" height="40.445" rx="19.325" transform="matrix(0.994147 -0.108035 0.129965 0.991519 42.63 187.306)" fill="#FFA723"/>
<rect x="1.12411" y="0.883484" width="183.512" height="40.445" rx="19.325" transform="matrix(0.994147 -0.108035 0.129965 0.991519 42.63 187.306)" stroke="black" stroke-width="2"/>
<rect width="185.512" height="42.445" rx="20.325" transform="matrix(0.994147 -0.108035 0.129965 0.991519 45.4473 180.691)" fill="black"/>
<path d="M87.508 206.011L85.3124 189.261L91.6104 188.576C92.9007 188.436 94.0124 188.542 94.9458 188.894C95.8846 189.245 96.631 189.8 97.1851 190.559C97.7439 191.311 98.0933 192.221 98.2334 193.29C98.3742 194.364 98.2668 195.321 97.9112 196.162C97.5604 196.996 96.9703 197.677 96.1412 198.204C95.3112 198.726 94.2512 199.057 92.961 199.197L88.4753 199.684L88.1451 197.165L92.2208 196.722C92.9752 196.64 93.5794 196.47 94.0333 196.21C94.4866 195.945 94.8015 195.599 94.9783 195.17C95.1597 194.736 95.2115 194.221 95.1336 193.627C95.0557 193.033 94.8717 192.538 94.5816 192.144C94.2908 191.744 93.8905 191.461 93.3808 191.296C92.8704 191.124 92.2353 191.08 91.4754 191.163L88.6872 191.465L90.5504 205.68L87.508 206.011ZM95.1893 197.478L100.342 204.616L96.9468 204.985L91.8681 197.839L95.1893 197.478ZM107.391 204.099C106.128 204.236 105.003 204.093 104.016 203.669C103.034 203.24 102.234 202.569 101.615 201.658C100.996 200.74 100.6 199.625 100.428 198.311C100.258 197.019 100.356 195.858 100.72 194.828C101.089 193.793 101.683 192.954 102.503 192.312C103.321 191.664 104.332 191.275 105.535 191.144C106.311 191.06 107.06 191.106 107.782 191.282C108.509 191.452 109.171 191.767 109.769 192.227C110.373 192.687 110.88 193.301 111.291 194.069C111.702 194.832 111.979 195.764 112.124 196.866L112.243 197.773L101.918 198.895L101.657 196.9L109.136 196.087C109.056 195.521 108.867 195.03 108.568 194.614C108.269 194.193 107.887 193.878 107.421 193.669C106.961 193.459 106.447 193.385 105.878 193.446C105.272 193.512 104.758 193.717 104.337 194.062C103.916 194.401 103.608 194.821 103.413 195.324C103.223 195.82 103.162 196.349 103.23 196.911L103.459 198.653C103.554 199.384 103.77 199.996 104.107 200.491C104.443 200.98 104.869 201.337 105.387 201.563C105.904 201.783 106.485 201.858 107.13 201.788C107.562 201.741 107.945 201.639 108.279 201.481C108.612 201.317 108.892 201.102 109.117 200.834C109.343 200.566 109.498 200.248 109.583 199.879L112.395 199.889C112.316 200.638 112.066 201.313 111.646 201.911C111.23 202.504 110.662 202.992 109.941 203.374C109.22 203.751 108.37 203.993 107.391 204.099ZM121.168 207.397C120.102 207.512 119.167 207.467 118.364 207.262C117.562 207.061 116.897 206.746 116.369 206.317C115.841 205.888 115.449 205.391 115.192 204.827L117.781 203.891C117.933 204.123 118.14 204.347 118.401 204.562C118.663 204.782 118.998 204.95 119.407 205.066C119.822 205.187 120.328 205.215 120.924 205.15C121.766 205.059 122.436 204.779 122.934 204.31C123.434 203.846 123.622 203.151 123.501 202.224L123.189 199.844L123.041 199.86C122.928 200.182 122.745 200.52 122.492 200.874C122.245 201.227 121.895 201.539 121.442 201.809C120.995 202.079 120.411 202.253 119.689 202.331C118.721 202.436 117.814 202.306 116.968 201.939C116.126 201.565 115.413 200.952 114.83 200.097C114.251 199.236 113.872 198.122 113.693 196.753C113.512 195.374 113.589 194.185 113.924 193.186C114.264 192.181 114.795 191.391 115.518 190.814C116.24 190.233 117.085 189.889 118.053 189.784C118.791 189.704 119.414 189.763 119.923 189.962C120.436 190.156 120.857 190.411 121.188 190.729C121.517 191.042 121.775 191.343 121.963 191.632L122.127 191.614L121.855 189.537L124.782 189.219L126.456 201.986C126.596 203.06 126.456 203.977 126.034 204.736C125.613 205.495 124.979 206.098 124.134 206.543C123.288 206.989 122.3 207.274 121.168 207.397ZM120.213 199.918C120.842 199.85 121.357 199.639 121.76 199.286C122.163 198.932 122.442 198.457 122.596 197.859C122.751 197.262 122.776 196.562 122.67 195.761C122.567 194.97 122.361 194.29 122.054 193.721C121.752 193.151 121.358 192.726 120.872 192.447C120.391 192.162 119.831 192.055 119.191 192.124C118.53 192.196 118 192.428 117.602 192.819C117.204 193.211 116.933 193.719 116.787 194.343C116.641 194.962 116.618 195.65 116.717 196.408C116.818 197.177 117.018 197.838 117.318 198.392C117.623 198.939 118.017 199.35 118.502 199.623C118.992 199.891 119.562 199.989 120.213 199.918ZM129.038 201.498L127.392 188.935L130.36 188.613L132.007 201.175L129.038 201.498ZM127.528 187.245L128.875 183.307L131.778 182.992L129.75 187.003L127.528 187.245ZM143.371 190.567L140.703 191.155C140.591 190.891 140.423 190.649 140.2 190.43C139.983 190.21 139.706 190.044 139.37 189.931C139.033 189.818 138.636 189.787 138.176 189.837C137.559 189.904 137.057 190.094 136.671 190.407C136.29 190.719 136.131 191.088 136.192 191.513C136.234 191.879 136.407 192.161 136.711 192.36C137.019 192.559 137.503 192.697 138.162 192.775L140.371 193C141.596 193.126 142.535 193.436 143.188 193.929C143.845 194.422 144.236 195.118 144.359 196.017C144.458 196.808 144.317 197.531 143.937 198.187C143.562 198.836 142.992 199.373 142.227 199.799C141.462 200.225 140.555 200.495 139.505 200.609C137.964 200.777 136.68 200.59 135.656 200.049C134.63 199.502 133.952 198.661 133.62 197.524L136.478 196.932C136.684 197.484 137.019 197.882 137.483 198.125C137.947 198.367 138.521 198.452 139.204 198.377C139.91 198.301 140.456 198.095 140.845 197.759C141.239 197.423 141.408 197.043 141.352 196.618C141.305 196.258 141.127 195.976 140.817 195.771C140.513 195.567 140.063 195.433 139.467 195.371L137.26 195.154C136.019 195.035 135.069 194.709 134.412 194.178C133.754 193.641 133.368 192.914 133.253 191.998C133.146 191.224 133.269 190.531 133.621 189.917C133.978 189.298 134.518 188.791 135.243 188.397C135.972 187.997 136.84 187.742 137.846 187.633C139.322 187.473 140.525 187.66 141.454 188.195C142.389 188.729 143.028 189.52 143.371 190.567ZM151.511 186.314L151.811 188.604L144.57 189.391L144.27 187.101L151.511 186.314ZM145.663 183.897L148.631 183.574L150.177 195.368C150.229 195.766 150.33 196.065 150.478 196.265C150.631 196.458 150.813 196.582 151.025 196.636C151.238 196.691 151.467 196.705 151.713 196.678C151.899 196.658 152.066 196.626 152.216 196.582C152.371 196.537 152.488 196.5 152.567 196.469L153.371 198.729C153.219 198.801 153 198.886 152.714 198.983C152.433 199.08 152.082 199.157 151.663 199.213C150.922 199.316 150.238 199.277 149.61 199.096C148.981 198.91 148.457 198.575 148.039 198.089C147.626 197.603 147.37 196.967 147.273 196.181L145.663 183.897ZM155.207 198.654L153.56 186.091L156.439 185.779L156.713 187.872L156.844 187.858C156.979 187.108 157.299 186.506 157.805 186.053C158.316 185.594 158.933 185.325 159.654 185.247C159.818 185.229 160.003 185.217 160.207 185.211C160.416 185.2 160.591 185.2 160.731 185.213L161.088 187.936C160.957 187.906 160.752 187.89 160.474 187.887C160.202 187.878 159.939 187.887 159.688 187.914C159.147 187.973 158.675 188.143 158.274 188.424C157.878 188.7 157.583 189.055 157.391 189.491C157.199 189.927 157.137 190.412 157.207 190.946L158.176 198.331L155.207 198.654ZM167.362 197.59C166.564 197.677 165.827 197.613 165.15 197.399C164.478 197.179 163.919 196.809 163.474 196.287C163.034 195.766 162.76 195.093 162.652 194.27C162.559 193.561 162.613 192.96 162.815 192.468C163.017 191.976 163.326 191.567 163.743 191.239C164.161 190.912 164.644 190.647 165.194 190.443C165.749 190.233 166.328 190.063 166.932 189.931C167.66 189.774 168.25 189.641 168.701 189.531C169.152 189.416 169.472 189.281 169.663 189.128C169.858 188.968 169.938 188.747 169.9 188.463L169.894 188.414C169.813 187.798 169.567 187.341 169.157 187.043C168.746 186.744 168.197 186.633 167.508 186.708C166.781 186.787 166.225 187.007 165.84 187.37C165.46 187.732 165.225 188.136 165.134 188.583L162.31 188.492C162.429 187.705 162.706 187.027 163.142 186.46C163.577 185.888 164.141 185.434 164.835 185.098C165.528 184.758 166.314 184.539 167.194 184.444C167.801 184.378 168.415 184.383 169.035 184.46C169.654 184.536 170.235 184.711 170.775 184.984C171.315 185.251 171.771 185.647 172.145 186.17C172.524 186.693 172.768 187.372 172.878 188.206L173.98 196.614L171.126 196.924L170.9 195.198L170.801 195.209C170.667 195.578 170.455 195.932 170.167 196.273C169.884 196.608 169.508 196.895 169.041 197.134C168.578 197.367 168.018 197.519 167.362 197.59ZM167.848 195.331C168.444 195.266 168.945 195.093 169.352 194.811C169.758 194.523 170.052 194.171 170.236 193.752C170.425 193.334 170.489 192.893 170.428 192.429L170.234 190.949C170.152 191.035 170.002 191.123 169.787 191.213C169.577 191.302 169.338 191.386 169.071 191.465C168.804 191.544 168.539 191.617 168.276 191.684C168.014 191.751 167.786 191.809 167.592 191.858C167.157 191.966 166.774 192.107 166.442 192.282C166.11 192.456 165.859 192.677 165.689 192.944C165.518 193.206 165.457 193.528 165.507 193.91C165.579 194.455 165.832 194.845 166.268 195.08C166.703 195.314 167.23 195.398 167.848 195.331ZM181.175 183.09L181.475 185.381L174.234 186.167L173.934 183.877L181.175 183.09ZM175.327 180.673L178.295 180.351L179.841 192.145C179.894 192.543 179.994 192.841 180.142 193.041C180.295 193.235 180.477 193.358 180.69 193.413C180.902 193.467 181.131 193.481 181.377 193.454C181.563 193.434 181.731 193.402 181.88 193.358C182.035 193.314 182.152 193.276 182.231 193.245L183.035 195.506C182.884 195.577 182.665 195.662 182.378 195.759C182.097 195.856 181.746 195.933 181.327 195.99C180.586 196.092 179.902 196.053 179.274 195.873C178.645 195.687 178.121 195.351 177.703 194.866C177.29 194.38 177.035 193.744 176.937 192.958L175.327 180.673ZM190.344 195.084C189.081 195.222 187.956 195.079 186.969 194.655C185.987 194.225 185.187 193.555 184.568 192.643C183.949 191.726 183.553 190.61 183.381 189.296C183.211 188.004 183.309 186.843 183.673 185.814C184.042 184.778 184.636 183.939 185.456 183.297C186.275 182.65 187.285 182.26 188.488 182.13C189.265 182.045 190.014 182.091 190.735 182.267C191.462 182.437 192.124 182.752 192.722 183.213C193.326 183.672 193.833 184.286 194.245 185.055C194.655 185.817 194.933 186.75 195.077 187.851L195.196 188.759L184.871 189.881L184.61 187.885L192.089 187.072C192.009 186.506 191.82 186.015 191.521 185.599C191.222 185.178 190.84 184.863 190.374 184.654C189.914 184.444 189.4 184.37 188.832 184.432C188.225 184.498 187.711 184.703 187.29 185.047C186.869 185.386 186.561 185.807 186.366 186.309C186.176 186.805 186.115 187.334 186.183 187.897L186.412 189.639C186.507 190.369 186.724 190.982 187.06 191.476C187.396 191.965 187.823 192.322 188.34 192.548C188.857 192.769 189.438 192.844 190.083 192.774C190.515 192.727 190.898 192.624 191.232 192.466C191.566 192.303 191.845 192.087 192.071 191.819C192.296 191.551 192.451 191.233 192.536 190.865L195.348 190.874C195.269 191.624 195.019 192.298 194.599 192.897C194.183 193.489 193.615 193.977 192.894 194.359C192.173 194.736 191.323 194.978 190.344 195.084Z" fill="#FFED00"/>
</g>
<defs>
<filter id="filter0_i_6623_19043" x="35.2227" y="115.633" width="188.896" height="51.7031" filterUnits="userSpaceOnUse" color-interpolation-filters="sRGB">
<feFlood flood-opacity="0" result="BackgroundImageFix"/>
<feBlend mode="normal" in="SourceGraphic" in2="BackgroundImageFix" result="shape"/>
<feColorMatrix in="SourceAlpha" type="matrix" values="0 0 0 0 0 0 0 0 0 0 0 0 0 0 0 0 0 0 127 0" result="hardAlpha"/>
<feOffset dx="-2.35816" dy="2.35816"/>
<feComposite in2="hardAlpha" operator="arithmetic" k2="-1" k3="1"/>
<feColorMatrix type="matrix" values="0 0 0 0 1 0 0 0 0 0.654902 0 0 0 0 0.137255 0 0 0 1 0"/>
<feBlend mode="normal" in2="shape" result="effect1_innerShadow_6623_19043"/>
</filter>
<clipPath id="clip0_6623_19043">
<rect width="256" height="256" fill="white"/>
</clipPath>
</defs>
</svg>
