<svg width="523" height="298" viewBox="0 0 523 298" fill="none" xmlns="http://www.w3.org/2000/svg">
<path d="M200.262 269.19C201.502 267.223 202.616 265.146 204.023 263.286C213.682 250.539 226.559 242.804 242.046 239.599C254.314 237.059 266.716 235.171 279.019 232.78C285.495 231.526 291.957 230.082 298.288 228.232C302.693 226.95 306.773 224.766 309.201 220.429C311.454 216.408 310.446 213.134 306.045 211.678C304.21 211.067 301.95 210.828 300.112 211.301C291.919 213.393 283.705 215.527 275.688 218.188C268.77 220.485 261.752 220.925 254.62 220.856C244.575 220.754 234.76 219.417 225.181 216.033C214.692 212.331 203.991 213.597 193.673 216.811C180.577 220.882 167.778 225.889 154.692 229.983C146.632 232.504 138.286 234.105 130.061 236.08C127.589 236.669 125.023 236.93 122.61 237.682C113.875 240.402 105.082 238.372 96.3544 237.954C85.5345 237.429 74.7584 236.064 63.9577 235.251C53.6034 234.47 43.2988 234.506 33.2707 237.89C28.5626 239.481 24.1491 241.537 20.4405 244.929C20.1874 245.162 19.9422 245.394 19.6795 245.604C18.5014 246.548 17.2617 247.965 15.6996 246.73C13.8937 245.297 15.0878 243.795 15.9956 242.281C23.3774 229.95 34.2295 222.294 47.962 218.823C54.684 217.121 61.5523 215.919 68.4228 214.971C72.066 214.467 75.8779 214.667 79.5539 215.076C95.0402 216.784 109.604 213.748 123.249 206.46C130.424 202.632 137.305 198.244 144.27 194.048C157.222 186.252 171.194 181.124 186.103 179.042C192.4 178.167 198.934 178.525 205.315 178.95C212.867 179.452 220.254 178.746 227.443 176.701C230.435 175.844 233.326 174.016 235.786 172.026C241.869 167.113 241.673 159.736 235.733 154.558C230.486 149.984 224.582 146.881 217.644 145.875C203.072 143.751 188.618 143.738 174.329 147.862C166.427 150.141 159.248 153.913 152.396 158.363C136.257 168.845 118.872 176.063 99.8067 179.012C97.1322 179.424 94.4908 180.08 91.8186 180.524C90.3771 180.769 88.7611 180.453 88.7303 178.783C88.7121 177.741 89.8384 176.626 90.5945 175.657C90.8561 175.32 91.5103 175.266 92 175.128C103.233 171.969 112.195 164.94 121.009 157.732C124.69 154.724 128.213 151.512 131.644 148.228C144.328 136.103 159.102 127.286 175.012 120.181C185.441 115.517 196.32 114.86 207.404 116.425C215.62 117.581 223.76 119.219 231.945 120.599C239.792 121.924 247.611 123.625 255.516 124.412C268.364 125.693 279.881 121.622 290.402 114.332C292.791 112.674 293.401 110.656 293.168 107.806C292.037 93.5995 293.066 79.5669 297.098 65.8317C299.712 56.935 303.54 48.6213 309.013 41.1311C310.097 39.6449 311.306 38.0225 312.844 37.1254C325.295 29.8745 337.52 22.1298 350.432 15.8018C366.587 7.89092 383.668 8.72193 400.603 13.6565C421.416 19.7263 439.134 31.247 454.797 45.9868C483.768 73.2518 503.31 106.192 512.404 145.104C517.111 165.253 518.127 185.567 512.507 205.777C507.664 223.177 498.312 237.249 482.6 246.705C475.193 251.163 467.835 255.752 460.765 260.728C451.936 266.942 442.257 268.638 431.781 267.714C419.662 266.644 408.117 263.486 397.011 258.577C395.325 257.829 393.618 257.121 391.876 256.376C382.205 264.251 370.666 266.333 359.055 267.974C347.068 269.666 335.118 268.519 323.081 267.483C306.425 266.057 290.495 261.21 274.161 258.391C260.548 256.041 246.897 255.278 233.15 256.409C226.142 256.984 219.554 259.234 213.382 262.553C210.266 264.231 207.258 266.1 205.427 269.462C204.086 271.914 202.27 271.469 200.286 269.189L200.262 269.19ZM219.909 254.16C225.271 253.184 229.383 252.025 233.557 251.738C247.972 250.751 262.288 251.602 276.578 254.111C291.077 256.662 305.197 260.912 319.954 262.504C336.947 264.337 353.704 265.175 370.47 261.21C376.257 259.846 381.652 257.776 387.008 254.244C335.576 222.507 305.235 176.776 293.757 117.822C292.272 118.803 291.203 119.603 290.044 120.258C278.576 126.715 266.541 130.752 253.148 128.824C249.624 128.316 246.101 127.833 242.6 127.212C231.761 125.295 220.954 123.16 210.086 121.396C198.906 119.582 187.799 119.492 177.148 124.266C162.362 130.894 148.587 139.035 136.453 149.974C128.522 157.121 120.041 163.653 111.825 170.469C111.481 170.756 111.248 171.171 110.71 171.854C111.74 171.733 112.432 171.772 113.044 171.57C125.635 167.422 137.863 162.52 148.968 155.07C155.886 150.424 163.216 146.553 171.192 143.975C184.857 139.552 198.883 139.445 212.982 140.479C223.255 141.234 232.421 144.838 240 152.114C246.278 158.145 246.57 167.895 240.471 174.028C237.066 177.454 233.125 180.018 228.373 181.214C219.913 183.341 211.379 184.088 202.662 183.255C198.304 182.838 193.8 182.392 189.507 183.006C174.281 185.206 159.863 189.968 146.611 197.992C139.646 202.203 132.746 206.553 125.591 210.42C112.005 217.759 97.3587 221.43 81.9941 219.761C68.2355 218.265 55.3743 221.165 42.6315 225.403C37.7747 227.02 33.2572 229.625 29.4379 233.694C30.1957 233.76 30.562 233.893 30.8488 233.801C40.6622 230.519 50.7546 229.838 60.9856 230.556C74.6667 231.516 88.3688 232.323 102.013 233.66C109.87 234.434 117.518 234.403 125.194 232.403C135.019 229.845 145.024 227.927 154.719 224.98C167.029 221.243 179.021 216.477 191.31 212.654C203.311 208.923 215.586 207.601 227.786 211.939C234.739 214.409 241.854 215.802 249.159 216.058C258.99 216.398 268.692 216.238 278.16 212.447C284.559 209.884 291.496 208.645 298.227 206.959C300.012 206.514 301.943 206.354 303.782 206.47C308.289 206.741 311.847 208.727 314.148 212.793C316.341 216.668 315.085 220.212 312.755 223.252C310.839 225.761 308.452 228.111 305.803 229.78C302.987 231.556 299.709 232.854 296.458 233.626C288.551 235.507 280.554 237.004 272.577 238.563C261.777 240.672 250.919 242.523 240.165 244.836C233.19 246.333 226.731 249.274 219.931 254.142L219.909 254.16ZM511.133 167.618C510.348 162.227 509.782 156.796 508.738 151.455C503.208 123.034 491.147 97.5441 473.882 74.4922C459.971 55.9177 443.43 40.1888 423.174 28.6644C409.725 21.0068 395.453 15.7247 379.884 15.0815C357.555 14.1595 340.004 22.8381 328.157 42.2144C323.95 49.0976 321.246 56.6071 319.552 64.4912C316.326 79.5232 316.576 94.6121 319.156 109.687C323.738 136.487 334.347 160.822 349.677 183.086C364.829 205.085 383.336 223.605 406.852 236.619C419.155 243.426 432.175 248.16 446.296 249.176C458.552 250.054 470.255 248.151 481.021 241.744C493.597 234.253 501.399 223.039 506.188 209.481C510.978 195.923 511.937 181.896 511.126 167.627L511.133 167.618ZM297.962 85.6791C296.68 98.4953 297.511 110.692 299.714 122.8C304.263 147.77 313.976 170.663 327.998 191.698C343.786 215.388 363.363 235.147 388.327 249.126C398.902 255.051 410.067 259.446 422.008 261.692C423.318 261.942 424.983 262.509 425.952 261.97C429.964 259.728 433.957 257.335 436.969 253.164C433.373 252.208 430.253 251.481 427.198 250.55C406.82 244.362 389.478 232.998 373.94 218.664C352.132 198.529 335.882 174.466 324.75 146.983C316.5 126.622 311.667 105.479 312.383 83.3058C312.409 82.5475 312.077 81.7826 311.81 80.591C307.074 82.3354 302.669 83.9528 297.963 85.687L297.962 85.6791ZM433.041 262.21C433.155 262.584 433.261 262.959 433.374 263.325C439.031 263.164 444.689 263.011 450.344 262.81C450.803 262.794 451.314 262.519 451.698 262.221C454.96 259.689 458.204 257.126 461.929 254.195C455.749 254.138 450.282 254.087 444.818 254.059C444.334 254.053 443.745 254.143 443.376 254.416C439.911 256.986 436.48 259.601 433.041 262.202L433.041 262.21ZM326.534 34.9472C316.211 38.6473 309.013 45.9569 307.721 53.8126C310.975 52.8499 314.205 51.9924 317.354 50.8938C318.159 50.6139 318.928 49.7155 319.355 48.9128C321.727 44.4449 323.991 39.9209 326.534 34.9472ZM316.567 56.1416C312.494 57.1702 309.375 57.9241 306.288 58.7715C305.526 58.9847 304.457 59.339 304.189 59.9233C302.649 63.3768 301.015 66.8449 301.009 71.0181C305.591 69.436 309.716 68.0056 314.065 66.5036C314.844 63.2791 315.621 60.0309 316.56 56.1421L316.567 56.1416Z" fill="black"/>
<path d="M486.603 166.844C487.24 177.637 487.187 186.656 484.878 195.483C483.935 199.085 482.779 202.695 481.226 206.07C474.174 221.388 460.275 229.004 443.557 226.913C433.805 225.691 424.886 222.101 416.5 217.088C404.587 209.967 394.207 200.977 385.178 190.459C363.942 165.729 349.396 137.619 343.35 105.381C341.011 92.9244 340.295 80.3291 343.25 67.8486C344.264 63.5802 345.699 59.314 347.617 55.3719C354.982 40.2304 369.058 32.8646 385.67 35.1303C397.366 36.7243 407.733 41.6135 417.329 48.2693C429.86 56.9554 440.445 67.7222 449.74 79.7666C466.595 101.613 478.688 125.755 484.312 152.943C485.383 158.099 486.031 163.349 486.595 166.845L486.603 166.844ZM482.816 171.03C481.829 164.251 481.394 159.663 480.458 155.174C474.575 126.795 462.111 101.556 443.999 79.0815C434.213 66.9364 422.884 56.5169 409.371 48.625C402.589 44.6608 395.463 41.5492 387.696 40.1235C369.493 36.7757 355.548 44.9843 349.626 62.596C348.761 65.1656 348.052 67.8118 347.543 70.4757C345.764 79.7513 345.67 89.0751 346.919 98.4315C350.538 125.522 361.311 149.717 376.621 172.032C386.309 186.151 397.746 198.665 411.659 208.726C420.115 214.842 429.219 219.701 439.516 221.911C458.17 225.92 472.826 217.677 479.11 199.578C480.164 196.541 481.146 193.382 481.476 190.205C482.204 183.122 482.493 175.99 482.825 171.045L482.816 171.03Z" fill="black"/>
<path d="M382.939 66.3726C382.111 64.3049 381.133 62.4788 380.726 60.5326C380.548 59.6931 381.349 58.3544 382.107 57.7513C382.475 57.4625 384.139 58.1173 384.574 58.7715C385.587 60.3164 386.275 62.0913 386.977 63.8256C388.004 66.349 389.603 67.7808 392.415 68.5217C405.788 72.0756 416.629 79.7503 425.596 90.1696C427.099 91.9188 428.198 94.1107 429.079 96.2622C429.385 97.005 428.444 98.2661 428.072 99.2878C427.104 98.8227 425.614 98.6174 425.235 97.8558C422.257 91.839 417.183 87.802 412.224 83.709C406.414 78.9196 399.863 75.417 391.952 73.1971C392.434 74.7398 392.653 75.8232 393.095 76.8033C399.729 91.3453 406.448 105.857 413.02 120.436C414.28 123.229 416.178 124.951 418.792 126.494C427.405 131.571 436.072 136.636 444.248 142.373C452.098 147.878 458.535 154.932 462.644 163.824C463.356 165.366 464.045 166.934 464.54 168.555C468.325 180.934 463.911 190.388 452.044 195.463C450.975 195.921 449.924 196.425 448.749 196.962C449.521 201.717 453.069 205.584 452.541 211.012C449.079 210.269 448.459 207.327 447.146 205.238C445.717 202.966 444.705 200.425 443.602 198.178C422.996 196.489 409.862 184.103 399.075 168.23C398.323 167.121 397.624 165.864 397.311 164.58C397.111 163.774 397.392 162.369 397.967 161.978C398.505 161.613 399.963 161.94 400.548 162.48C401.515 163.375 402.122 164.67 402.853 165.813C409.104 175.62 417.244 183.43 427.364 189.085C431.342 191.304 435.54 193.03 440.857 192.766C440.221 190.947 439.844 189.541 439.244 188.237C430.593 169.378 421.88 150.54 413.282 131.653C412.015 128.868 410.203 127.021 407.494 125.588C400.45 121.85 393.405 118.08 386.66 113.842C378.503 108.717 371.6 102.134 367.511 93.1851C366.122 90.1457 365.107 86.7693 364.746 83.4582C363.954 76.1799 367.905 70.5014 374.868 68.289C377.42 67.4795 380.083 67.0284 382.93 66.3653L382.939 66.3726ZM420.027 132.291C419.65 132.565 419.273 132.838 418.895 133.104C427.983 152.864 437.07 172.616 446.298 192.684C448.917 191.591 451.011 190.933 452.903 189.884C459.609 186.168 462.104 180.967 460.963 173.355C460.243 168.556 458.251 164.27 455.483 160.332C446.405 147.436 433.354 139.679 420.026 132.284L420.027 132.291ZM407.261 120.389C406.955 118.866 406.946 118.181 406.692 117.61C400.143 103.261 393.541 88.9399 387.016 74.5813C386.048 72.4518 384.686 71.3536 382.315 71.6805C380.808 71.8906 379.26 71.8726 377.794 72.2152C371.258 73.7443 367.959 78.5565 369.601 85.0739C370.537 88.7745 372.125 92.5085 374.229 95.6885C382.136 107.616 394.536 113.548 407.26 120.381L407.261 120.389Z" fill="black"/>
</svg>
