<svg width="21" height="24" viewBox="0 0 21 24" fill="none" xmlns="http://www.w3.org/2000/svg">
<path d="M19.9242 11.8126V6.5626C19.9242 5.6626 19.9242 5.0626 19.7727 4.5376C19.6212 4.0876 19.2424 3.7126 19.0152 3.4126C19.0152 3.4126 18.9394 3.4126 18.9394 3.3376C18.5606 3.0376 18.1061 2.8126 17.1212 2.4376L10.9091 0.112598H10.8333C10.7576 0.112598 10.6818 0.0375977 10.6061 0.0375977C10.4545 0.112598 10.303 0.0375977 10.1515 0.0375977H9.84848C9.69697 0.0375977 9.54545 0.112598 9.39394 0.112598C9.31818 0.112598 9.24242 0.187598 9.16667 0.187598H9.09091L2.80303 2.5126C1.89394 2.8876 1.43939 3.1126 1.06061 3.4126C1.06061 3.4126 0.984848 3.4126 0.984848 3.4876C0.681818 3.7126 0.378788 4.0876 0.151515 4.6126C0 5.0626 0 5.5876 0 6.5626V12.0376C0 17.5876 5.5303 21.7126 8.78788 23.6626H8.86364C9.09091 23.8126 9.24242 23.8876 9.54545 23.9626C9.62121 23.9626 9.69697 23.9626 9.77273 23.9626H10.303C10.6061 23.9626 10.8333 23.8126 11.0606 23.7376C11.1364 23.7376 11.1364 23.6626 11.2879 23.5876C13.9394 22.0876 20.0758 17.8876 20.0758 11.9626C20 11.9626 19.9242 11.8876 19.9242 11.8126Z" fill="#161616"/>
<path d="M6.51562 11.5126L8.78835 13.7626L14.0156 8.58765" stroke="#FFED00" stroke-width="2" stroke-linecap="round" stroke-linejoin="round"/>
</svg>
