<svg width="80" height="80" viewBox="0 0 80 80" fill="none" xmlns="http://www.w3.org/2000/svg">
<g clip-path="url(#clip0_23_4558)">
<path d="M40 79.5C61.8152 79.5 79.5 61.8152 79.5 40C79.5 18.1848 61.8152 0.5 40 0.5C18.1848 0.5 0.5 18.1848 0.5 40C0.5 61.8152 18.1848 79.5 40 79.5Z" fill="#FFED00"/>
<path d="M35.1114 39.2423L38.3203 42.4513L45.6295 35.1421M53.0279 40.0446C53.0279 47.9777 44.3816 53.7716 41.1727 55.6435C40.8162 55.8217 40.6379 56 40.3705 56C40.1922 56 39.9248 56 39.6574 56C39.39 55.9109 39.2117 55.8217 38.8552 55.6435C35.7354 53.7716 27 47.9777 27 40.0446V32.2897C27 30.9526 27 30.3287 27.1783 29.7939C27.3565 29.2591 27.7131 28.9025 28.0696 28.546C28.5153 28.1894 29.1393 27.922 30.2981 27.4763L39.0334 24.1783C39.39 24.0891 39.5682 24 39.7465 24C39.9248 24 40.0139 24 40.1922 24C40.3705 24 40.5487 24.0891 40.9053 24.1783L49.6407 27.4763C50.8886 27.922 51.4234 28.1894 51.8691 28.546C52.2256 28.9025 52.5822 29.3482 52.7604 29.7939C52.9387 30.3287 52.9387 31.0418 52.9387 32.2897V40.0446H53.0279Z" stroke="#151C01" stroke-width="2" stroke-linecap="round" stroke-linejoin="round"/>
</g>
<defs>
<clipPath id="clip0_23_4558">
<rect width="80" height="80" fill="white"/>
</clipPath>
</defs>
</svg>
