<svg width="80" height="80" viewBox="0 0 80 80" fill="none" xmlns="http://www.w3.org/2000/svg">
<g clip-path="url(#clip0_23_4540)">
<path d="M40 79.5C61.8152 79.5 79.5 61.8152 79.5 40C79.5 18.1848 61.8152 0.5 40 0.5C18.1848 0.5 0.5 18.1848 0.5 40C0.5 61.8152 18.1848 79.5 40 79.5Z" fill="#FFED00"/>
<path d="M35.1842 49.1673H26.3966M31.1898 40.3797H24M35.1842 31.5921H27.1955M47.9661 26L37.4267 40.7552C36.9602 41.4082 36.727 41.7348 36.7371 42.007C36.7459 42.2441 36.8596 42.4649 37.0473 42.6098C37.263 42.7763 37.6643 42.7763 38.4668 42.7763H46.3684L44.7707 54.7594L55.3101 40.0042C55.7765 39.3511 56.0098 39.0246 55.9997 38.7523C55.9909 38.5153 55.8772 38.2944 55.6895 38.1495C55.4738 37.9831 55.0725 37.9831 54.2699 37.9831H46.3684L47.9661 26Z" stroke="#161616" stroke-width="2" stroke-linecap="round" stroke-linejoin="round"/>
</g>
<defs>
<clipPath id="clip0_23_4540">
<rect width="80" height="80" fill="white"/>
</clipPath>
</defs>
</svg>
