<svg width="49" height="48" viewBox="0 0 49 48" fill="none" xmlns="http://www.w3.org/2000/svg">
<circle cx="24.5996" cy="24" r="23.5" stroke="#161616"/>
<g clip-path="url(#clip0_510_6010)">
<path d="M28.9054 19.0171C28.7274 19.0171 28.5534 19.0707 28.4054 19.1711C28.2574 19.2716 28.142 19.4144 28.0739 19.5815C28.0058 19.7485 27.988 19.9323 28.0227 20.1097C28.0574 20.2871 28.1431 20.45 28.269 20.5778C28.3949 20.7057 28.5552 20.7928 28.7298 20.8281C28.9044 20.8633 29.0853 20.8452 29.2498 20.776C29.4143 20.7068 29.5548 20.5896 29.6537 20.4393C29.7526 20.2889 29.8054 20.1122 29.8054 19.9313C29.8054 19.6889 29.7106 19.4563 29.5418 19.2848C29.373 19.1134 29.1441 19.0171 28.9054 19.0171ZM32.3554 20.8609C32.3408 20.2287 32.2243 19.6033 32.0104 19.0094C31.8197 18.5013 31.5229 18.0413 31.1404 17.6609C30.769 17.2703 30.3151 16.9707 29.8129 16.7847C29.2299 16.5608 28.6135 16.4397 27.9904 16.4266C27.1954 16.3809 26.9404 16.3809 24.9004 16.3809C22.8604 16.3809 22.6054 16.3809 21.8104 16.4266C21.1873 16.4397 20.5709 16.5608 19.9879 16.7847C19.4867 16.9726 19.0331 17.272 18.6604 17.6609C18.276 18.0381 17.981 18.4993 17.7979 19.0094C17.5775 19.6017 17.4583 20.2278 17.4454 20.8609C17.4004 21.6685 17.4004 21.9275 17.4004 23.9999C17.4004 26.0723 17.4004 26.3313 17.4454 27.139C17.4583 27.7719 17.5775 28.3982 17.7979 28.9904C17.981 29.5006 18.276 29.9617 18.6604 30.339C19.0331 30.7278 19.4867 31.0273 19.9879 31.2151C20.5709 31.439 21.1873 31.5601 21.8104 31.5732C22.6054 31.619 22.8604 31.619 24.9004 31.619C26.9404 31.619 27.1954 31.619 27.9904 31.5732C28.6135 31.5601 29.2299 31.439 29.8129 31.2151C30.3151 31.0291 30.769 30.7295 31.1404 30.339C31.5245 29.96 31.8216 29.4995 32.0104 28.9904C32.2243 28.3966 32.3408 27.7711 32.3554 27.139C32.3554 26.3313 32.4004 26.0723 32.4004 23.9999C32.4004 21.9275 32.4004 21.6685 32.3554 20.8609ZM31.0054 27.0475C30.9999 27.5312 30.9137 28.0103 30.7504 28.4647C30.6306 28.7963 30.4383 29.0958 30.1879 29.3409C29.9446 29.5927 29.6503 29.7876 29.3254 29.9123C28.8782 30.0782 28.4065 30.1658 27.9304 30.1713C27.1804 30.2094 26.9029 30.217 24.9304 30.217C22.9579 30.217 22.6804 30.2171 21.9304 30.1713C21.4361 30.1807 20.9438 30.1034 20.4754 29.9428C20.1647 29.8118 19.8839 29.6173 19.6504 29.3713C19.4015 29.1265 19.2115 28.8267 19.0954 28.4951C18.9123 28.0343 18.8107 27.5442 18.7954 27.0475C18.7954 26.2856 18.7504 26.0037 18.7504 23.9999C18.7504 21.9961 18.7504 21.7142 18.7954 20.9523C18.7988 20.4579 18.8876 19.9679 19.0579 19.5047C19.1899 19.1831 19.3926 18.8964 19.6504 18.6666C19.8782 18.4046 20.1599 18.1966 20.4754 18.057C20.9326 17.8895 21.4144 17.8019 21.9004 17.798C22.6504 17.798 22.9279 17.7523 24.9004 17.7523C26.8729 17.7523 27.1504 17.7523 27.9004 17.798C28.3765 17.8035 28.8482 17.8911 29.2954 18.057C29.6362 18.1855 29.9421 18.3945 30.1879 18.6666C30.4337 18.9006 30.6257 19.1867 30.7504 19.5047C30.9171 19.9686 31.0034 20.4584 31.0054 20.9523C31.0429 21.7142 31.0504 21.9961 31.0504 23.9999C31.0504 26.0037 31.0429 26.2856 31.0054 27.0475ZM24.9004 20.0913C24.1397 20.0928 23.3966 20.3234 22.7649 20.7538C22.1332 21.1841 21.6412 21.7951 21.3511 22.5094C21.0611 23.2238 20.9859 24.0094 21.1352 24.7671C21.2845 25.5248 21.6516 26.2205 22.19 26.7664C22.7283 27.3122 23.4139 27.6837 24.16 27.8339C24.9062 27.9841 25.6794 27.9063 26.382 27.6102C27.0846 27.3142 27.6851 26.8132 28.1075 26.1706C28.5299 25.528 28.7554 24.7726 28.7554 23.9999C28.7564 23.4857 28.6573 22.9764 28.4638 22.5012C28.2704 22.026 27.9863 21.5944 27.6281 21.2312C27.2698 20.8679 26.8443 20.5802 26.3762 20.3846C25.9081 20.189 25.4066 20.0893 24.9004 20.0913ZM24.9004 26.5371C24.4064 26.5371 23.9236 26.3883 23.5129 26.1095C23.1021 25.8307 22.782 25.4344 22.593 24.9708C22.404 24.5073 22.3545 23.9971 22.4509 23.5049C22.5472 23.0128 22.7851 22.5607 23.1344 22.2059C23.4837 21.8511 23.9287 21.6094 24.4132 21.5115C24.8976 21.4136 25.3998 21.4639 25.8561 21.6559C26.3125 21.8479 26.7026 22.1731 26.977 22.5903C27.2514 23.0076 27.3979 23.4981 27.3979 23.9999C27.3979 24.3331 27.3333 24.663 27.2078 24.9708C27.0823 25.2787 26.8983 25.5583 26.6664 25.794C26.4344 26.0295 26.1592 26.2164 25.8561 26.3439C25.5531 26.4714 25.2284 26.5371 24.9004 26.5371Z" fill="#161616"/>
</g>
<defs>
<clipPath id="clip0_510_6010">
<rect width="15" height="16" fill="white" transform="translate(17.4004 16)"/>
</clipPath>
</defs>
</svg>
