<svg width="79" height="20" viewBox="0 0 79 20" fill="none" xmlns="http://www.w3.org/2000/svg">
<mask id="mask0_235_32330" style="mask-type:luminance" maskUnits="userSpaceOnUse" x="1" y="0" width="77" height="20">
<path d="M77.817 0H1.02051V20H77.817V0Z" fill="white"/>
</mask>
<g mask="url(#mask0_235_32330)">
<path d="M76.8276 13.214C76.3665 12.3073 75.5209 11.6953 73.7528 10.9623C72.3076 10.3654 71.5773 9.95734 71.1314 9.48142C70.7701 9.096 70.6625 8.77867 70.701 8.20443C70.7317 7.66796 70.87 7.35061 71.2083 6.99549C71.6464 6.53458 72.2461 6.3759 72.9687 6.52702C74.1525 6.7688 74.9059 7.57729 75.5594 9.27742C75.7899 9.88184 75.8207 9.9045 76.2358 9.75342L76.4971 9.65517L76.4894 8.96C76.4818 8.57467 76.4664 7.76619 76.4433 7.16927L76.4126 6.05856L76.2127 5.97544C75.1287 5.52209 73.0686 5.24252 71.731 5.36341C70.2089 5.49943 69.0865 5.97544 68.2257 6.85192C67.3723 7.72084 66.9803 8.74842 67.0495 9.965C67.1033 10.9698 67.4107 11.6953 68.0411 12.3223C68.6254 12.9118 69.1173 13.1913 70.524 13.7278C72.7919 14.5968 73.3991 15.1181 73.3915 16.191C73.3915 17.0977 72.8995 17.7626 72.0078 18.0724C71.6926 18.1858 70.8854 18.1858 70.4549 18.0724C69.3249 17.7778 68.4639 16.8182 67.726 15.035L67.5338 14.5816L67.3108 14.5891C67.1878 14.5968 67.0187 14.6345 66.9418 14.6723L66.7881 14.7403L66.8034 15.5185C66.8111 15.9493 66.8342 16.8483 66.8496 17.5284L66.8803 18.7525L67.134 18.8583C67.6491 19.0773 69.2019 19.4098 70.1705 19.5156C70.2934 19.5307 70.9546 19.5307 71.6464 19.5232C72.8456 19.508 72.9302 19.5005 73.5375 19.3493C75.3209 18.8884 76.4741 17.9138 76.9815 16.4328C77.1352 15.9794 77.1583 15.8358 77.1813 15.1634C77.2121 14.2718 77.1275 13.8033 76.8276 13.214Z" fill="#161616"/>
<path d="M63.0511 5.86324C61.552 5.12277 59.2305 5.17566 57.5316 5.99169C55.9249 6.7624 54.818 8.0469 54.203 9.86033C53.8801 10.8048 53.7802 11.5679 53.811 12.792C53.834 13.5627 53.8648 13.9632 53.9493 14.3258C54.5797 17.1064 56.5246 18.9954 59.2304 19.479C59.8301 19.5847 61.1831 19.5848 61.7904 19.4865C62.6513 19.3354 63.6429 18.9652 64.2734 18.542C65.0344 18.0358 65.8262 17.2727 65.8262 17.0308C65.8262 16.8873 65.5648 16.5548 65.4496 16.5548C65.4034 16.5548 65.1881 16.6606 64.9806 16.7967C64.2349 17.2727 63.52 17.4691 62.5207 17.4691C61.1523 17.4691 60.276 17.1291 59.4073 16.2677C59.023 15.8823 58.8615 15.6783 58.6616 15.293C58.2235 14.4543 57.9851 13.4947 57.9467 12.4067L57.9313 11.9382L61.9748 11.923L66.0183 11.908L66.0337 11.636C66.0414 11.4848 66.0261 11.0995 65.9876 10.7746C65.7339 8.35667 64.7422 6.69439 63.0511 5.86324ZM58.9768 10.7594L57.9544 10.7746V10.5555C57.9544 10.4346 57.9929 10.1173 58.0313 9.85275C58.3695 7.69177 59.1921 6.39216 60.2221 6.39216C61.1677 6.39216 61.752 7.6691 61.875 10.0114L61.9057 10.6763L60.9525 10.7066C60.4297 10.7293 59.5379 10.7519 58.9768 10.7594Z" fill="#161616"/>
<path d="M48.3954 5.60647C48.0725 5.53847 47.7804 5.53092 47.1578 5.54602C46.2122 5.57624 45.5665 5.71981 44.8592 6.03716C44.6286 6.14294 44.4211 6.23361 44.4057 6.23361C44.3903 6.23361 44.3903 4.82821 44.4134 3.12058C44.4364 0.702697 44.4288 0 44.375 0C44.1982 0 38.6172 1.04272 38.5557 1.08805C38.5095 1.12583 38.4942 1.23917 38.5019 1.41295C38.5172 1.71518 38.4865 1.69252 39.163 1.84363C39.3706 1.88897 39.6088 1.97965 39.6934 2.04009C39.924 2.19877 40.1085 2.54633 40.2392 3.03747C40.3391 3.42282 40.3545 3.70239 40.4006 6.33939C40.4467 9.02925 40.439 11.7872 40.3622 16.8497L40.3314 18.9502L40.7312 19.0408C41.3077 19.1693 42.9682 19.4413 43.5063 19.4942C44.2981 19.5773 46.1584 19.5622 46.7426 19.4791C49.3102 19.1012 51.2397 17.6355 52.1392 15.3989C52.3774 14.802 52.608 13.8877 52.6849 13.2153C52.7772 12.4219 52.7233 10.8276 52.5851 10.1853C52.0546 7.72967 50.5017 6.03716 48.3954 5.60647ZM44.498 18.2852C44.4288 18.1039 44.3442 11.8098 44.375 9.29375L44.398 7.32922L44.7593 7.22343C44.9976 7.15543 45.2821 7.11765 45.6126 7.11765C46.0738 7.11765 46.1354 7.13276 46.5274 7.32166C47.4652 7.77501 48.111 8.91592 48.4108 10.6387C48.5184 11.2733 48.5338 13.0187 48.4338 13.7819C48.1879 15.6557 47.5652 17.1745 46.735 17.9075C46.4044 18.2022 46.0969 18.3532 45.6971 18.4288C45.4127 18.4817 45.3205 18.4817 44.8055 18.444C44.5901 18.4288 44.544 18.4062 44.498 18.2852Z" fill="#161616"/>
<path d="M37.9664 5.32056C37.3284 5.32056 36.9901 5.38855 36.475 5.62278C35.5372 6.04591 34.8376 6.7335 34.2073 7.85177L34.0074 8.19932L34.0305 7.57977C34.0458 7.23975 34.0689 6.60506 34.0842 6.16682L34.1073 5.37344H33.9767C33.8075 5.37344 28.388 6.43882 28.2265 6.50682C28.1189 6.55216 28.1035 6.5975 28.1035 6.8544C28.1035 7.11885 28.1189 7.14907 28.2265 7.17174C28.2958 7.18686 28.5417 7.23219 28.78 7.27752C29.2566 7.3682 29.4027 7.44375 29.6026 7.70066C29.9638 8.17664 30.0407 9.00783 30.0407 12.5515C30.0407 15.4454 29.9792 16.8887 29.8332 17.342C29.664 17.8935 29.3566 18.1807 28.8262 18.2713C28.6571 18.3016 28.4265 18.3469 28.3265 18.3696L28.1343 18.4073L28.1189 18.7776C28.1112 19.0345 28.1267 19.1629 28.1728 19.1932C28.2112 19.2158 30.0638 19.231 32.2854 19.2233L36.329 19.2083L36.3443 18.7927C36.352 18.5661 36.3443 18.3772 36.3136 18.3772C35.9984 18.3772 35.0375 18.2487 34.8838 18.1882C34.4302 17.9993 34.2073 17.5988 34.115 16.7828C33.9997 15.8232 33.9382 13.4356 33.9689 11.4862C33.9996 9.51408 33.9996 9.5065 34.1227 9.3705C34.4148 9.06067 35.1605 8.819 35.8215 8.819C36.352 8.819 36.9056 8.95492 37.4897 9.22692C37.7742 9.363 38.0278 9.45358 38.0663 9.44608C38.1431 9.41583 39.4654 5.97036 39.4654 5.81168C39.473 5.56234 38.7197 5.32056 37.9664 5.32056Z" fill="#161616"/>
<path d="M28.1105 11.3117C27.8261 8.924 26.7959 7.17858 25.0971 6.19632C23.2136 5.10827 20.3463 5.04027 18.3092 6.0452C16.8409 6.77057 15.634 8.16838 15.1036 9.77025C14.5501 11.425 14.5501 13.6011 15.1036 15.2936C15.4572 16.3741 15.9338 17.1675 16.6718 17.8852C17.5558 18.7467 18.7166 19.2982 20.0388 19.4871C20.5154 19.5552 22.0067 19.5552 22.4987 19.4871C22.7294 19.4569 23.1291 19.3662 23.3905 19.2983C25.7966 18.6107 27.434 16.7972 27.9952 14.198C28.1413 13.5784 28.195 12.0371 28.1105 11.3117ZM22.0298 18.4596C20.5385 18.8977 19.4699 17.5 19.0549 14.5682C18.9242 13.6237 18.9242 11.0397 19.0549 9.95917C19.347 7.60172 20.0849 6.40789 21.2534 6.40032C21.7761 6.40032 22.0682 6.52878 22.4834 6.92923C23.4597 7.8964 23.9286 9.74767 23.9209 12.6567C23.9132 14.9762 23.6826 16.4345 23.1522 17.4244C22.8908 17.9004 22.4142 18.3462 22.0298 18.4596Z" fill="#161616"/>
<path d="M8.37841 1.8301H10.1003C12.0759 1.8301 12.3989 1.86788 13.0984 2.20789C14.1132 2.69903 14.8511 3.66618 15.5045 5.35115C15.7659 6.03873 15.7659 6.03117 16.3501 5.85739L16.7422 5.74405L16.7037 3.26571C16.6807 1.90566 16.65 0.689158 16.6346 0.568265L16.5961 0.356699L9.05489 0.341587C4.90375 0.334031 1.42909 0.341587 1.33684 0.356699L1.15234 0.386923L1.16772 0.825165L1.18309 1.26341L1.75964 1.33141C2.50531 1.42208 2.95118 1.62609 3.21254 2.00388C3.80447 2.8577 3.91209 4.02131 3.91209 9.53708C3.91209 15.4156 3.78909 16.8437 3.21254 17.5841C2.91274 17.9695 2.67443 18.0904 2.00564 18.2112C1.12928 18.3699 1.16003 18.3472 1.16003 18.7931C1.16003 19.0424 1.18309 19.1709 1.22922 19.1936C1.32916 19.2312 10.9767 19.2389 11.0766 19.1936C11.2073 19.1407 11.1996 18.4455 11.069 18.3775C11.0151 18.3472 10.6923 18.2868 10.3463 18.2339C10.0004 18.1811 9.61606 18.0979 9.50076 18.045C8.8704 17.773 8.51678 17.025 8.3861 15.6725C8.29385 14.7053 8.21697 12.9146 8.21697 11.5923V10.3834L8.80122 10.3984C10.0543 10.4362 10.6999 10.5042 10.9614 10.6176C11.5302 10.8669 11.9838 11.547 12.222 12.5066L12.345 13.0204L12.7909 13.0355L13.2368 13.0506V6.60542L12.7909 6.62053L12.345 6.63565L12.2144 7.14189C11.9607 8.13169 11.5533 8.73617 10.946 9.01575C10.6999 9.12908 10.5232 9.15933 9.93129 9.19717C9.53917 9.21975 8.99342 9.24242 8.70897 9.24242H8.2016V7.64058C8.2016 6.03873 8.28616 2.63858 8.34767 2.10966L8.37841 1.8301Z" fill="#161616"/>
</g>
</svg>
