<svg width="113" height="20" viewBox="0 0 113 20" fill="none" xmlns="http://www.w3.org/2000/svg">
<g clip-path="url(#clip0_235_32304)">
<path d="M0.773438 0H8.9796C10.5427 0 11.715 0.378928 12.5834 1.01048C13.5386 1.76833 14.0596 2.86301 14.0596 4.21031C14.0596 5.76813 13.4083 6.7365 12.1058 7.32594V7.41015C13.8425 7.95749 14.8411 9.4732 14.8411 11.2836C14.8411 13.0099 14.1464 14.3572 13.0175 15.1992C12.0623 15.8729 10.8466 16.1676 9.19669 16.1676H0.773438V0ZM8.15464 6.31547C9.02302 6.31547 9.6743 5.85233 9.6743 4.88396C9.6743 3.95769 9.02302 3.49456 8.11122 3.49456H5.289V6.27337H8.15464V6.31547ZM8.54541 12.5888C9.54404 12.5888 10.2822 11.9994 10.2822 10.9468C10.2822 9.81003 9.50062 9.30479 8.54541 9.30479H5.33242V12.6309H8.54541V12.5888Z" fill="#161616"/>
<path d="M15.5801 0H19.8785V16.2097H15.5801V0Z" fill="#161616"/>
<path d="M20.7461 10.4409C20.7461 6.77792 23.1776 4.33594 26.955 4.33594C30.7324 4.33594 33.1205 6.82002 33.1205 10.4409C33.1205 14.1039 30.7324 16.5458 26.955 16.5458C23.1776 16.5458 20.7461 14.1039 20.7461 10.4409ZM28.822 10.4409C28.822 8.41994 28.1707 7.15685 26.8682 7.15685C25.5656 7.15685 24.9577 8.41994 24.9577 10.4409C24.9577 12.4618 25.5656 13.767 26.8682 13.767C28.1707 13.7249 28.822 12.4618 28.822 10.4409Z" fill="#161616"/>
<path d="M33.5977 10.4409C33.5977 6.77792 36.0291 4.33594 39.8065 4.33594C43.584 4.33594 45.9286 6.77792 45.9286 10.4409C45.9286 14.1039 43.5406 16.5458 39.7631 16.5458C36.0291 16.5458 33.5977 14.1039 33.5977 10.4409ZM41.6736 10.4409C41.6736 8.41994 41.0223 7.15685 39.7197 7.15685C38.4171 7.15685 37.8093 8.41994 37.8093 10.4409C37.8093 12.4618 38.4171 13.767 39.7197 13.767C41.0223 13.7249 41.6736 12.4618 41.6736 10.4409Z" fill="#161616"/>
<path d="M46.7969 4.63175H50.7914V6.35797H50.8782C51.6598 5.01067 52.7453 4.29492 54.482 4.29492C56.0017 4.29492 57.1306 5.01068 57.695 6.27377H57.7818C58.7371 4.75806 59.9962 4.29492 61.4724 4.29492C64.2512 4.29492 65.4235 6.27377 65.4235 8.92626V16.168H61.2553V9.64202C61.2553 8.46313 60.8646 7.70527 59.8225 7.70527C58.7805 7.70527 58.2594 8.63154 58.2594 9.89464V16.168H54.0912V9.64202C54.0912 8.46313 53.7005 7.70527 52.6584 7.70527C51.6164 7.70527 51.0953 8.63154 51.0953 9.89464V16.168H46.7969V4.63175Z" fill="#161616"/>
<path d="M70.6786 14.6519H70.6352V16.1676H66.6406V0H70.8088V5.81023H70.8957C71.6772 4.79976 72.7627 4.25241 74.2823 4.25241C77.2782 4.25241 79.015 6.86281 79.015 10.3574C79.015 14.273 77.148 16.5465 74.0218 16.5465C72.7193 16.5465 71.3733 15.9571 70.6786 14.6519ZM74.7165 10.3153C74.7165 8.46273 74.0218 7.24174 72.7627 7.24174C71.4601 7.24174 70.6786 8.46273 70.6786 10.3153C70.6786 12.1678 71.5035 13.3888 72.7627 13.3888C74.0218 13.3888 74.7165 12.2099 74.7165 10.3153Z" fill="#161616"/>
<path d="M79.4922 10.3999C79.4922 6.77901 81.9671 4.29492 85.5274 4.29492C87.3076 4.29492 88.6536 4.84226 89.6956 5.81063C91.085 7.11583 91.6929 9.13678 91.6495 11.4946H83.6604C83.8341 12.9261 84.5288 13.6839 85.7879 13.6839C86.526 13.6839 87.1773 13.3471 87.4378 12.5892H91.4758C90.7811 15.2417 88.6536 16.5469 85.6577 16.5469C81.9671 16.5048 79.4922 14.0628 79.4922 10.3999ZM83.6604 9.17888H87.4813C87.3944 7.78948 86.6129 7.07373 85.6142 7.07373C84.4419 7.03162 83.7907 7.83158 83.6604 9.17888Z" fill="#161616"/>
<path d="M96.3813 6.61037H96.4681C97.3365 5.01045 98.4653 4.37891 99.8982 4.37891C100.246 4.37891 100.463 4.42101 100.593 4.50522V8.04188H100.506C98.0312 7.62085 96.5984 8.75763 96.5984 11.368V16.2099H92.3867V4.63152H96.3813V6.61037Z" fill="#161616"/>
<path d="M101.028 16.2092H105.066C105.239 16.7145 105.76 17.1776 106.759 17.1776C108.105 17.1776 108.583 16.3777 108.583 15.1567V14.3146H108.496C107.844 15.0725 106.933 15.6198 105.63 15.6198C103.068 15.6198 100.811 13.7673 100.811 10.1464C100.811 6.82024 102.634 4.25195 105.413 4.25195C107.019 4.25195 107.975 4.8835 108.626 5.85187H108.713V4.58878H112.707V14.6093C112.707 16.4619 112.056 17.8934 111.057 18.7354C110.015 19.6196 108.539 19.9985 106.846 19.9985C103.633 20.0406 101.418 18.7775 101.028 16.2092ZM108.756 9.97798C108.756 8.54647 108.061 7.36758 106.846 7.36758C105.673 7.36758 104.935 8.37806 104.935 9.97798C104.935 11.5358 105.673 12.6305 106.846 12.6305C108.018 12.6305 108.756 11.4937 108.756 9.97798Z" fill="#161616"/>
</g>
<defs>
<clipPath id="clip0_235_32304">
<rect width="112" height="20" fill="white" transform="translate(0.75)"/>
</clipPath>
</defs>
</svg>
