<svg width="113" height="39" viewBox="0 0 113 39" fill="none" xmlns="http://www.w3.org/2000/svg">
<g clip-path="url(#clip0_615_24411)">
<path d="M57.0261 30.8444L57.2214 31.0914L56.1433 32.6237C54.6069 34.8653 53.3505 36.4784 52.3695 37.4677C51.3896 38.4558 50.3104 38.951 49.1341 38.951C47.9578 38.951 47.0344 38.5389 46.365 37.7159C45.6944 36.8928 45.3603 35.4755 45.3603 33.465C45.3603 32.84 45.3761 32.3607 45.4088 32.0317H45.1639C44.2156 34.1742 43.089 35.8716 41.7818 37.1227C40.4745 38.375 38.8241 39.0011 36.8317 39.0011C35.1316 39.0011 33.7679 38.5321 32.7395 37.5929C31.71 36.6537 31.1952 35.3605 31.1952 33.7132C31.1952 31.6367 31.9629 29.9074 33.4993 28.5231C35.0345 27.1388 37.1094 25.8376 39.7238 24.6183L45.1153 22.2459C45.1481 19.8074 44.8218 17.8561 44.1355 16.3887C43.4491 14.9224 42.5336 14.1893 41.3901 14.1893C40.671 14.1893 40.0986 14.4534 39.6753 14.9805C39.2497 15.5076 39.0375 16.3147 39.0375 17.403C39.0375 18.7213 39.3321 20.3185 39.9203 22.1981L30.852 24.7686L30.7042 24.5216C32.4359 20.7648 34.4294 17.9062 36.6849 15.9459C38.9393 13.9855 40.9408 12.7253 42.6894 12.164C44.4369 11.6039 45.7362 11.3239 46.5863 11.3239C48.5787 11.3239 50.1151 11.6449 51.1932 12.287C52.2712 12.9302 53.0073 13.8364 53.399 15.0055C53.7907 16.1758 53.9871 17.6341 53.9871 19.3805C53.9871 20.5997 53.9386 21.885 53.8393 23.2363L53.399 31.9851V32.7262L57.0261 30.8478V30.8444ZM43.3995 32.3516C44.0203 31.9065 44.5588 31.2394 45.0171 30.3491L45.1142 23.3308C43.0879 24.7151 41.6418 25.9503 40.7771 27.0375C39.9112 28.1247 39.4778 29.213 39.4778 30.3002C39.4778 31.2235 39.7058 31.9065 40.1641 32.3516C40.6213 32.7967 41.1124 33.0187 41.635 33.0187C42.1904 33.0187 42.7786 32.7967 43.3995 32.3516ZM82.1705 36.1323L84.4746 38.0608V38.3568H71.2893V38.0608L73.5448 36.1323V20.6111C73.5448 18.4697 72.662 17.3985 70.8976 17.3985C69.7541 17.3985 68.79 17.9597 68.0055 19.0788V36.1312L70.2598 38.0597V38.3557H57.0757V38.0597L59.3798 36.1312V17.6444L55.7041 19.4738L55.5077 19.2256L56.5373 17.7434C57.6153 16.1952 58.4812 15.0169 59.1359 14.2086C59.7895 13.4015 60.4917 12.7344 61.2435 12.2061C61.9953 11.6791 62.7788 11.4161 63.5961 11.4161C64.7724 11.4161 65.6958 11.8282 66.3663 12.6513C67.0358 13.4755 67.371 14.8928 67.371 16.9021C67.371 17.5624 67.3541 18.0884 67.3225 18.4845H67.371C70.8017 13.7396 73.2694 11.3671 74.7719 11.3671C77.3525 11.3671 79.2479 12.1663 80.458 13.7646C81.6671 15.363 82.2721 17.4474 82.2721 20.018L82.1739 36.1312L82.1705 36.1323ZM105.304 22.2436L113 38.0619V38.3579H101.089V38.0619L102.707 36.1836L97.4137 25.3094L96.7273 25.9025V36.1335L99.0313 38.0619V38.3579H85.8461V38.0619L88.1016 36.1335V4.89407L85.0142 3.80688V3.51089L96.4338 0H96.7273V24.8631L97.8539 23.7759C99.1939 22.6887 100.183 21.4695 100.819 20.1182C101.456 18.768 101.776 17.4326 101.776 16.1143C101.776 15.3231 101.67 14.59 101.456 13.9149C101.243 13.2398 100.957 12.7207 100.598 12.3576V12.0616H112.902V12.3086L97.8054 25.0122L105.304 22.2436ZM26.1638 39C26.1605 38.7165 26.1469 38.4365 26.1469 38.1519C26.1469 31.2383 27.2814 24.4703 29.5505 17.8493C31.8206 11.2282 34.8494 5.7365 38.639 1.37521H29.4613C25.8703 5.20486 22.9793 10.4701 20.7836 17.1708C18.5903 23.8715 17.4919 30.866 17.4919 38.1519C17.4919 38.4365 17.5043 38.7165 17.5077 39H26.1627H26.1638ZM9.2003 39H18.106L8.90566 2.7083H0L9.2003 39Z" fill="black"/>
</g>
<defs>
<clipPath id="clip0_615_24411">
<rect width="113" height="39" fill="white"/>
</clipPath>
</defs>
</svg>
