<svg width="20" height="16" viewBox="0 0 20 16" fill="none" xmlns="http://www.w3.org/2000/svg">
<path d="M19.1673 6.16671H0.833984M9.08398 9.83337H4.50065M0.833985 4.51671L0.833984 11.4834C0.833984 12.5101 0.833984 13.0235 1.03381 13.4157C1.20957 13.7607 1.49004 14.0411 1.835 14.2169C2.22717 14.4167 2.74055 14.4167 3.76732 14.4167L16.234 14.4167C17.2607 14.4167 17.7741 14.4167 18.1663 14.2169C18.5113 14.0411 18.7917 13.7607 18.9675 13.4157C19.1673 13.0235 19.1673 12.5101 19.1673 11.4834V4.51671C19.1673 3.48995 19.1673 2.97656 18.9675 2.58439C18.7917 2.23943 18.5113 1.95896 18.1663 1.7832C17.7741 1.58338 17.2607 1.58338 16.234 1.58338L3.76732 1.58337C2.74056 1.58337 2.22717 1.58337 1.835 1.7832C1.49004 1.95896 1.20957 2.23943 1.03381 2.58439C0.833985 2.97656 0.833985 3.48994 0.833985 4.51671Z" stroke="#161616" stroke-width="1.5" stroke-linecap="round" stroke-linejoin="round"/>
</svg>
