<svg width="277" height="256" viewBox="0 0 277 256" fill="none" xmlns="http://www.w3.org/2000/svg">
<path d="M101.898 240.821L275.499 52.7951L127.548 172.292L101.898 240.821Z" fill="#E48900" stroke="black" stroke-width="2" stroke-linejoin="round"/>
<path d="M1.66175 122.155L275.812 52.4433L67.0105 149.366L1.66175 122.155Z" fill="#FFED00" stroke="black" stroke-width="2" stroke-linejoin="round"/>
<path d="M275.811 52.443L127.549 172.293L101.899 240.822L66.9187 149.285L275.811 52.443Z" fill="#FFA723" stroke="black" stroke-width="2" stroke-linejoin="round"/>
<path d="M215.683 101.588C216.508 69.9929 195.602 43.8169 168.988 43.1221C142.374 42.4274 120.131 67.4769 119.306 99.0718C118.481 130.667 139.387 156.843 166.001 157.538C192.615 158.232 214.858 133.183 215.683 101.588Z" fill="black"/>
<path d="M221.759 103.1C222.56 72.4059 202.25 46.9767 176.395 46.3018C150.541 45.6268 128.932 69.9617 128.131 100.655C127.329 131.349 147.639 156.778 173.494 157.453C199.349 158.128 220.957 133.793 221.759 103.1Z" fill="#FFED00" stroke="black" stroke-width="1.05127" stroke-miterlimit="10"/>
<path d="M209.837 81.1609L195.627 79.0241C189.153 84.2767 183.41 91.9788 178.411 102.126C173.754 111.57 170.515 121.642 168.682 132.341L163.467 76.3578L149.679 74.2843L155.245 134.144L181.516 138.094C181.584 137.645 181.627 137.193 181.695 136.744C183.348 125.748 186.724 115.25 191.823 105.25C196.922 95.2495 202.926 87.222 209.836 81.1671L209.837 81.1609Z" fill="#FFA723"/>
<path d="M212.788 79.9983L198.578 77.8615C192.105 83.1141 186.362 90.8162 181.362 100.963C176.706 110.407 173.466 120.479 171.633 131.178L166.419 75.1952L152.63 73.1217L158.197 132.981L184.467 136.932C184.535 136.483 184.578 136.03 184.646 135.581C186.299 124.585 189.676 114.087 194.774 104.087C199.873 94.0869 205.877 86.0594 212.787 80.0045L212.788 79.9983Z" fill="black"/>
<path d="M275.808 52.4429L127.546 172.293C156.235 184.82 172.32 191.844 201.008 204.371L275.808 52.4429Z" fill="#FFED00" stroke="black" stroke-width="2" stroke-linejoin="round"/>
</svg>
