<svg width="20" height="18" viewBox="0 0 20 18" fill="none" xmlns="http://www.w3.org/2000/svg">
<path d="M19 9.27273L16.75 11.5455M19 9.27273L16.75 7M19 9.27273H14.14M13.51 17L11.26 14.7273M13.51 12.5455L11.26 14.8182H16.12M9.82 12.0909H5.86C4.6 12.0909 3.97 12.0909 3.52 12.2727C2.35 12.6364 1.45 13.5455 1.18 14.6364C1 15.1818 1 15.8182 1 17M12.07 5C12.07 7.18182 10.27 9 8.11 9C5.95 9 4.15 7.18182 4.15 5C4.15 2.81818 5.95 1 8.11 1C10.27 1 12.07 2.72727 12.07 5Z" stroke="#161616" stroke-width="1.5" stroke-linecap="round" stroke-linejoin="round"/>
</svg>
