<svg width="21" height="20" viewBox="0 0 21 20" fill="none" xmlns="http://www.w3.org/2000/svg">
<path d="M20.0007 5.7143H0.953125M4.28646 14.2857H4.00074C2.95312 14.2857 2.3817 14.2857 2.00074 14.0952C1.61979 13.9048 1.33408 13.6191 1.1436 13.2381C0.953125 12.8572 0.953125 12.2857 0.953125 11.2381V4.00001C0.953125 2.95239 0.953125 2.38096 1.1436 2.00001C1.33408 1.61906 1.61979 1.33335 2.00074 1.14287C2.3817 0.952393 2.95312 0.952393 4.00074 0.952393H16.9531C18.0007 0.952393 18.5722 0.952393 18.9531 1.14287C19.3341 1.33335 19.6198 1.61906 19.8103 2.00001C20.0007 2.38096 20.0007 2.95239 20.0007 4.00001V11.2381C20.0007 12.2857 20.0007 12.8572 19.8103 13.2381C19.6198 13.6191 19.3341 13.9048 18.9531 14.0952C18.5722 14.2857 18.0007 14.2857 16.9531 14.2857H16.6674M7.61979 16C7.61979 17.0476 8.47693 17.9048 9.52455 17.9048H11.2388C12.3817 17.9048 13.2388 17.0476 13.2388 15.9048C13.2388 14.7619 12.3817 13.9048 11.2388 13.9048H9.61979C8.57217 13.8095 7.61979 12.9524 7.61979 11.8095C7.61979 10.6667 8.47693 9.80954 9.61979 9.80954H11.4293C12.4769 9.80954 13.3341 10.6667 13.3341 11.7143M10.4769 8.57144V9.80954M10.4769 17.8095V19.0476" stroke="#161616" stroke-width="1.5" stroke-linecap="round" stroke-linejoin="round"/>
</svg>
