<svg width="24" height="27" viewBox="0 0 24 27" fill="none" xmlns="http://www.w3.org/2000/svg">
<path fill-rule="evenodd" clip-rule="evenodd" d="M0.683365 1.49547C0.56525 1.76297 0.5 2.09074 0.5 2.47199V24.588C0.5 24.9701 0.56533 25.2979 0.683583 25.5653L12.7175 13.5296L0.683365 1.49547ZM1.37858 26.2845C1.82464 26.4753 2.40651 26.4148 3.041 26.055L17.1981 18.0102L13.4246 14.2367L1.37858 26.2845ZM18.1005 17.4984L22.542 14.975C23.939 14.18 23.939 12.881 22.542 12.087L18.0986 9.56211L14.1317 13.5296L18.1005 17.4984ZM17.1968 9.0497L3.041 1.006C2.40647 0.64542 1.82457 0.585256 1.3785 0.776395L13.4246 12.8225L17.1968 9.0497Z" fill="#FFED00"/>
</svg>
