<svg width="22" height="22" viewBox="0 0 22 22" fill="none" xmlns="http://www.w3.org/2000/svg">
<g clip-path="url(#clip0_6611_17845)">
<path d="M12.2116 13.956C13.0839 12.5022 14.6345 11.5331 16.379 11.5331C19.0927 11.5331 21.2248 13.6652 21.2248 16.3789C21.2248 19.0926 19.0927 21.2247 16.379 21.2247C14.5376 21.2247 12.9869 20.2555 12.2116 18.8018M16.379 18.3172L18.3173 16.3789M18.3173 16.3789L16.379 14.4406M18.3173 16.3789H11.5332" stroke="#161616" stroke-width="1.5" stroke-linecap="round" stroke-linejoin="round"/>
<path d="M2.32599 17.2511C2.03524 17.2511 1.74449 17.2511 1.64758 17.1542C1.64758 17.0573 1.64758 16.7665 1.64758 16.4758V15.7004C1.64758 15.4097 1.64758 15.1189 1.74449 15.022C1.84141 15.022 2.13216 15.022 2.42291 15.022H9.40088C9.4978 14.4405 9.69163 13.9559 9.88546 13.3744H7.94714V7.36564H11.1454V11.63C11.63 11.1454 12.1145 10.6608 12.793 10.2731V7.36564H15.5066V9.30396C15.7974 9.30396 16.185 9.20705 16.4758 9.20705C16.6696 9.20705 16.8634 9.20705 17.0573 9.20705V7.36564C17.4449 7.36564 17.7357 7.36564 18.0264 7.17181C18.3172 6.97797 18.6079 6.68722 18.8018 6.39648C18.9956 6.00881 18.9956 5.62114 18.9956 5.03965V3.97357C18.9956 3.48899 18.9956 3.10132 18.8987 2.81057C18.8018 2.51982 18.6079 2.22907 18.3172 2.03524C18.0264 1.84141 17.7357 1.74449 17.2511 1.64758L10.0793 0.0969163C9.78855 0 9.69163 0 9.59471 0C9.4978 0 9.40088 0 9.30396 0C9.20705 0 9.11013 0 8.9163 0.0969163L1.84141 1.64758C1.35683 1.74449 1.06608 1.84141 0.77533 2.03524C0.484581 2.22907 0.290749 2.51982 0.0969163 2.81057C0 3.10132 0 3.39207 0 3.97357V5.03965C0 5.62114 0 6.00881 0.193833 6.39648C0.387665 6.68722 0.678414 6.97797 0.969163 7.17181C1.25991 7.26872 1.55066 7.36564 1.93833 7.36564V13.4714C1.55066 13.4714 1.25991 13.4714 0.969163 13.6652C0.678414 13.859 0.387665 14.1498 0.193833 14.4405C0 14.8282 0 15.1189 0 15.7974V16.5727C0 17.1542 0 17.5418 0.193833 17.9295C0.387665 18.2203 0.678414 18.511 0.969163 18.7048C1.35683 18.8987 1.74449 18.8987 2.32599 18.8987H9.69163C9.4978 18.4141 9.40088 17.8326 9.30396 17.2511H2.32599ZM6.20264 13.4714H3.5859V7.36564H6.29956V13.4714H6.20264ZM1.64758 5.71806C1.64758 5.62115 1.64758 5.3304 1.64758 5.03965V3.97357C1.64758 3.77974 1.64758 3.48899 1.74449 3.39207C1.84141 3.39207 2.03524 3.29515 2.22907 3.29515L9.30396 1.74449H9.4978L16.7665 3.39207C16.9604 3.39207 17.2511 3.48899 17.348 3.5859C17.348 3.68282 17.348 3.87665 17.348 4.1674V5.23348C17.348 5.52423 17.348 5.81498 17.2511 5.91189C17.1542 5.91189 16.8634 5.91189 16.5727 5.91189H2.32599C2.03524 5.71806 1.74449 5.71806 1.64758 5.71806Z" fill="#161616"/>
</g>
<defs>
<clipPath id="clip0_6611_17845">
<rect width="22" height="22" fill="white"/>
</clipPath>
</defs>
</svg>
