<svg width="322" height="187" viewBox="0 0 322 187" fill="none" xmlns="http://www.w3.org/2000/svg">
<rect width="163.399" height="157.256" rx="19.657" transform="matrix(-0.999014 -0.0444006 -0.066519 0.997785 320.906 24.2258)" fill="#FFA723" stroke="#FFA723" stroke-width="2"/>
<rect width="163.399" height="157.256" rx="19.657" transform="matrix(-0.999014 -0.0444006 -0.066519 0.997785 316.322 19.104)" fill="#FFED00" stroke="black" stroke-width="2"/>
<g filter="url(#filter0_i_6638_3966)">
<rect width="126.542" height="31.9426" rx="12.1017" transform="matrix(-0.999014 -0.0444006 -0.066519 0.997785 295.371 37.8457)" fill="#FFED00"/>
<path d="M213.61 44.6894L212.878 55.6665L211.107 55.5878L206.427 47.8806L206.335 47.8765L205.837 55.3536L203.846 55.2651L204.578 44.288L206.359 44.3672L211.034 52.0796L211.131 52.0839L211.629 44.6014L213.61 44.6894ZM218.093 56.0596C217.288 56.0238 216.602 55.8159 216.035 55.4359C215.469 55.056 215.044 54.5407 214.76 53.8902C214.481 53.2398 214.369 52.4894 214.426 51.639C214.483 50.7885 214.693 50.0507 215.058 49.4254C215.426 48.8002 215.917 48.3239 216.531 47.9963C217.145 47.6688 217.855 47.523 218.66 47.5587C219.465 47.5945 220.15 47.8024 220.717 48.1824C221.284 48.5624 221.707 49.0793 221.986 49.7333C222.269 50.3874 222.382 51.1396 222.326 51.9901C222.269 52.8405 222.057 53.5765 221.689 54.1981C221.324 54.8198 220.835 55.2945 220.221 55.622C219.607 55.9495 218.898 56.0954 218.093 56.0596ZM218.207 54.5057C218.644 54.5251 219.017 54.4216 219.326 54.1952C219.636 53.9653 219.875 53.6498 220.046 53.2488C220.22 52.848 220.323 52.3974 220.357 51.8972C220.39 51.3933 220.347 50.9345 220.228 50.5206C220.112 50.1033 219.915 49.7667 219.638 49.5106C219.361 49.2546 219.004 49.1169 218.568 49.0975C218.121 49.0776 217.74 49.1826 217.427 49.4124C217.118 49.6423 216.876 49.9595 216.702 50.3639C216.532 50.7649 216.43 51.2173 216.396 51.7212C216.363 52.2214 216.404 52.6784 216.52 53.0921C216.639 53.506 216.838 53.8409 217.115 54.097C217.396 54.3496 217.76 54.4858 218.207 54.5057ZM223.249 56.1275L223.798 47.8946L225.655 47.9771L225.561 49.3761L225.658 49.3804C225.861 48.9163 226.17 48.5609 226.585 48.3141C227 48.0638 227.483 47.9509 228.034 47.9754C228.592 48.0002 229.053 48.1569 229.418 48.4454C229.787 48.7306 230.034 49.109 230.16 49.5805L230.246 49.5843C230.459 49.135 230.791 48.7842 231.242 48.5319C231.697 48.2762 232.223 48.1616 232.821 48.1881C233.579 48.2218 234.182 48.4887 234.63 48.9889C235.077 49.489 235.27 50.1982 235.209 51.1166L234.841 56.6427L232.893 56.5561L233.241 51.3301C233.275 50.8192 233.164 50.4397 232.908 50.1918C232.652 49.9403 232.327 49.8058 231.934 49.7883C231.465 49.7675 231.088 49.8977 230.804 50.1789C230.524 50.4568 230.368 50.8279 230.337 51.2925L229.995 56.4273L228.09 56.3426L228.443 51.0363C228.472 50.6111 228.365 50.2659 228.125 50.0007C227.888 49.7357 227.563 49.5941 227.152 49.5758C226.873 49.5634 226.614 49.6236 226.376 49.7563C226.137 49.8855 225.942 50.0757 225.789 50.327C225.636 50.5746 225.548 50.8682 225.525 51.2076L225.192 56.2138L223.249 56.1275ZM236.444 56.7139L237.176 45.7368L239.118 45.8231L238.845 49.9288L238.925 49.9324C239.039 49.7368 239.194 49.5304 239.392 49.3134C239.589 49.0928 239.849 48.9091 240.171 48.7621C240.494 48.6116 240.896 48.547 241.379 48.5685C242.016 48.5968 242.579 48.7849 243.069 49.1328C243.563 49.4773 243.939 49.9725 244.197 50.6183C244.46 51.2607 244.56 52.0393 244.499 52.9541C244.439 53.8581 244.239 54.6198 243.9 55.239C243.561 55.8583 243.125 56.3227 242.591 56.6323C242.057 56.9419 241.466 57.0823 240.819 57.0535C240.347 57.0325 239.96 56.9365 239.659 56.7654C239.358 56.5944 239.121 56.3939 238.946 56.1639C238.775 55.9305 238.644 55.7115 238.554 55.5067L238.441 55.5017L238.354 56.7988L236.444 56.7139ZM238.624 52.6822C238.588 53.2146 238.632 53.6842 238.756 54.0911C238.883 54.4982 239.082 54.8206 239.353 55.0585C239.628 55.2929 239.971 55.4192 240.383 55.4375C240.812 55.4566 241.179 55.3582 241.484 55.1424C241.79 54.923 242.029 54.6165 242.202 54.2228C242.38 53.8257 242.485 53.3699 242.52 52.8553C242.554 52.3443 242.511 51.8873 242.39 51.4841C242.27 51.081 242.073 50.7604 241.798 50.5224C241.523 50.2844 241.169 50.1558 240.736 50.1365C240.321 50.1181 239.962 50.2114 239.657 50.4165C239.353 50.6216 239.113 50.9173 238.936 51.3037C238.763 51.6903 238.659 52.1497 238.624 52.6822ZM245.424 57.113L245.973 48.8802L247.856 48.9639L247.765 50.336L247.851 50.3398C248.033 49.8713 248.315 49.5165 248.697 49.2754C249.083 49.0309 249.512 48.9192 249.984 48.9402C250.091 48.9449 250.211 48.9556 250.342 48.9722C250.478 48.9854 250.59 49.0029 250.678 49.0248L250.559 50.8096C250.479 50.7774 250.35 50.7466 250.172 50.7172C249.999 50.6844 249.829 50.6643 249.665 50.657C249.311 50.6413 248.987 50.7039 248.694 50.845C248.405 50.9827 248.171 51.182 247.992 51.4428C247.813 51.7036 247.712 52.0092 247.689 52.3593L247.366 57.1994L245.424 57.113ZM254.261 57.6671C253.435 57.6304 252.732 57.4271 252.154 57.0574C251.58 56.6842 251.153 56.1742 250.873 55.5274C250.593 54.8771 250.482 54.1213 250.54 53.2602C250.596 52.4133 250.807 51.6772 251.171 51.0519C251.54 50.4232 252.027 49.9431 252.634 49.6117C253.242 49.2767 253.939 49.1267 254.726 49.1617C255.234 49.1843 255.708 49.2878 256.148 49.4722C256.591 49.6531 256.975 49.9211 257.3 50.276C257.628 50.631 257.874 51.0756 258.04 51.6098C258.205 52.1404 258.264 52.7666 258.216 53.4884L258.176 54.0834L251.42 53.7831L251.507 52.4753L256.401 52.6928C256.422 52.321 256.364 51.9869 256.226 51.6905C256.088 51.3905 255.883 51.1502 255.612 50.9697C255.344 50.7894 255.024 50.6909 254.652 50.6744C254.255 50.6567 253.9 50.7377 253.586 50.9173C253.273 51.0933 253.022 51.333 252.833 51.6364C252.648 51.9364 252.542 52.2704 252.513 52.6383L252.437 53.7799C252.405 54.2588 252.466 54.6736 252.618 55.0244C252.771 55.3717 252.998 55.6434 253.301 55.8396C253.604 56.0323 253.967 56.138 254.389 56.1568C254.671 56.1693 254.93 56.1414 255.164 56.073C255.398 56.0009 255.605 55.8901 255.784 55.7403C255.962 55.5906 256.102 55.4015 256.204 55.173L258.004 55.4573C257.858 55.931 257.611 56.3394 257.266 56.6824C256.924 57.022 256.497 57.2791 255.987 57.4535C255.477 57.6243 254.902 57.6955 254.261 57.6671Z" fill="black"/>
<rect width="126.542" height="31.9426" rx="12.1017" transform="matrix(-0.999014 -0.0444006 -0.066519 0.997785 292.838 75.8467)" fill="#FFED00"/>
<path d="M224.516 83.2876L223.784 94.2648L221.793 94.1763L222.525 83.1991L224.516 83.2876ZM229.211 94.506L225.487 94.3404L226.219 83.3633L230.018 83.5321C231.109 83.5806 232.032 83.842 232.786 84.3164C233.544 84.7873 234.107 85.4413 234.475 86.2783C234.842 87.1154 234.988 88.1039 234.912 89.2437C234.836 90.3872 234.558 91.3604 234.077 92.1633C233.6 92.9664 232.948 93.57 232.121 93.974C231.297 94.3783 230.327 94.5556 229.211 94.506ZM227.593 92.7084L229.229 92.7811C229.995 92.8151 230.643 92.7042 231.173 92.4482C231.703 92.1886 232.116 91.7859 232.411 91.2399C232.706 90.6903 232.881 89.9957 232.937 89.156C232.993 88.3162 232.911 87.6137 232.69 87.0484C232.47 86.4795 232.117 86.0463 231.63 85.7487C231.148 85.4478 230.535 85.2807 229.791 85.2477L228.095 85.1723L227.593 92.7084Z" fill="black"/>
</g>
<rect width="134.331" height="44.2261" rx="21.1779" transform="matrix(-0.999014 -0.0444006 -0.066519 0.997785 298.48 126.01)" fill="#FFA723"/>
<rect x="-1.06553" y="0.953385" width="132.331" height="42.2261" rx="20.1779" transform="matrix(-0.999014 -0.0444006 -0.066519 0.997785 291.074 119.919)" fill="#FFA723"/>
<rect x="-1.06553" y="0.953385" width="132.331" height="42.2261" rx="20.1779" transform="matrix(-0.999014 -0.0444006 -0.066519 0.997785 291.074 119.919)" stroke="black" stroke-width="2"/>
<rect width="134.331" height="44.2261" rx="21.1779" transform="matrix(-0.999014 -0.0444006 -0.066519 0.997785 291.77 115.142)" fill="black"/>
<path d="M188.904 141.206L190.075 123.643L201.512 124.151L201.335 126.818L193.083 126.451L192.765 131.22L200.424 131.56L200.246 134.227L192.587 133.887L192.268 138.681L200.588 139.05L200.41 141.717L188.904 141.206ZM206.624 134.252L206.109 141.971L203.001 141.833L203.879 128.66L206.85 128.792L206.701 131.03L206.855 131.037C207.208 130.313 207.73 129.749 208.423 129.344C209.122 128.939 209.964 128.758 210.948 128.802C211.858 128.843 212.638 129.072 213.288 129.491C213.943 129.91 214.432 130.497 214.755 131.251C215.084 132.005 215.21 132.908 215.134 133.96L214.575 142.347L211.467 142.209L211.994 134.302C212.053 133.421 211.87 132.722 211.445 132.205C211.026 131.687 210.416 131.411 209.614 131.375C209.07 131.351 208.579 131.449 208.139 131.671C207.706 131.886 207.354 132.212 207.084 132.647C206.819 133.083 206.666 133.618 206.624 134.252ZM229.468 129.797L223.893 142.761L220.459 142.609L216.64 129.227L219.954 129.374L222.333 139.294L222.47 139.3L226.162 129.65L229.468 129.797ZM230.288 143.045L231.166 129.873L234.274 130.011L233.396 143.184L230.288 143.045ZM232.853 128.073C232.361 128.051 231.948 127.869 231.615 127.527C231.282 127.18 231.131 126.775 231.162 126.312C231.193 125.843 231.397 125.453 231.774 125.143C232.151 124.827 232.586 124.68 233.078 124.702C233.576 124.724 233.988 124.909 234.315 125.256C234.649 125.598 234.8 126.003 234.768 126.472C234.737 126.935 234.534 127.324 234.157 127.64C233.786 127.951 233.351 128.095 232.853 128.073ZM239.916 143.74C239.081 143.703 238.338 143.521 237.688 143.194C237.044 142.861 236.547 142.392 236.197 141.786C235.853 141.18 235.709 140.445 235.767 139.582C235.817 138.838 235.995 138.23 236.302 137.756C236.609 137.282 237.01 136.91 237.505 136.64C237.999 136.369 238.549 136.173 239.154 136.051C239.766 135.923 240.394 135.839 241.04 135.799C241.818 135.754 242.45 135.71 242.935 135.668C243.42 135.621 243.776 135.534 244.003 135.406C244.236 135.273 244.362 135.058 244.382 134.761L244.385 134.709C244.428 134.063 244.27 133.555 243.91 133.183C243.55 132.811 243.009 132.61 242.288 132.578C241.527 132.544 240.912 132.683 240.443 132.995C239.98 133.307 239.657 133.685 239.472 134.13L236.597 133.589C236.879 132.799 237.302 132.147 237.864 131.633C238.427 131.113 239.098 130.736 239.877 130.501C240.657 130.26 241.508 130.16 242.429 130.201C243.065 130.23 243.692 130.332 244.312 130.509C244.932 130.685 245.491 130.957 245.989 131.323C246.487 131.683 246.874 132.162 247.15 132.759C247.432 133.357 247.544 134.093 247.485 134.968L246.898 143.784L243.91 143.651L244.03 141.841L243.927 141.837C243.714 142.194 243.425 142.525 243.06 142.83C242.701 143.13 242.258 143.365 241.73 143.537C241.208 143.703 240.603 143.77 239.916 143.74ZM240.876 141.495C241.499 141.522 242.049 141.423 242.523 141.198C242.998 140.967 243.372 140.651 243.645 140.25C243.925 139.85 244.081 139.406 244.113 138.92L244.216 137.368C244.114 137.444 243.943 137.511 243.704 137.569C243.47 137.628 243.208 137.676 242.919 137.715C242.629 137.754 242.343 137.787 242.06 137.814C241.776 137.842 241.531 137.865 241.323 137.885C240.855 137.927 240.433 138.011 240.057 138.138C239.681 138.265 239.379 138.452 239.15 138.7C238.921 138.942 238.794 139.263 238.767 139.663C238.729 140.235 238.909 140.676 239.308 140.986C239.706 141.296 240.229 141.466 240.876 141.495ZM249.57 143.902L250.448 130.73L253.462 130.864L253.315 133.059L253.453 133.065C253.744 132.316 254.195 131.748 254.806 131.362C255.424 130.971 256.11 130.792 256.866 130.826C257.038 130.833 257.229 130.85 257.44 130.877C257.656 130.898 257.835 130.926 257.977 130.961L257.786 133.817C257.658 133.765 257.451 133.716 257.167 133.669C256.89 133.617 256.619 133.584 256.356 133.573C255.789 133.548 255.271 133.648 254.803 133.874C254.34 134.094 253.966 134.413 253.68 134.83C253.393 135.247 253.232 135.736 253.194 136.296L252.678 144.04L249.57 143.902Z" fill="#FFED00"/>
<path d="M130.18 180.502C134.327 180.502 137.721 177.108 137.721 172.96C137.721 168.813 134.327 165.419 130.18 165.419C126.032 165.419 122.639 168.813 122.639 172.96C122.639 177.108 126.032 180.502 130.18 180.502Z" fill="#FFED00"/>
<path d="M137.796 172.961C137.796 177.184 134.403 180.577 130.18 180.577C126.937 180.577 124.147 178.541 123.016 175.6C124.75 176.807 126.786 177.485 129.048 177.485C132.668 177.485 135.835 175.675 137.796 172.961Z" fill="#FFA723"/>
<path d="M130.18 180.502C134.327 180.502 137.721 177.108 137.721 172.96C137.721 168.813 134.327 165.419 130.18 165.419C126.032 165.419 122.639 168.813 122.639 172.96C122.639 177.108 126.032 180.502 130.18 180.502Z" stroke="#161616" stroke-width="1.47286" stroke-miterlimit="10"/>
<path d="M106.331 171.996C150.065 164.482 179.404 122.972 171.89 79.2381C164.377 35.5043 122.867 6.16584 79.1327 13.6793C35.399 21.1927 6.06048 62.7029 13.5739 106.437C21.0873 150.17 62.5976 179.509 106.331 171.996Z" fill="#FFED00"/>
<path d="M172.356 103.907L172.28 104.345C164.573 148.495 122.47 178.082 78.3195 170.375C43.7859 164.346 18.3135 137.377 12.2899 104.793C28.0375 120.38 48.635 131.409 72.2403 135.529C110.052 142.13 146.993 129.21 172.356 103.907Z" fill="#FFA723"/>
<path d="M106.331 171.996C150.065 164.482 179.404 122.972 171.89 79.2381C164.377 35.5043 122.867 6.16584 79.1327 13.6793C35.399 21.1927 6.06048 62.7029 13.5739 106.437C21.0873 150.17 62.5976 179.509 106.331 171.996Z" stroke="#161616" stroke-width="2" stroke-miterlimit="10"/>
<path d="M106.664 93.9613C116.066 92.3459 122.624 83.3401 120.971 73.7186C119.355 64.3159 110.349 57.7586 100.728 59.4116C91.3252 61.027 84.768 70.0328 86.4209 79.6542C88.0739 89.2757 97.0421 95.6142 106.664 93.9613Z" fill="#161616"/>
<path d="M98.4755 46.2912C76.6086 50.0479 61.7582 71.0593 65.5149 92.9261C67.506 104.516 74.3386 114.148 83.488 120.23C83.7442 120.411 83.7442 120.411 84.0005 120.592C92.0497 125.513 101.91 127.871 111.969 126.143C122.028 124.415 130.573 119.12 136.481 111.576C136.7 111.539 136.662 111.32 136.843 111.064C143.694 102.458 146.92 91.0974 144.892 79.2893C141.354 57.3848 120.342 42.5345 98.4755 46.2912ZM99.2268 50.6646C118.907 47.2835 137.394 60.5415 140.737 80.0031C142.352 89.4058 140.138 98.7912 135.104 106.184C131.217 101.9 125.224 99.7775 119.32 100.792L96.797 104.661C90.8929 105.676 86.1709 109.639 83.7173 115.013C76.5051 109.723 71.2851 101.615 69.6697 92.2124C66.3262 72.7508 79.5466 54.0456 99.2268 50.6646Z" fill="#161616"/>
<path d="M27.3272 69.3915C34.4271 69.3915 40.127 63.6915 40.127 56.5916C40.127 49.4917 34.4271 43.7917 27.3272 43.7917C20.2273 43.7917 14.5273 49.4917 14.5273 56.5916C14.5273 63.6915 20.2273 69.3915 27.3272 69.3915Z" fill="#FFED00"/>
<path d="M40.3228 56.4915C40.3228 63.6914 34.5228 69.5913 27.3229 69.5913C21.723 69.5913 16.923 66.0914 15.123 61.0914C18.023 63.0914 21.623 64.2914 25.4229 64.2914C31.6229 64.2914 37.0228 61.1914 40.3228 56.4915Z" fill="#FFA723"/>
<path d="M27.3272 69.3915C34.4271 69.3915 40.127 63.6915 40.127 56.5916C40.127 49.4917 34.4271 43.7917 27.3272 43.7917C20.2273 43.7917 14.5273 49.4917 14.5273 56.5916C14.5273 63.6915 20.2273 69.3915 27.3272 69.3915Z" stroke="#161616" stroke-width="1.47286" stroke-miterlimit="10"/>
<defs>
<filter id="filter0_i_6638_3966" x="164.295" y="32.2271" width="131.076" height="75.4915" filterUnits="userSpaceOnUse" color-interpolation-filters="sRGB">
<feFlood flood-opacity="0" result="BackgroundImageFix"/>
<feBlend mode="normal" in="SourceGraphic" in2="BackgroundImageFix" result="shape"/>
<feColorMatrix in="SourceAlpha" type="matrix" values="0 0 0 0 0 0 0 0 0 0 0 0 0 0 0 0 0 0 127 0" result="hardAlpha"/>
<feOffset dx="-2.45712" dy="2.45712"/>
<feComposite in2="hardAlpha" operator="arithmetic" k2="-1" k3="1"/>
<feColorMatrix type="matrix" values="0 0 0 0 1 0 0 0 0 0.654902 0 0 0 0 0.137255 0 0 0 1 0"/>
<feBlend mode="normal" in2="shape" result="effect1_innerShadow_6638_3966"/>
</filter>
</defs>
</svg>
