<svg width="24" height="24" viewBox="0 0 24 24" fill="none" xmlns="http://www.w3.org/2000/svg">
<g clip-path="url(#clip0_40_643)">
<mask id="mask0_40_643" style="mask-type:luminance" maskUnits="userSpaceOnUse" x="0" y="0" width="24" height="24">
<path d="M24 12C24 5.37258 18.6274 0 12 0C5.37258 0 0 5.37258 0 12C0 18.6274 5.37258 24 12 24C18.6274 24 24 18.6274 24 12Z" fill="white"/>
</mask>
<g mask="url(#mask0_40_643)">
<path d="M24 12C24 5.37258 18.6274 0 12 0C5.37258 0 0 5.37258 0 12C0 18.6274 5.37258 24 12 24C18.6274 24 24 18.6274 24 12Z" fill="white"/>
<mask id="mask1_40_643" style="mask-type:luminance" maskUnits="userSpaceOnUse" x="0" y="0" width="24" height="24">
<path d="M12 24C18.6274 24 24 18.6274 24 12C24 5.37258 18.6274 0 12 0C5.37258 0 0 5.37258 0 12C0 18.6274 5.37258 24 12 24Z" fill="white"/>
</mask>
<g mask="url(#mask1_40_643)">
</g>
<path d="M12 27C20.2843 27 27 20.2843 27 12C27 3.71573 20.2843 -3 12 -3C3.71573 -3 -3 3.71573 -3 12C-3 20.2843 3.71573 27 12 27Z" fill="black"/>
<path d="M13.5561 10.1534V8.3819H17.5866V5.5874H6.40113V8.3819H10.4421V10.1534C7.05663 10.3169 4.51562 10.9964 4.51562 11.8034C4.51562 12.6104 7.05363 13.2929 10.4421 13.4534V19.3034H13.5561V13.4534C16.9416 13.2914 19.4826 12.6119 19.4826 11.8034C19.4826 10.9949 16.9491 10.3169 13.5561 10.1534ZM11.9991 12.9374C8.33312 12.9374 5.36162 12.3704 5.36162 11.6879C5.36162 11.1014 7.52612 10.6079 10.4391 10.4759V12.4769C10.9401 12.4994 11.4606 12.5129 11.9961 12.5129C12.5316 12.5129 13.0551 12.4994 13.5531 12.4769V10.4759C16.4661 10.6079 18.6306 11.1014 18.6306 11.6879C18.6366 12.3779 15.6651 12.9374 11.9991 12.9374Z" fill="white"/>
</g>
</g>
<defs>
<clipPath id="clip0_40_643">
<rect width="24" height="24" fill="white"/>
</clipPath>
</defs>
</svg>
