<svg width="23" height="22" viewBox="0 0 23 22" fill="none" xmlns="http://www.w3.org/2000/svg">
<path d="M10.0257 1.65141L9.28634 0.978061L9.28631 0.978091L10.0257 1.65141ZM12.9743 1.65141L13.7137 0.978087L13.7136 0.978061L12.9743 1.65141ZM13.9915 2.76833L14.7309 2.09505L14.7308 2.095L13.9915 2.76833ZM15.5589 3.41757L15.6056 4.41648L15.6056 4.41648L15.5589 3.41757ZM17.068 3.34705L17.1146 4.34596L17.1146 4.34596L17.068 3.34705ZM19.153 5.43205L20.1519 5.47878L20.1519 5.47873L19.153 5.43205ZM19.0824 6.94108L18.0835 6.89436L18.0835 6.8944L19.0824 6.94108ZM19.7316 8.50849L20.405 7.76915L20.4049 7.76912L19.7316 8.50849ZM20.8485 9.52566L20.1752 10.265L20.1752 10.265L20.8485 9.52566ZM20.8485 12.4743L20.1752 11.735L20.1752 11.735L20.8485 12.4743ZM19.7316 13.4915L20.4049 14.2309L20.405 14.2308L19.7316 13.4915ZM19.0824 15.0589L18.0835 15.1056L18.0835 15.1057L19.0824 15.0589ZM19.153 16.568L20.1519 16.5213L20.1519 16.5212L19.153 16.568ZM17.068 18.653L17.0212 19.6519L17.0213 19.6519L17.068 18.653ZM15.5589 18.5824L15.6057 17.5835L15.6056 17.5835L15.5589 18.5824ZM13.9915 19.2316L14.7308 19.905L14.7309 19.9049L13.9915 19.2316ZM12.9743 20.3485L12.235 19.6752L12.235 19.6752L12.9743 20.3485ZM10.0257 20.3485L10.765 19.6752L10.765 19.6752L10.0257 20.3485ZM9.00849 19.2316L8.26912 19.9049L8.26915 19.905L9.00849 19.2316ZM7.44108 18.5824L7.3944 17.5835L7.39436 17.5835L7.44108 18.5824ZM5.93204 18.653L5.97872 19.6519L5.97877 19.6519L5.93204 18.653ZM3.84705 16.568L4.84596 16.6146L4.84596 16.6146L3.84705 16.568ZM3.91757 15.0589L4.91648 15.1056L4.91648 15.1056L3.91757 15.0589ZM3.26833 13.4915L2.595 14.2308L2.59505 14.2309L3.26833 13.4915ZM2.15141 12.4743L1.47806 13.2136L1.47809 13.2137L2.15141 12.4743ZM2.15141 9.52566L1.47809 8.78631L1.47806 8.78634L2.15141 9.52566ZM3.26833 8.50849L2.59501 7.76914L2.59501 7.76914L3.26833 8.50849ZM3.91757 6.94108L2.91866 6.98776L2.91866 6.98777L3.91757 6.94108ZM3.84705 5.43204L4.84596 5.38536L4.84596 5.38535L3.84705 5.43204ZM5.93205 3.34705L5.88536 4.34596L5.88537 4.34596L5.93205 3.34705ZM7.44108 3.41757L7.48777 2.41866L7.48776 2.41866L7.44108 3.41757ZM9.00849 2.76833L8.26914 2.09501L8.26914 2.09501L9.00849 2.76833ZM9.2156 10.2929C8.82508 9.90235 8.19191 9.90235 7.80139 10.2929C7.41086 10.6834 7.41086 11.3166 7.80139 11.7071L9.2156 10.2929ZM10.5026 12.9941L9.79547 13.7012C9.983 13.8887 10.2374 13.9941 10.5026 13.9941C10.7678 13.9941 11.0221 13.8887 11.2097 13.7012L10.5026 12.9941ZM15.1978 9.71301C15.5884 9.32248 15.5884 8.68932 15.1978 8.29879C14.8073 7.90827 14.1742 7.90827 13.7836 8.29879L15.1978 9.71301ZM10.765 2.32477C11.1594 1.89174 11.8406 1.89174 12.235 2.32477L13.7136 0.978061C12.5259 -0.32602 10.4741 -0.32602 9.28634 0.978061L10.765 2.32477ZM12.235 2.32474L13.2521 3.44166L14.7308 2.095L13.7137 0.978087L12.235 2.32474ZM13.2521 3.4416C13.8523 4.10078 14.7151 4.4581 15.6056 4.41648L15.5123 2.41866C15.2165 2.43248 14.9301 2.31381 14.7309 2.09505L13.2521 3.4416ZM15.6056 4.41648L17.1146 4.34596L17.0213 2.34814L15.5123 2.41866L15.6056 4.41648ZM17.1146 4.34596C17.6996 4.31862 18.1814 4.80038 18.1541 5.38537L20.1519 5.47873C20.2342 3.71675 18.7831 2.26579 17.0213 2.34814L17.1146 4.34596ZM18.1541 5.38532L18.0835 6.89436L20.0813 6.98781L20.1519 5.47878L18.1541 5.38532ZM18.0835 6.8944C18.0418 7.78488 18.3992 8.64761 19.0584 9.24786L20.4049 7.76912C20.1861 7.56984 20.0675 7.28342 20.0813 6.98777L18.0835 6.8944ZM19.0583 9.24783L20.1752 10.265L21.5219 8.78632L20.405 7.76915L19.0583 9.24783ZM20.1752 10.265C20.6083 10.6594 20.6083 11.3406 20.1752 11.735L21.5219 13.2137C22.826 12.0259 22.826 9.97404 21.5219 8.78631L20.1752 10.265ZM20.1752 11.735L19.0583 12.7522L20.405 14.2308L21.5219 13.2136L20.1752 11.735ZM19.0584 12.7521C18.3992 13.3523 18.0419 14.2151 18.0835 15.1056L20.0813 15.0123C20.0675 14.7165 20.1861 14.4301 20.4049 14.2309L19.0584 12.7521ZM18.0835 15.1057L18.1541 16.6147L20.1519 16.5212L20.0813 15.0122L18.0835 15.1057ZM18.1541 16.6146C18.1814 17.1996 17.6996 17.6814 17.1146 17.6541L17.0213 19.6519C18.7832 19.7342 20.2342 18.2832 20.1519 16.5213L18.1541 16.6146ZM17.1147 17.6541L15.6057 17.5835L15.5122 19.5813L17.0212 19.6519L17.1147 17.6541ZM15.6056 17.5835C14.7151 17.5419 13.8523 17.8992 13.2521 18.5584L14.7309 19.9049C14.9301 19.6861 15.2165 19.5675 15.5123 19.5813L15.6056 17.5835ZM13.2522 18.5583L12.235 19.6752L13.7136 21.0219L14.7308 19.905L13.2522 18.5583ZM12.235 19.6752C11.8406 20.1083 11.1594 20.1083 10.765 19.6752L9.28631 21.0219C10.474 22.326 12.5259 22.326 13.7137 21.0219L12.235 19.6752ZM10.765 19.6752L9.74783 18.5583L8.26915 19.905L9.28632 21.0219L10.765 19.6752ZM9.74786 18.5584C9.14761 17.8992 8.28488 17.5418 7.3944 17.5835L7.48777 19.5813C7.78342 19.5675 8.06984 19.6861 8.26912 19.9049L9.74786 18.5584ZM7.39436 17.5835L5.88532 17.6541L5.97877 19.6519L7.48781 19.5813L7.39436 17.5835ZM5.88536 17.6541C5.30039 17.6814 4.81862 17.1996 4.84596 16.6146L2.84814 16.5213C2.76579 18.2831 4.21674 19.7342 5.97872 19.6519L5.88536 17.6541ZM4.84596 16.6146L4.91648 15.1056L2.91866 15.0123L2.84814 16.5213L4.84596 16.6146ZM4.91648 15.1056C4.9581 14.2151 4.60078 13.3523 3.9416 12.7521L2.59505 14.2309C2.81381 14.4301 2.93248 14.7165 2.91866 15.0123L4.91648 15.1056ZM3.94166 12.7521L2.82474 11.735L1.47809 13.2137L2.595 14.2308L3.94166 12.7521ZM2.82477 11.735C2.39174 11.3406 2.39174 10.6594 2.82477 10.265L1.47806 8.78634C0.17398 9.97406 0.17398 12.0259 1.47806 13.2136L2.82477 11.735ZM2.82474 10.265L3.94165 9.24784L2.59501 7.76914L1.47809 8.78631L2.82474 10.265ZM3.94165 9.24784C4.60076 8.6476 4.9581 7.78488 4.91648 6.8944L2.91866 6.98777C2.93248 7.28342 2.81384 7.56985 2.59501 7.76914L3.94165 9.24784ZM4.91648 6.8944L4.84596 5.38536L2.84814 5.47872L2.91866 6.98776L4.91648 6.8944ZM4.84596 5.38535C4.81862 4.80036 5.30036 4.31862 5.88536 4.34596L5.97874 2.34814C4.21677 2.26579 2.76579 3.71677 2.84814 5.47873L4.84596 5.38535ZM5.88537 4.34596L7.3944 4.41648L7.48776 2.41866L5.97873 2.34814L5.88537 4.34596ZM7.3944 4.41648C8.28488 4.4581 9.1476 4.10076 9.74784 3.44165L8.26914 2.09501C8.06985 2.31384 7.78342 2.43248 7.48777 2.41866L7.3944 4.41648ZM9.74784 3.44165L10.765 2.32474L9.28631 0.978091L8.26914 2.09501L9.74784 3.44165ZM7.80139 11.7071L9.79547 13.7012L11.2097 12.287L9.2156 10.2929L7.80139 11.7071ZM11.2097 13.7012L15.1978 9.71301L13.7836 8.29879L9.79547 12.287L11.2097 13.7012Z" fill="#FFC757"/>
</svg>
