<svg width="372" height="429" viewBox="0 0 372 429" fill="none" xmlns="http://www.w3.org/2000/svg">
<path d="M10.9015 271.11C8.92856 268.86 7.17733 267.038 5.64723 265.041C4.4801 263.527 3.36649 261.893 2.62402 260.144C0.706042 255.622 2.10541 252.057 6.65439 249.88C8.78081 248.865 11.0588 248.114 13.3327 247.476C15.4622 246.872 17.6746 246.576 20.1624 246.089C20.8485 244.435 21.6184 242.691 22.2821 240.911C40.394 192.558 58.4882 144.194 76.5825 95.8313C76.9938 94.7229 77.4012 93.6009 77.8876 92.5221C78.6998 90.721 80.0712 89.6696 82.0983 89.9216C86.3488 90.4417 90.6967 90.6163 94.7969 91.7038C119.739 98.3349 144.609 105.223 169.532 111.889C171.886 112.525 174.589 112.77 176.946 112.291C213.612 104.791 248.812 93.0059 282.052 75.65C292.076 70.4129 301.492 64.2051 310.244 57.0203C313.601 54.2728 316.539 54.6919 319.003 58.3607C319.827 59.5852 320.467 60.9374 321.058 62.2967C332.64 89.0003 340.681 116.7 344.257 145.63C344.818 150.174 344.934 154.783 345.281 159.7C351.263 161.348 357.24 163.004 363.213 164.647C369.08 166.255 374.958 167.8 380.8 169.474C382.346 169.919 383.88 170.574 385.236 171.428C387.494 172.865 387.919 174.59 387.19 177.2C382.971 192.191 378.726 207.168 374.579 222.176C370.358 237.485 366.239 252.816 362.08 268.136C361.821 269.111 361.642 270.107 361.401 271.195C367.854 269.955 368.332 270.478 366.437 276.746C361.508 293.082 356.472 309.382 351.623 325.738C350.899 328.191 349.772 330.026 347.592 331.285C345.01 332.781 343.742 335.062 342.979 337.984C338.862 353.623 334.564 369.22 330.318 384.824C328.839 390.248 327.807 390.927 322.513 389.689C314.143 387.741 305.79 385.721 297.421 383.751C296.866 383.619 296.285 383.598 295.497 383.498C295.018 384.98 294.504 386.34 294.149 387.741C291.421 398.374 288.742 409.022 285.991 419.654C285.513 421.512 284.935 423.384 284.051 425.066C282.682 427.679 281.283 427.987 278.596 426.668C253.67 414.52 228.695 402.459 203.826 390.183C139.848 358.598 75.9137 326.912 11.9554 295.269C10.4911 294.549 9.0077 293.865 7.57697 293.084C4.10988 291.191 3.82277 290.59 5.18473 286.697C6.99562 281.522 8.94775 276.401 10.8936 271.083L10.9015 271.11ZM24.8289 245.742C27.9136 245.58 30.4117 245.303 32.9049 245.411C33.8522 245.45 35.3907 246.221 35.562 246.93C35.9765 248.592 34.3907 248.637 33.2159 248.702C30.1081 248.886 26.9365 248.727 23.8885 249.239C18.7964 250.094 13.6652 251.041 8.75411 252.587C4.60365 253.887 3.80456 257.063 6.0293 260.647C6.41857 261.269 6.88445 261.877 7.41662 262.384C12.3625 267.077 17.0417 272.092 22.3437 276.342C32.3906 284.401 44.0977 289.607 55.9063 294.481C71.5204 300.919 87.7693 303.898 104.637 302.51C109.3 302.128 113.953 300.783 118.432 299.32C120.524 298.639 122.639 296.934 123.895 295.113C124.924 293.624 125.273 291.149 124.918 289.315C124.369 286.543 121.939 286.173 120.016 288.257C119.117 289.236 118.369 290.377 117.405 291.286C113.839 294.648 109.544 294.48 106.652 290.532C105.411 288.84 104.697 286.559 104.379 284.449C103.93 281.492 104.895 278.704 107.765 277.285C110.567 275.91 113.261 276.651 115.624 278.625C116.649 279.48 117.622 280.433 118.766 281.092C119.45 281.488 120.75 281.799 121.166 281.433C121.826 280.871 122.149 279.737 122.286 278.798C122.381 278.143 122.002 277.355 121.667 276.717C118.412 270.428 110.929 267.46 105.579 270.396C104.506 270.983 103.199 271.124 101.259 271.672C100.981 267.339 100.804 263.677 100.501 260.036C100.087 255.014 99.7001 249.983 99.0161 244.996C98.7788 243.26 97.674 241.632 96.8909 239.769C93.5927 241.261 94.6662 243.51 94.8181 245.382C95.4063 252.778 96.0401 260.153 96.7138 267.539C96.9317 269.936 96.1004 271.397 93.729 272.255C90.664 273.362 87.7505 274.859 84.7254 276.102C84.035 276.386 83.2018 276.284 82.4292 276.364C82.3128 276.118 82.1963 275.872 82.0751 275.635C83.6533 274.434 85.2315 273.234 86.9981 271.897C86.6836 269.572 86.464 267.219 86.033 264.899C84.8148 258.344 83.5878 251.784 82.1756 245.271C81.7222 243.2 81.0812 240.994 78.6626 239.685C76.9316 242.146 76.8118 244.849 76.8661 247.442C77.0312 255.154 77.4606 262.862 77.6569 270.58C77.75 274.083 77.5342 277.588 77.4588 281.17C67.4469 280.957 57.8773 280.142 48.5469 277.407C39.531 274.764 30.856 271.351 23.0173 266.092C20.9506 264.702 18.9384 263.045 17.374 261.132C15.5095 258.849 16.6725 255.759 19.4604 255.264C22.9554 254.643 26.4894 254.304 30.0235 253.966C31.429 253.834 33.0339 253.753 33.5599 256.296C29.3729 257.12 25.276 257.926 20.8727 258.792C32.5641 270.768 63.197 278.808 74.219 277.316C73.9581 272.138 73.496 266.953 73.4992 261.771C73.5115 255.842 73.6857 249.888 74.2829 243.993C74.6856 240.02 75.5664 235.819 80.8106 235.958C81.524 233.921 81.9275 232.159 82.7309 230.604C84.9198 226.364 88.3923 226.243 90.806 230.295C91.5527 231.557 92.0111 232.992 92.543 234.376C93.0055 235.574 93.4042 236.806 93.8092 237.984C98.1678 237.116 99.6936 237.619 100.835 241.455C102.044 245.544 102.663 249.835 103.204 254.084C103.749 258.323 103.886 262.602 104.231 267.313C110.007 265.476 115.116 266.134 119.694 269.624C124.346 273.166 125.853 277.919 124.198 283.726C129.742 289.578 129.456 295.278 123.131 300.416C121.329 301.881 119.18 303.146 116.979 303.859C113.606 304.946 110.091 305.875 106.586 306.161C89.7682 307.542 73.2813 305.207 57.576 299.311C42.5466 293.659 28.4739 285.921 15.8801 275.765C15.3671 275.348 14.704 275.123 13.8877 274.677C12.0489 279.632 10.3148 284.291 8.54472 289.078C99.6825 334.19 190.27 379.035 280.797 423.848C287.596 397.22 294.383 370.677 301.224 343.89C299.69 343.736 298.688 343.61 297.671 343.534C291.164 343.035 284.625 342.804 278.166 341.99C268.891 340.823 259.695 339.073 250.839 335.971C249.221 335.407 247.48 334.547 246.379 333.308C243.546 330.087 240.968 326.629 238.435 323.15C231.549 313.683 224.713 304.187 217.96 294.623C217.509 293.989 217.654 292.575 218.057 291.816C218.325 291.324 219.771 290.951 220.333 291.235C221.679 291.901 222.709 291.871 224.067 291.2C231.657 287.459 239.288 283.832 246.919 280.182C249.596 278.909 252.263 277.573 255.026 276.518C256.165 276.081 257.654 275.982 258.824 276.302C271.02 279.61 283.395 282.047 295.962 283.256C302.719 283.902 309.553 283.634 316.591 283.784C323.464 257.231 330.331 230.709 337.245 203.996C335.818 203.354 334.494 202.733 333.154 202.161C277.788 178.467 222.426 154.786 167.059 131.092C144.698 121.529 122.332 111.952 99.9891 102.353C98.4642 101.703 96.556 101.505 95.583 99.3217C99.8441 99.0501 103.469 100.425 106.969 101.777C117.195 105.73 127.316 109.979 137.484 114.082C138.847 114.632 140.276 115.436 141.682 115.428C148.122 115.401 154.563 115.122 161.005 114.925C160.188 113.75 159.287 113.315 158.325 113.052C146.449 109.805 134.593 106.5 122.686 103.373C110.782 100.259 98.8582 97.2246 86.8918 94.3725C82.0023 93.2073 81.6877 93.6166 80.0143 98.0806C62.2276 145.609 44.4409 193.138 26.6581 240.68C26.103 242.177 25.5654 243.683 24.8162 245.724L24.8289 245.742ZM151.893 119.43C152.314 120.036 152.43 120.429 152.638 120.486C163.489 123.481 174.365 126.433 185.216 129.428C186.829 129.876 187.937 129.432 189.169 128.282C193.129 124.554 197.91 122.162 203.085 120.612C214.676 117.118 226.278 117.675 237.767 120.962C257.177 126.521 273.047 137.041 283.461 154.779C284.578 156.677 286.049 157.343 287.951 157.948C304.753 163.337 321.579 168.683 337.789 175.742C338.278 175.952 338.836 175.995 339.675 176.19C339.953 174.554 340.218 173.274 340.399 171.983C341.796 161.888 341.207 151.781 339.76 141.785C335.683 113.709 327.75 86.7298 316.003 60.8929C315.671 60.1649 315.226 59.4776 314.73 58.5916C301.865 69.3649 287.874 77.7348 273.094 84.7964C252.563 94.6089 231.192 102.243 209.388 108.626C190.705 114.093 171.773 118.387 151.91 119.439L151.893 119.43ZM224.248 295.48C224.987 296.693 225.545 297.737 226.222 298.688C232.997 308.254 239.928 317.722 246.506 327.419C248.393 330.204 250.591 331.791 253.725 332.75C264.702 336.099 275.949 337.931 287.337 339.089C302.559 340.631 317.544 339.434 332.265 335.132C336.888 333.781 341.047 331.609 344.714 328.438C346.456 326.939 347.648 325.255 348.307 323.005C352.711 308.07 357.213 293.164 361.658 278.239C361.75 277.925 361.532 277.51 361.383 276.802C360.033 277.626 358.907 278.31 357.796 278.99C351.633 282.724 345.043 285.53 337.904 286.315C329.224 287.274 320.473 288.068 311.749 288.125C294.897 288.234 278.357 285.392 262.084 281.203C258.679 280.324 255.669 280.538 252.692 281.921C243.316 286.304 233.988 290.828 224.262 295.476L224.248 295.48ZM179.844 131.36C179.774 131.55 179.705 131.74 179.644 131.935C181.065 132.608 182.466 133.339 183.916 133.959C221.54 150.042 259.165 166.103 296.78 182.181C310.138 187.889 323.487 193.615 336.844 199.345C341.507 201.343 341.454 201.44 340.231 206.207C339.356 209.625 338.831 213.133 338.095 216.923C342.052 217.898 345.724 218.809 349.437 219.731C352.768 213.46 353.426 206.767 354.996 200.321C356.964 192.27 355.24 188.811 347.202 184.628C340.402 181.099 333.331 178.002 326.152 175.291C305.905 167.635 285.272 161.145 264.444 155.222C243.487 149.262 222.688 142.785 201.762 136.728C194.543 134.633 187.159 133.132 179.853 131.365L179.844 131.36ZM343.659 178.388C345.682 179.356 347.615 180.115 349.39 181.141C357.439 185.785 361.159 191.222 358.633 200.484C357.003 206.475 355.456 212.501 353.906 218.513C353.702 219.325 353.667 220.183 353.565 220.913C359.624 224.277 359.774 224.69 357.208 230.706C357.032 231.111 356.883 231.531 356.694 231.94C355.564 234.491 356.36 235.996 356.59 239.039C356.729 240.892 354.043 241.43 353.607 242.708C351.936 247.606 350.57 252.614 349.084 257.59C349.455 258.1 349.839 258.629 350.304 259.259C351.007 260.224 350.322 261.604 349.127 261.601C341.261 261.591 334.893 258.354 328.044 256.165C325.526 265.329 323.088 274.366 321.004 283.903C324.448 283.709 327.235 283.591 330.013 283.386C337.623 282.824 344.884 281 351.826 277.737C354.753 276.361 356.264 274.429 357.112 271.246C363.296 248.042 369.697 224.9 376.009 201.732C378.15 193.866 380.281 185.995 382.351 178.113C383.107 175.245 382.611 174.359 379.998 173.365C379.451 173.157 378.845 173.077 378.277 172.927C368.13 170.145 357.996 167.359 347.843 164.608C347.049 164.391 346.179 164.441 345.265 164.363C344.721 169.158 344.208 173.687 343.672 178.384L343.659 178.388ZM339.144 336.973C327.628 341.373 316.652 342.844 305.469 343.689C302.451 355.542 299.502 367.102 296.459 379.022C306.472 381.445 315.921 383.733 325.766 386.11C330.212 369.762 334.55 353.821 339.14 336.959L339.144 336.973ZM192.456 130.942C222.139 136.777 249.665 147.337 279.022 155.147C277.647 153.053 276.896 151.799 276.03 150.632C271.83 144.967 266.785 140.163 260.971 136.225C245.594 125.804 228.873 120.288 210.098 123.084C203.912 124.002 198.087 126.052 192.447 130.937L192.456 130.942ZM337.163 220.072C334.4 230.913 331.748 241.303 329.023 251.994C334.633 253.906 339.752 255.652 345.256 257.528C348.372 246.435 351.298 236.002 354.385 224.984C348.777 223.381 343.156 221.782 337.163 220.072ZM94.265 268.31C93.9648 263.6 93.9055 259.159 93.3427 254.784C92.5266 248.494 91.4679 242.231 90.26 236.012C89.8337 233.809 89.1313 231.443 86.5364 229.935C83.9399 233.314 81.9613 236.564 83.1969 240.895C84.6072 245.846 86.1795 250.772 87.328 255.785C88.4071 260.487 89.0169 265.297 89.8733 270.344C91.4114 269.635 92.5856 269.091 94.2738 268.315L94.265 268.31ZM118.776 284.914C117.255 283.673 115.898 282.568 114.542 281.463C114.311 281.28 114.09 281.08 113.855 280.906C112.374 279.778 110.739 278.954 108.964 280.036C107.275 281.063 106.781 282.866 107.046 284.697C107.255 286.11 107.674 287.637 108.446 288.811C110.267 291.57 112.808 291.819 115.156 289.5C116.506 288.175 117.523 286.52 118.763 284.918L118.776 284.914Z" fill="white"/>
<path d="M122.334 30.1528C122.66 22.9821 123.777 17.2003 127.094 12.0616C127.871 10.8679 128.869 9.49873 130.093 8.94764C135.615 6.47051 141.143 3.93992 146.877 2.03429C151.805 0.394975 156.988 1.10531 161.65 3.25123C166.057 5.28055 170.573 7.48389 174.262 10.5569C188.186 22.1567 196.539 36.9925 198.106 55.2221C199.151 67.3334 194.167 76.4843 184.266 83.6456C175.981 89.6391 167.779 89.1377 159.071 85.6377C151.634 82.6489 145.433 77.8744 140.092 71.9853C129.044 59.791 122.708 45.623 122.339 30.144L122.334 30.1528ZM195.733 58.7569C195.599 58.7297 195.47 58.7161 195.337 58.6889C195.354 57.9467 195.439 57.2069 195.376 56.4663C193.751 37.8632 185.462 22.8685 170.794 11.3986C166.546 8.0772 161.747 5.76523 156.416 4.70051C147.632 2.94754 140.05 6.84062 136.552 15.1053C134.561 19.8174 133.792 24.7749 134.377 29.902C136.223 46.0965 143.609 59.4476 155.394 70.4602C160.217 74.9613 165.788 78.3214 172.286 79.9204C182.218 82.3681 190.525 77.9596 193.715 68.2966C194.725 65.2363 195.08 61.9554 195.745 58.7753L195.733 58.7569ZM170.195 82.5614C144.993 71.7099 133.15 51.8929 130.747 25.0724C129.012 25.4126 127.222 25.7688 125.465 26.1082C125.402 28.9789 125.064 31.5176 125.338 33.9797C127.228 50.8248 134.926 64.5854 147.773 75.5288C152.206 79.3043 157.23 82.0809 162.705 84.1353C165.62 85.2248 168.095 85.3229 170.195 82.5614ZM129 14.8108C132.07 14.7097 134.06 12.9704 134.97 9.59323C131.812 9.78378 129.943 11.4975 129 14.8108ZM178.527 83.4523C175.554 82.9991 173.276 83.7568 171.692 85.7255C174.485 86.4526 176.838 86.1078 178.527 83.4523ZM132.445 17.0785C129.332 16.853 127.635 17.7644 127.352 19.8127C129.269 19.5148 131.405 19.9632 132.445 17.0785Z" fill="white"/>
<path d="M366.415 139.975C364.971 146.148 363.812 151.36 362.499 156.521C362.317 157.231 361.433 158.161 360.799 158.237C360.157 158.308 359.194 157.566 358.756 156.928C356.84 154.116 355.115 151.181 353.23 148.352C352.665 147.508 351.929 146.707 351.09 146.136C348.159 144.137 348.335 144.233 349.044 141.202C350.388 135.442 351.47 129.618 352.633 123.816C352.775 123.096 352.581 122.261 352.855 121.613C353.276 120.613 353.756 119.211 354.574 118.883C356.095 118.266 356.869 119.646 357.49 120.908C360.296 126.62 363.147 132.313 365.916 138.051C366.35 138.948 366.427 140.016 366.428 139.994L366.415 139.975ZM359.864 150.412C360.771 147.478 361.626 144.846 362.376 142.179C362.602 141.368 362.873 140.286 362.534 139.656C360.54 136.004 358.359 132.444 356.081 128.581C354.889 133.854 353.828 138.573 352.869 142.834C355.247 145.408 357.418 147.755 359.873 150.417L359.864 150.412Z" fill="white"/>
<path d="M172.505 222.883C173.062 225.579 173.618 228.276 174.183 230.976C176.34 241.28 178.407 251.602 180.709 261.87C181.388 264.884 182.612 267.796 183.77 270.684C184.369 272.174 185.225 273.632 186.241 274.881C188.795 278.03 191.707 277.933 193.772 274.504C194.981 272.498 196.06 270.25 196.474 267.969C197.759 260.981 199.095 253.963 199.65 246.894C200.254 239.067 199.983 231.172 200.186 223.308C200.221 221.846 199.428 219.499 201.831 219.398C204.183 219.304 203.74 221.534 203.778 223.115C204.077 235.298 204 247.481 202.067 259.538C201.303 264.339 199.995 269.094 198.49 273.73C197.257 277.534 194.846 280.843 190.418 281.046C186.039 281.242 183.264 278.269 181.569 274.633C179.82 270.887 178.152 266.991 177.263 262.986C174.913 252.429 172.907 241.787 170.973 231.138C170.495 228.508 170.172 225.677 171.148 223.054C171.602 222.994 172.06 222.948 172.514 222.888L172.505 222.883Z" fill="white"/>
<path d="M60.3032 247.835C56.9261 244.191 53.9894 240.868 50.8579 237.734C49.3117 236.184 48.9578 234.578 49.229 232.516C50.0562 226.2 50.7094 219.869 51.5813 213.555C51.7157 212.557 52.393 211.15 53.1784 210.838C54.7404 210.209 55.5181 211.602 56.0261 212.905C57.731 217.254 60.3069 221.029 63.6027 224.321C65.3261 226.048 65.7732 228.046 65.181 230.446C63.9672 235.32 62.9481 240.255 61.743 245.134C61.5169 246.07 60.8207 246.887 60.2945 247.83L60.3032 247.835ZM58.2883 239.421C59.283 236.158 60.2966 233.237 61.0262 230.251C61.2732 229.236 61.1914 227.778 60.6194 227.01C59.1811 225.074 57.3795 223.407 55.3802 221.268C54.9164 224.079 54.8838 226.352 54.1314 228.356C52.414 232.921 53.9006 236.251 57.46 239.06C57.5733 239.144 57.7242 239.181 58.2883 239.421Z" fill="white"/>
<path d="M147.148 307.385C146.688 308.729 146.164 310.106 145.751 311.51C144.988 314.055 144.371 316.647 143.507 319.148C143.217 319.993 142.321 320.632 141.7 321.352C141.012 320.692 139.98 320.162 139.695 319.369C138.297 315.461 136.964 311.578 133.966 308.472C133.418 307.91 133.358 306.476 133.617 305.604C134.757 301.805 136.055 298.049 137.398 294.316C137.607 293.723 138.278 292.996 138.827 292.908C139.372 292.829 140.303 293.315 140.593 293.826C142.666 297.396 144.661 301.026 146.583 304.684C146.973 305.432 146.951 306.389 147.148 307.385ZM139.475 299.528C136.089 306.942 136.361 308.446 141.515 312.57C145.856 307.728 143.108 303.767 139.475 299.528Z" fill="white"/>
<path d="M249.531 229.565C249.43 232.734 246.601 235.224 243.283 235.041C240.273 234.879 238.028 232.731 238.14 230.104C238.266 227.222 241.37 224.29 244.31 224.289C247.429 224.294 249.627 226.508 249.531 229.565ZM240.702 230.545C242.039 230.933 242.977 231.491 243.827 231.373C244.528 231.278 245.26 230.481 245.713 229.817C245.921 229.52 245.591 228.372 245.355 228.323C244.561 228.151 243.605 228.085 242.887 228.4C242.168 228.714 241.682 229.542 240.688 230.549L240.702 230.545Z" fill="white"/>
<path d="M139.383 234.869C136.681 234.852 134.508 232.8 134.466 230.248C134.429 227.687 136.64 225.556 139.306 225.576C141.937 225.599 144.125 227.705 144.185 230.267C144.242 232.918 142.189 234.885 139.383 234.869ZM141.318 229.864C140.177 229.492 139.093 229.139 138.009 228.787C137.795 229.012 137.577 229.246 137.363 229.471C137.764 230.26 137.961 231.381 138.605 231.744C139.899 232.484 140.79 231.729 141.327 229.869L141.318 229.864Z" fill="white"/>
<path d="M98.3537 298.534C94.3595 295.123 90.9294 292.203 87.2824 289.095C90.0211 287.605 91.9494 289.604 93.7399 290.832C96.1153 292.47 99.2362 293.912 98.3537 298.534Z" fill="white"/>
<path d="M270.921 308.448C270.718 316.563 264.478 323.068 256.838 322.6C247.015 322 240.708 313.727 241.019 304.954C241.302 296.86 247.631 290.733 255.357 291.043C264.036 291.382 271.142 299.34 270.921 308.448ZM267.04 308.106C267.074 302.93 263.716 297.895 258.904 295.941C253.144 293.594 247.336 296.325 245.507 302.243C243.84 307.633 246.563 314.166 251.664 317.031C258.849 321.066 266.976 316.343 267.031 308.102L267.04 308.106Z" fill="white"/>
<path d="M169.686 31.3576C166.068 28.4259 163.024 24.6109 157.696 23.3315C158.217 24.7554 158.573 25.9407 159.07 27.055C160.039 29.2245 161.262 31.2823 162.055 33.5036C163.42 37.3477 165.666 39.9749 169.71 41.3736C173.22 42.583 176.145 44.9885 178.377 48.0986C182.92 54.4288 182.289 59.0288 175.921 63.8696C176.36 65.3398 176.84 66.9234 177.488 69.0545C174.96 68.0505 175.107 65.8406 173.287 64.437C166.84 63.6409 161.186 60.7253 158.729 53.4141C162.756 56.0339 165.876 60.232 171.842 60.6975C168.551 53.9112 165.54 47.5511 162.36 41.2923C161.888 40.3623 160.619 39.8065 159.644 39.194C157.381 37.7879 154.985 36.5828 152.807 35.0634C151.371 34.0629 150.038 32.7888 148.937 31.4245C144.997 26.5166 145.949 22.5815 151.868 19.6488C151.738 18.4046 151.603 17.0662 151.464 15.8171C153.471 14.8959 153.953 16.2872 154.325 17.2761C155.09 19.2771 156.507 20.1651 158.48 20.8089C162.628 22.1846 166.145 24.6741 169.128 27.8514C169.835 28.6018 170.204 29.6578 170.725 30.5806C170.38 30.8367 170.04 31.084 169.696 31.34L169.686 31.3576ZM174.366 60.7079C178.37 58.2343 179.166 56.6519 178.074 53.1624C176.369 47.7085 172.352 44.6729 166.624 43.312C169.153 49.0103 171.695 54.7047 174.366 60.7079ZM159.756 35.6897C157.684 31.2429 155.611 26.7961 153.584 22.4315C149.009 23.5913 148.035 25.6684 150.226 29.0634C152.362 32.3713 155.568 34.4513 159.756 35.6897Z" fill="white"/>
<path d="M10.9015 271.11C8.92856 268.86 7.17733 267.038 5.64723 265.041C4.4801 263.527 3.36649 261.893 2.62402 260.144C0.706042 255.622 2.10541 252.057 6.65439 249.88C8.78081 248.865 11.0588 248.114 13.3327 247.476C15.4622 246.872 17.6746 246.576 20.1624 246.089C20.8485 244.435 21.6184 242.691 22.2821 240.911C40.394 192.558 58.4882 144.194 76.5825 95.8313C76.9938 94.7229 77.4012 93.6009 77.8876 92.5221C78.6998 90.721 80.0712 89.6696 82.0983 89.9216C86.3488 90.4417 90.6967 90.6163 94.7969 91.7038C119.739 98.3349 144.609 105.223 169.532 111.889C171.886 112.525 174.589 112.77 176.946 112.291C213.612 104.791 248.812 93.0059 282.052 75.65C292.076 70.4129 301.492 64.2051 310.244 57.0203C313.601 54.2728 316.539 54.6919 319.003 58.3607C319.827 59.5852 320.467 60.9374 321.058 62.2967C332.64 89.0003 340.681 116.7 344.257 145.63C344.818 150.174 344.934 154.783 345.281 159.7C351.263 161.348 357.24 163.004 363.213 164.647C369.08 166.255 374.958 167.8 380.8 169.474C382.346 169.919 383.88 170.574 385.236 171.428C387.494 172.865 387.919 174.59 387.19 177.2C382.971 192.191 378.726 207.168 374.579 222.176C370.358 237.485 366.239 252.816 362.08 268.136C361.821 269.111 361.642 270.107 361.401 271.195C367.854 269.955 368.332 270.478 366.437 276.746C361.508 293.082 356.472 309.382 351.623 325.738C350.899 328.191 349.772 330.026 347.592 331.285C345.01 332.781 343.742 335.062 342.979 337.984C338.862 353.623 334.564 369.22 330.318 384.824C328.839 390.248 327.807 390.927 322.513 389.689C314.143 387.741 305.79 385.721 297.421 383.751C296.866 383.619 296.285 383.598 295.497 383.498C295.018 384.98 294.504 386.34 294.149 387.741C291.421 398.374 288.742 409.022 285.991 419.654C285.513 421.512 284.935 423.384 284.051 425.066C282.682 427.679 281.283 427.987 278.596 426.668C253.67 414.52 228.695 402.459 203.826 390.183C139.848 358.598 75.9137 326.912 11.9554 295.269C10.4911 294.549 9.0077 293.865 7.57697 293.084C4.10988 291.191 3.82277 290.59 5.18473 286.697C6.99562 281.522 8.94775 276.401 10.8936 271.083L10.9015 271.11ZM24.8289 245.742C27.9136 245.58 30.4117 245.303 32.9049 245.411C33.8522 245.45 35.3907 246.221 35.562 246.93C35.9765 248.592 34.3907 248.637 33.2159 248.702C30.1081 248.886 26.9365 248.727 23.8885 249.239C18.7964 250.094 13.6652 251.041 8.75411 252.587C4.60365 253.887 3.80456 257.063 6.0293 260.647C6.41857 261.269 6.88445 261.877 7.41662 262.384C12.3625 267.077 17.0417 272.092 22.3437 276.342C32.3906 284.401 44.0977 289.607 55.9063 294.481C71.5204 300.919 87.7693 303.898 104.637 302.51C109.3 302.128 113.953 300.783 118.432 299.32C120.524 298.639 122.639 296.934 123.895 295.113C124.924 293.624 125.273 291.149 124.918 289.315C124.369 286.543 121.939 286.173 120.016 288.257C119.117 289.236 118.369 290.377 117.405 291.286C113.839 294.648 109.544 294.48 106.652 290.532C105.411 288.84 104.697 286.559 104.379 284.449C103.93 281.492 104.895 278.704 107.765 277.285C110.567 275.91 113.261 276.651 115.624 278.625C116.649 279.48 117.622 280.433 118.766 281.092C119.45 281.488 120.75 281.799 121.166 281.433C121.826 280.871 122.149 279.737 122.286 278.798C122.381 278.143 122.002 277.355 121.667 276.717C118.412 270.428 110.929 267.46 105.579 270.396C104.506 270.983 103.199 271.124 101.259 271.672C100.981 267.339 100.804 263.677 100.501 260.036C100.087 255.014 99.7001 249.983 99.0161 244.996C98.7788 243.26 97.674 241.632 96.8909 239.769C93.5927 241.261 94.6662 243.51 94.8181 245.382C95.4063 252.778 96.0401 260.153 96.7138 267.539C96.9317 269.936 96.1004 271.397 93.729 272.255C90.664 273.362 87.7505 274.859 84.7254 276.102C84.035 276.386 83.2018 276.284 82.4292 276.364C82.3128 276.118 82.1963 275.872 82.0751 275.635C83.6533 274.434 85.2315 273.234 86.9981 271.897C86.6836 269.572 86.464 267.219 86.033 264.899C84.8148 258.344 83.5878 251.784 82.1756 245.271C81.7222 243.2 81.0812 240.994 78.6626 239.685C76.9316 242.146 76.8118 244.849 76.8661 247.442C77.0312 255.154 77.4606 262.862 77.6569 270.58C77.75 274.083 77.5342 277.588 77.4588 281.17C67.4469 280.957 57.8773 280.142 48.5469 277.407C39.531 274.764 30.856 271.351 23.0173 266.092C20.9506 264.702 18.9384 263.045 17.374 261.132C15.5095 258.849 16.6725 255.759 19.4604 255.264C22.9554 254.643 26.4894 254.304 30.0235 253.966C31.429 253.834 33.0339 253.753 33.5599 256.296C29.3729 257.12 25.276 257.926 20.8727 258.792C32.5641 270.768 63.197 278.808 74.219 277.316C73.9581 272.138 73.496 266.953 73.4992 261.771C73.5115 255.842 73.6857 249.888 74.2829 243.993C74.6856 240.02 75.5664 235.819 80.8106 235.958C81.524 233.921 81.9275 232.159 82.7309 230.604C84.9198 226.364 88.3923 226.243 90.806 230.295C91.5527 231.557 92.0111 232.992 92.543 234.376C93.0055 235.574 93.4042 236.806 93.8092 237.984C98.1678 237.116 99.6936 237.619 100.835 241.455C102.044 245.544 102.663 249.835 103.204 254.084C103.749 258.323 103.886 262.602 104.231 267.313C110.007 265.476 115.116 266.134 119.694 269.624C124.346 273.166 125.853 277.919 124.198 283.726C129.742 289.578 129.456 295.278 123.131 300.416C121.329 301.881 119.18 303.146 116.979 303.859C113.606 304.946 110.091 305.875 106.586 306.161C89.7682 307.542 73.2813 305.207 57.576 299.311C42.5466 293.659 28.4739 285.921 15.8801 275.765C15.3671 275.348 14.704 275.123 13.8877 274.677C12.0489 279.632 10.3148 284.291 8.54472 289.078C99.6825 334.19 190.27 379.035 280.797 423.848C287.596 397.22 294.383 370.677 301.224 343.89C299.69 343.736 298.688 343.61 297.671 343.534C291.164 343.035 284.625 342.804 278.166 341.99C268.891 340.823 259.695 339.073 250.839 335.971C249.221 335.407 247.48 334.547 246.379 333.308C243.546 330.087 240.968 326.629 238.435 323.15C231.549 313.683 224.713 304.187 217.96 294.623C217.509 293.989 217.654 292.575 218.057 291.816C218.325 291.324 219.771 290.951 220.333 291.235C221.679 291.901 222.709 291.871 224.067 291.2C231.657 287.459 239.288 283.832 246.919 280.182C249.596 278.909 252.263 277.573 255.026 276.518C256.165 276.081 257.654 275.982 258.824 276.302C271.02 279.61 283.395 282.047 295.962 283.256C302.719 283.902 309.553 283.634 316.591 283.784C323.464 257.231 330.331 230.709 337.245 203.996C335.818 203.354 334.494 202.733 333.154 202.161C277.788 178.467 222.426 154.786 167.059 131.092C144.698 121.529 122.332 111.952 99.9891 102.353C98.4642 101.703 96.556 101.505 95.583 99.3217C99.8441 99.0501 103.469 100.425 106.969 101.777C117.195 105.73 127.316 109.979 137.484 114.082C138.847 114.632 140.276 115.436 141.682 115.428C148.122 115.401 154.563 115.122 161.005 114.925C160.188 113.75 159.287 113.315 158.325 113.052C146.449 109.805 134.593 106.5 122.686 103.373C110.782 100.259 98.8582 97.2246 86.8918 94.3725C82.0023 93.2073 81.6877 93.6166 80.0143 98.0806C62.2276 145.609 44.4409 193.138 26.6581 240.68C26.103 242.177 25.5654 243.683 24.8162 245.724L24.8289 245.742ZM151.893 119.43C152.314 120.036 152.43 120.429 152.638 120.486C163.489 123.481 174.365 126.433 185.216 129.428C186.829 129.876 187.937 129.432 189.169 128.282C193.129 124.554 197.91 122.162 203.085 120.612C214.676 117.118 226.278 117.675 237.767 120.962C257.177 126.521 273.047 137.041 283.461 154.779C284.578 156.677 286.049 157.343 287.951 157.948C304.753 163.337 321.579 168.683 337.789 175.742C338.278 175.952 338.836 175.995 339.675 176.19C339.953 174.554 340.218 173.274 340.399 171.983C341.796 161.888 341.207 151.781 339.76 141.785C335.683 113.709 327.75 86.7298 316.003 60.8929C315.671 60.1649 315.226 59.4776 314.73 58.5916C301.865 69.3649 287.874 77.7348 273.094 84.7964C252.563 94.6089 231.192 102.243 209.388 108.626C190.705 114.093 171.773 118.387 151.91 119.439L151.893 119.43ZM224.248 295.48C224.987 296.693 225.545 297.737 226.222 298.688C232.997 308.254 239.928 317.722 246.506 327.419C248.393 330.204 250.591 331.791 253.725 332.75C264.702 336.099 275.949 337.931 287.337 339.089C302.559 340.631 317.544 339.434 332.265 335.132C336.888 333.781 341.047 331.609 344.714 328.438C346.456 326.939 347.648 325.255 348.307 323.005C352.711 308.07 357.213 293.164 361.658 278.239C361.75 277.925 361.532 277.51 361.383 276.802C360.033 277.626 358.907 278.31 357.796 278.99C351.633 282.724 345.043 285.53 337.904 286.315C329.224 287.274 320.473 288.068 311.749 288.125C294.897 288.234 278.357 285.392 262.084 281.203C258.679 280.324 255.669 280.538 252.692 281.921C243.316 286.304 233.988 290.828 224.262 295.476L224.248 295.48ZM179.844 131.36C179.774 131.55 179.705 131.74 179.644 131.935C181.065 132.608 182.466 133.339 183.916 133.959C221.54 150.042 259.165 166.103 296.78 182.181C310.138 187.889 323.487 193.615 336.844 199.345C341.507 201.343 341.454 201.44 340.231 206.207C339.356 209.625 338.831 213.133 338.095 216.923C342.052 217.898 345.724 218.809 349.437 219.731C352.768 213.46 353.426 206.767 354.996 200.321C356.964 192.27 355.24 188.811 347.202 184.628C340.402 181.099 333.331 178.002 326.152 175.291C305.905 167.635 285.272 161.145 264.444 155.222C243.487 149.262 222.688 142.785 201.762 136.728C194.543 134.633 187.159 133.132 179.853 131.365L179.844 131.36ZM343.659 178.388C345.682 179.356 347.615 180.115 349.39 181.141C357.439 185.785 361.159 191.222 358.633 200.484C357.003 206.475 355.456 212.501 353.906 218.513C353.702 219.325 353.667 220.183 353.565 220.913C359.624 224.277 359.774 224.69 357.208 230.706C357.032 231.111 356.883 231.531 356.694 231.94C355.564 234.491 356.36 235.996 356.59 239.039C356.729 240.892 354.043 241.43 353.607 242.708C351.936 247.606 350.57 252.614 349.084 257.59C349.455 258.1 349.839 258.629 350.304 259.259C351.007 260.224 350.322 261.604 349.127 261.601C341.261 261.591 334.893 258.354 328.044 256.165C325.526 265.329 323.088 274.366 321.004 283.903C324.448 283.709 327.235 283.591 330.013 283.386C337.623 282.824 344.884 281 351.826 277.737C354.753 276.361 356.264 274.429 357.112 271.246C363.296 248.042 369.697 224.9 376.009 201.732C378.15 193.866 380.281 185.995 382.351 178.113C383.107 175.245 382.611 174.359 379.998 173.365C379.451 173.157 378.845 173.077 378.277 172.927C368.13 170.145 357.996 167.359 347.843 164.608C347.049 164.391 346.179 164.441 345.265 164.363C344.721 169.158 344.208 173.687 343.672 178.384L343.659 178.388ZM339.144 336.973C327.628 341.373 316.652 342.844 305.469 343.689C302.451 355.542 299.502 367.102 296.459 379.022C306.472 381.445 315.921 383.733 325.766 386.11C330.212 369.762 334.55 353.821 339.14 336.959L339.144 336.973ZM192.456 130.942C222.139 136.777 249.665 147.337 279.022 155.147C277.647 153.053 276.896 151.799 276.03 150.632C271.83 144.967 266.785 140.163 260.971 136.225C245.594 125.804 228.873 120.288 210.098 123.084C203.912 124.002 198.087 126.052 192.447 130.937L192.456 130.942ZM337.163 220.072C334.4 230.913 331.748 241.303 329.023 251.994C334.633 253.906 339.752 255.652 345.256 257.528C348.372 246.435 351.298 236.002 354.385 224.984C348.777 223.381 343.156 221.782 337.163 220.072ZM94.265 268.31C93.9648 263.6 93.9055 259.159 93.3427 254.784C92.5266 248.494 91.4679 242.231 90.26 236.012C89.8337 233.809 89.1313 231.443 86.5364 229.935C83.9399 233.314 81.9613 236.564 83.1969 240.895C84.6072 245.846 86.1795 250.772 87.328 255.785C88.4071 260.487 89.0169 265.297 89.8733 270.344C91.4114 269.635 92.5856 269.091 94.2738 268.315L94.265 268.31ZM118.776 284.914C117.255 283.673 115.898 282.568 114.542 281.463C114.311 281.28 114.09 281.08 113.855 280.906C112.374 279.778 110.739 278.954 108.964 280.036C107.275 281.063 106.781 282.866 107.046 284.697C107.255 286.11 107.674 287.637 108.446 288.811C110.267 291.57 112.808 291.819 115.156 289.5C116.506 288.175 117.523 286.52 118.763 284.918L118.776 284.914Z" stroke="white" stroke-width="2"/>
<path d="M122.334 30.1528C122.66 22.9821 123.777 17.2003 127.094 12.0616C127.871 10.8679 128.869 9.49873 130.093 8.94764C135.615 6.47051 141.143 3.93992 146.877 2.03429C151.805 0.394975 156.988 1.10531 161.65 3.25123C166.057 5.28055 170.573 7.48389 174.262 10.5569C188.186 22.1567 196.539 36.9925 198.106 55.2221C199.151 67.3334 194.167 76.4843 184.266 83.6456C175.981 89.6391 167.779 89.1377 159.071 85.6377C151.634 82.6489 145.433 77.8744 140.092 71.9853C129.044 59.791 122.708 45.623 122.339 30.144L122.334 30.1528ZM195.733 58.7569C195.599 58.7297 195.47 58.7161 195.337 58.6889C195.354 57.9467 195.439 57.2069 195.376 56.4663C193.751 37.8632 185.462 22.8685 170.794 11.3986C166.546 8.0772 161.747 5.76523 156.416 4.70051C147.632 2.94754 140.05 6.84062 136.552 15.1053C134.561 19.8174 133.792 24.7749 134.377 29.902C136.223 46.0965 143.609 59.4476 155.394 70.4602C160.217 74.9613 165.788 78.3214 172.286 79.9204C182.218 82.3681 190.525 77.9596 193.715 68.2966C194.725 65.2363 195.08 61.9554 195.745 58.7753L195.733 58.7569ZM170.195 82.5614C144.993 71.7099 133.15 51.8929 130.747 25.0724C129.012 25.4126 127.222 25.7688 125.465 26.1082C125.402 28.9789 125.064 31.5176 125.338 33.9797C127.228 50.8248 134.926 64.5854 147.773 75.5288C152.206 79.3043 157.23 82.0809 162.705 84.1353C165.62 85.2248 168.095 85.3229 170.195 82.5614ZM129 14.8108C132.07 14.7097 134.06 12.9704 134.97 9.59323C131.812 9.78378 129.943 11.4975 129 14.8108ZM178.527 83.4523C175.554 82.9991 173.276 83.7568 171.692 85.7255C174.485 86.4526 176.838 86.1078 178.527 83.4523ZM132.445 17.0785C129.332 16.853 127.635 17.7644 127.352 19.8127C129.269 19.5148 131.405 19.9632 132.445 17.0785Z" stroke="white" stroke-width="2"/>
<path d="M366.415 139.975C364.971 146.148 363.812 151.36 362.499 156.521C362.317 157.231 361.433 158.161 360.799 158.237C360.157 158.308 359.194 157.566 358.756 156.928C356.84 154.116 355.115 151.181 353.23 148.352C352.665 147.508 351.929 146.707 351.09 146.136C348.159 144.137 348.335 144.233 349.044 141.202C350.388 135.442 351.47 129.618 352.633 123.816C352.775 123.096 352.581 122.261 352.855 121.613C353.276 120.613 353.756 119.211 354.574 118.883C356.095 118.266 356.869 119.646 357.49 120.908C360.296 126.62 363.147 132.313 365.916 138.051C366.35 138.948 366.427 140.016 366.428 139.994L366.415 139.975ZM359.864 150.412C360.771 147.478 361.626 144.846 362.376 142.179C362.602 141.368 362.873 140.286 362.534 139.656C360.54 136.004 358.359 132.444 356.081 128.581C354.889 133.854 353.828 138.573 352.869 142.834C355.247 145.408 357.418 147.755 359.873 150.417L359.864 150.412Z" stroke="white" stroke-width="2"/>
<path d="M172.505 222.883C173.062 225.579 173.618 228.276 174.183 230.976C176.34 241.28 178.407 251.602 180.709 261.87C181.388 264.884 182.612 267.796 183.77 270.684C184.369 272.174 185.225 273.632 186.241 274.881C188.795 278.03 191.707 277.933 193.772 274.504C194.981 272.498 196.06 270.25 196.474 267.969C197.759 260.981 199.095 253.963 199.65 246.894C200.254 239.067 199.983 231.172 200.186 223.308C200.221 221.846 199.428 219.499 201.831 219.398C204.183 219.304 203.74 221.534 203.778 223.115C204.077 235.298 204 247.481 202.067 259.538C201.303 264.339 199.995 269.094 198.49 273.73C197.257 277.534 194.846 280.843 190.418 281.046C186.039 281.242 183.264 278.269 181.569 274.633C179.82 270.887 178.152 266.991 177.263 262.986C174.913 252.429 172.907 241.787 170.973 231.138C170.495 228.508 170.172 225.677 171.148 223.054C171.602 222.994 172.06 222.948 172.514 222.888L172.505 222.883Z" stroke="white" stroke-width="2"/>
<path d="M60.3032 247.835C56.9261 244.191 53.9894 240.868 50.8579 237.734C49.3117 236.184 48.9578 234.578 49.229 232.516C50.0562 226.2 50.7094 219.869 51.5813 213.555C51.7157 212.557 52.393 211.15 53.1784 210.838C54.7404 210.209 55.5181 211.602 56.0261 212.905C57.731 217.254 60.3069 221.029 63.6027 224.321C65.3261 226.048 65.7732 228.046 65.181 230.446C63.9672 235.32 62.9481 240.255 61.743 245.134C61.5169 246.07 60.8207 246.887 60.2945 247.83L60.3032 247.835ZM58.2883 239.421C59.283 236.158 60.2966 233.237 61.0262 230.251C61.2732 229.236 61.1914 227.778 60.6194 227.01C59.1811 225.074 57.3795 223.407 55.3802 221.268C54.9164 224.079 54.8838 226.352 54.1314 228.356C52.414 232.921 53.9006 236.251 57.46 239.06C57.5733 239.144 57.7242 239.181 58.2883 239.421Z" stroke="white" stroke-width="2"/>
<path d="M147.148 307.385C146.688 308.729 146.164 310.106 145.751 311.51C144.988 314.055 144.371 316.647 143.507 319.148C143.217 319.993 142.321 320.632 141.7 321.352C141.012 320.692 139.98 320.162 139.695 319.369C138.297 315.461 136.964 311.578 133.966 308.472C133.418 307.91 133.358 306.476 133.617 305.604C134.757 301.805 136.055 298.049 137.398 294.316C137.607 293.723 138.278 292.996 138.827 292.908C139.372 292.829 140.303 293.315 140.593 293.826C142.666 297.396 144.661 301.026 146.583 304.684C146.973 305.432 146.951 306.389 147.148 307.385ZM139.475 299.528C136.089 306.942 136.361 308.446 141.515 312.57C145.856 307.728 143.108 303.767 139.475 299.528Z" stroke="white" stroke-width="2"/>
<path d="M249.531 229.565C249.43 232.734 246.601 235.224 243.283 235.041C240.273 234.879 238.028 232.731 238.14 230.104C238.266 227.222 241.37 224.29 244.31 224.289C247.429 224.294 249.627 226.508 249.531 229.565ZM240.702 230.545C242.039 230.933 242.977 231.491 243.827 231.373C244.528 231.278 245.26 230.481 245.713 229.817C245.921 229.52 245.591 228.372 245.355 228.323C244.561 228.151 243.605 228.085 242.887 228.4C242.168 228.714 241.682 229.542 240.688 230.549L240.702 230.545Z" stroke="white" stroke-width="2"/>
<path d="M139.383 234.869C136.681 234.852 134.508 232.8 134.466 230.248C134.429 227.687 136.64 225.556 139.306 225.576C141.937 225.599 144.125 227.705 144.185 230.267C144.242 232.918 142.189 234.885 139.383 234.869ZM141.318 229.864C140.177 229.492 139.093 229.139 138.009 228.787C137.795 229.012 137.577 229.246 137.363 229.471C137.764 230.26 137.961 231.381 138.605 231.744C139.899 232.484 140.79 231.729 141.327 229.869L141.318 229.864Z" stroke="white" stroke-width="2"/>
<path d="M98.3537 298.534C94.3595 295.123 90.9294 292.203 87.2824 289.095C90.0211 287.605 91.9494 289.604 93.7399 290.832C96.1153 292.47 99.2362 293.912 98.3537 298.534Z" stroke="white" stroke-width="2"/>
<path d="M270.921 308.448C270.718 316.563 264.478 323.068 256.838 322.6C247.015 322 240.708 313.727 241.019 304.954C241.302 296.86 247.631 290.733 255.357 291.043C264.036 291.382 271.142 299.34 270.921 308.448ZM267.04 308.106C267.074 302.93 263.716 297.895 258.904 295.941C253.144 293.594 247.336 296.325 245.507 302.243C243.84 307.633 246.563 314.166 251.664 317.031C258.849 321.066 266.976 316.343 267.031 308.102L267.04 308.106Z" stroke="white" stroke-width="2"/>
<path d="M169.686 31.3576C166.068 28.4259 163.024 24.6109 157.696 23.3315C158.217 24.7554 158.573 25.9407 159.07 27.055C160.039 29.2245 161.262 31.2823 162.055 33.5036C163.42 37.3477 165.666 39.9749 169.71 41.3736C173.22 42.583 176.145 44.9885 178.377 48.0986C182.92 54.4288 182.289 59.0288 175.921 63.8696C176.36 65.3398 176.84 66.9234 177.488 69.0545C174.96 68.0505 175.107 65.8406 173.287 64.437C166.84 63.6409 161.186 60.7253 158.729 53.4141C162.756 56.0339 165.876 60.232 171.842 60.6975C168.551 53.9112 165.54 47.5511 162.36 41.2923C161.888 40.3623 160.619 39.8065 159.644 39.194C157.381 37.7879 154.985 36.5828 152.807 35.0634C151.371 34.0629 150.038 32.7888 148.937 31.4245C144.997 26.5166 145.949 22.5815 151.868 19.6488C151.738 18.4046 151.603 17.0662 151.464 15.8171C153.471 14.8959 153.953 16.2872 154.325 17.2761C155.09 19.2771 156.507 20.1651 158.48 20.8089C162.628 22.1846 166.145 24.6741 169.128 27.8514C169.835 28.6018 170.204 29.6578 170.725 30.5806C170.38 30.8367 170.04 31.084 169.696 31.34L169.686 31.3576ZM174.366 60.7079C178.37 58.2343 179.166 56.6519 178.074 53.1624C176.369 47.7085 172.352 44.6729 166.624 43.312C169.153 49.0103 171.695 54.7047 174.366 60.7079ZM159.756 35.6897C157.684 31.2429 155.611 26.7961 153.584 22.4315C149.009 23.5913 148.035 25.6684 150.226 29.0634C152.362 32.3713 155.568 34.4513 159.756 35.6897Z" stroke="white" stroke-width="2"/>
</svg>
