<svg width="475" height="664" viewBox="0 0 475 664" fill="none" xmlns="http://www.w3.org/2000/svg">
<path d="M363.614 473.265C365.669 471.465 364.924 470.107 364.392 468.736C362.339 463.557 360.146 458.417 358.316 453.166C356.871 448.999 355.885 444.673 354.628 440.124C355.562 440.061 356.038 439.944 356.468 440C361.847 440.92 367.211 441.826 372.566 442.804C375.43 443.323 376.357 442.948 377.307 440.142C378.054 437.917 378.552 435.595 379.14 433.324C379.444 432.139 379.734 430.939 380.152 429.334C383.857 429.455 387.52 429.594 391.211 429.717C402.595 430.078 414.007 430.85 425.381 430.629C435.42 430.427 445.361 428.767 454.727 424.686C460.516 422.167 465.419 418.527 469.596 413.799C473.521 409.358 474.868 404.194 473.454 398.574C471.459 390.649 469.142 382.802 466.798 374.97C449.064 315.863 431.289 256.773 413.514 197.683C410.733 188.431 407.966 179.164 405.116 169.931C404.551 168.079 404.535 166.346 404.894 164.488C406.433 156.468 408.258 148.472 409.237 140.376C410.4 130.775 410.747 121.087 409.461 111.436C408.94 107.477 407.888 103.653 405.754 100.228C401.726 93.789 395.718 93.0396 390.163 98.2011C388.53 99.7175 386.867 101.207 385.233 102.71C385.159 102.459 384.866 101.483 384.63 100.504C383.749 96.8961 382.103 93.7655 378.921 91.6758C374.86 89.0053 371.495 90.1258 369.939 94.7072C369.286 96.6412 368.896 98.6714 368.245 101.259C367.707 100.243 367.447 99.7491 367.187 99.269C366.474 97.9664 365.87 96.5854 365.021 95.3772C361.278 89.9991 356.491 90.2909 353.583 96.114C352.541 98.1877 351.869 100.464 350.839 103.134C349.724 100.92 348.777 99.0933 347.873 97.2634C343.884 89.2865 339.963 81.2623 335.878 73.3344C334.521 70.6962 332.834 68.2222 331.095 65.8227C330.015 64.3457 328.712 62.9262 327.219 61.8606C322.424 58.4148 317.066 60.7773 316.833 66.6488C316.689 70.4392 317.107 74.3484 317.924 78.0603C321.023 92.2797 326.042 105.873 331.88 119.184C334.767 125.771 337.666 132.343 340.553 138.929C341.04 140.048 341.443 141.187 342.075 142.765C337.837 142.11 334.001 141.301 330.112 140.978C324.565 140.525 318.991 140.301 313.426 140.218C311.49 140.191 309.459 140.64 307.609 141.261C304.008 142.469 303.302 145.316 305.854 148.173C306.991 149.447 308.377 150.605 309.856 151.458C313.274 153.461 316.745 155.404 320.327 157.083C333.523 163.264 345.847 170.868 357.517 179.54C357.817 179.761 358.091 180.041 358.415 180.204C363.158 182.46 365.01 186.543 366.626 191.353C374.366 214.373 382.591 237.218 390.484 260.185C397.741 281.29 404.495 302.542 409.646 324.271C411.529 332.232 413.078 340.287 412.522 348.554C412.473 349.296 412.423 350.039 412.287 350.773C411.002 357.695 406.416 361.2 399.497 360C395.383 359.28 391.403 357.812 387.07 356.596L386.298 345.063C384.291 344.174 382.65 343.659 381.227 342.787C354.306 326.338 325.219 315.989 293.997 311.539C273.742 308.644 253.466 308.622 233.184 311.286C223.22 312.592 213.387 314.6 203.742 317.491C201.638 318.13 199.587 318.935 197.198 319.777C193.911 310.388 191.449 301.016 190.753 291.255C197.372 291.793 203.661 292.495 209.949 292.757C231.665 293.692 251.679 288.303 269.839 276.243C270.247 275.974 270.639 275.664 271.061 275.394C282.27 267.821 285.954 257.014 284.432 244.04C283.634 237.214 281.734 230.703 278.117 224.89C282.02 218.205 281.733 215.822 276.442 211.969C278.196 208.866 276.608 206.599 274.396 204.345C271.101 200.998 267.992 197.467 264.543 193.733C265.165 192.611 265.891 191.354 266.573 190.072C269.895 183.837 273.481 177.727 276.481 171.344C280.315 163.199 279.754 160.977 272.392 155.713C257.264 144.885 241.994 134.265 226.723 123.632C222.145 120.442 217.437 117.445 212.742 114.433C211.331 113.532 210.391 112.657 211.449 110.611C213.911 110.446 216.488 110.274 219.064 110.101C220.423 110.01 221.799 109.975 223.14 109.829C224.297 109.694 226.009 109.992 226.009 108.286C226.011 107.476 224.959 106.409 224.128 105.896C220.215 103.514 216.213 101.281 212.103 98.926C212.193 95.8214 212.289 92.7876 212.406 89.4396C208.241 89.0359 205.709 91.9911 201.904 92.9137C199.898 91.8397 197.393 90.5149 194.901 89.1892C193.471 88.432 192.056 87.688 190.614 86.9601C189.599 86.4453 188.363 85.8315 187.664 87.058C187.295 87.7081 187.552 88.9985 187.971 89.738C189.579 92.5158 191.364 95.1822 193.049 97.8411C190.872 100.588 190.833 100.633 188.268 99.0564C178.437 93.0195 168.633 86.9523 158.802 80.9154C154.591 78.326 150.328 75.8111 145.661 72.9963C148.979 70.7418 152.154 68.4685 155.441 66.3867C158.264 64.5917 161.247 63.0561 164.103 61.33C165.045 60.7553 165.95 60.0409 166.691 59.2238C168.557 57.1517 168.158 54.7906 165.486 53.9602C162.553 53.0477 159.433 52.7447 156.398 52.2229C155.103 51.9968 153.802 51.8848 152.46 51.1645C158.269 48.7292 164.093 46.3212 169.887 43.8727C172.279 42.8599 174.67 41.833 177.043 40.7504C177.939 40.3351 178.846 39.8622 179.555 39.2036C180.893 37.9486 180.374 36.1356 178.555 35.9445C176.98 35.7798 175.328 35.9472 173.738 36.1957C167.492 37.1963 161.267 38.2949 155.039 39.3511C153.9 39.541 152.742 39.6611 151.423 39.2803C152.464 38.6848 153.488 38.0619 154.532 37.5089C161.078 33.9866 167.64 30.4918 174.17 26.9422C175.255 26.358 176.378 25.7285 177.246 24.8887C177.781 24.3839 178.308 23.1263 178.054 22.7169C177.625 22.0491 176.6 21.606 175.734 21.4081C175.069 21.2536 174.284 21.633 173.57 21.7945C161.865 24.4963 150.146 27.2132 138.44 29.9009C135.681 30.5402 132.888 31.0824 129.88 31.1699C130.633 30.7358 131.367 30.2319 132.153 29.8666C146.534 23.1624 161.32 17.426 176.262 12.0914C178.011 11.4627 179.792 10.8745 181.409 9.97041C182.108 9.58252 182.879 8.35125 182.735 7.69282C182.605 7.0193 181.449 6.32904 180.622 6.07171C179.722 5.79081 178.652 5.96182 177.675 6.01301C160.451 6.99456 143.375 9.33074 126.383 12.2725C121.745 13.0802 117.112 13.9587 112.476 14.7947C111.815 14.91 111.131 14.8847 110.38 14.7075C115.763 10.7941 121.542 7.49374 126.291 2.61354C125.274 0.805373 123.622 0.972754 122.076 1.03351C113.625 1.37142 105.285 2.52626 97.0492 4.38481C33.1179 18.7245 -16.2727 74.206 -26.0687 139.632C-31.1307 173.401 -26.411 205.676 -9.90753 235.785C7.30782 267.182 33.0665 288.57 67.1787 299.664C70.26 300.666 73.6411 300.837 76.9176 301.144C78.7776 301.318 79.6934 299.494 78.6974 297.784C78.0224 296.621 77.087 295.604 75.9335 294.089C77.116 294.337 77.8756 294.428 78.5891 294.679C84.4403 296.704 90.2802 298.772 96.1436 300.768C97.5403 301.243 99.0125 301.571 100.479 301.814C104.233 302.458 105.102 301.632 104.821 297.43C105.802 297.862 106.674 298.144 107.444 298.605C111.917 301.276 116.39 303.947 120.797 306.709C121.554 307.184 122.364 308.025 122.59 308.849C125.522 319.099 128.399 329.368 129.328 340.051C129.367 340.646 129.295 341.262 129.281 341.902C115.468 349.45 102.513 358.119 90.2216 367.782C75.1336 379.636 61.6332 393.118 49.4268 407.878C37.2855 422.549 28.859 439.401 22.1832 457.131C17.0031 470.867 13.8312 485.079 11.1718 499.513C9.73272 507.327 9.79123 514.999 10.0526 522.727C10.3235 530.385 11.1774 538.045 12.0012 545.68C12.547 550.86 13.6713 555.972 14.1311 561.144C14.4037 564.153 15.5743 566.349 18.3441 566.945C23.1202 567.99 23.5042 571.39 23.8354 575.277C25.0677 589.862 26.751 604.39 30.7131 618.551C33.5919 628.848 37.2888 638.835 42.3142 648.277C44.0542 651.544 46.1395 654.659 48.438 657.561C51.3737 661.274 55.463 662.891 60.1898 662.987C66.3264 663.116 72.3439 662.316 78.1639 660.477C92.3526 656.002 106.126 650.419 119.63 644.214C143.604 633.201 167.527 622.078 191.385 610.817C214.347 599.985 237.374 589.263 259.872 577.453C270.984 571.622 283.143 568.25 295.768 567.192C302.075 566.671 308.407 566.531 314.718 566.081C323.872 565.412 333.004 564.616 342.137 563.849C343.127 563.768 344.22 563.738 345.027 563.272C346.013 562.708 347.289 561.798 347.441 560.879C347.605 559.93 346.838 558.46 345.996 557.777C344.688 556.713 342.984 556.103 341.44 555.339C340.513 554.875 339.549 554.499 337.82 553.733C341.503 553.316 344.305 553.115 347.059 552.632C348.62 552.371 350.252 551.907 351.577 551.093C353.911 549.644 353.833 547.63 351.582 546.061C350.776 545.504 349.841 545.126 348.957 544.659C348.515 544.433 347.735 544.243 347.702 543.961C347.226 539.829 343.572 540.471 341.056 539.417C340.749 539.281 340.502 538.999 339.976 538.58C341.58 538.103 342.933 537.714 344.298 537.295C345.482 536.932 346.684 536.61 347.832 536.135C349.437 535.474 351.316 534.879 351.302 532.748C351.287 530.83 349.603 530.09 348.101 529.536C344.501 528.214 340.851 527.008 337.217 525.816C336.068 525.438 334.874 525.219 333.197 524.805C334.919 523.766 336.291 523.035 337.568 522.139C338.804 521.275 339.969 520.202 339.612 518.478C339.239 516.726 337.746 516.3 336.237 516.06C330.43 515.126 324.621 515.43 318.808 515.889C317.098 516.032 315.397 516.118 313.231 516.263C313.772 515.203 314.18 514.508 314.501 513.776C315.497 511.449 314.857 509.957 312.366 509.285C311.193 508.965 309.925 508.922 308.69 508.948C303.153 509.077 297.945 510.704 292.811 512.597C289.092 513.969 285.427 515.507 281.843 517.182C276.687 519.603 271.627 522.172 266.153 523.875C264.176 524.49 262.412 525.76 260.526 526.682C258.434 527.717 256.312 528.726 254.188 529.707C252.836 530.323 251.34 530.693 250.112 531.472C240.131 537.839 229.161 542.183 218.247 546.509C187.371 558.709 156.442 570.741 125.449 582.664C112.28 587.724 98.9237 592.313 85.6533 597.124C84.9729 597.368 84.2766 597.585 83.1782 597.957C82.2245 591.355 83.0807 585.029 83.0047 579.221C89.8524 577.228 96.2546 575.379 102.639 573.473C103.684 573.162 104.806 572.717 105.613 572.023C106.11 571.592 106.068 570.543 106.272 569.762C105.522 569.599 104.679 569.115 104.052 569.314C100.044 570.605 96.1604 572.272 92.1115 573.382C83.5116 575.748 74.6893 575.855 65.8895 575.022C53.1545 573.813 40.5741 571.726 28.4707 567.419C24.975 566.175 21.552 564.741 17.9469 563.347C17.2002 558.352 16.4186 553.472 15.7634 548.569C15.1687 544.146 14.6873 539.715 14.1908 535.271C11.4954 511.146 15.4097 487.845 22.9656 464.996C32.6459 435.651 49.2189 410.721 71.1924 389.153C87.576 373.076 105.727 359.397 125.527 347.853C126.704 347.163 127.897 346.5 129.09 345.852C129.296 345.739 129.566 345.735 129.79 345.691C139.058 359.882 153.434 363.952 169.055 365.366C178.21 366.189 187.107 364.869 195.663 361.411C200.19 359.588 204.301 357.067 207.58 353.379C213.387 346.879 214.103 338.673 209.145 331.514C207.349 328.905 204.819 326.786 202.575 324.491C201.842 323.73 200.948 323.122 199.652 322.029C205.676 320.475 211.102 318.904 216.621 317.667C230.209 314.627 243.994 312.837 257.902 312.66C284.907 312.318 311.252 316.34 336.753 325.38C350.691 330.332 364.095 336.428 376.802 344.021C377.543 344.469 378.284 344.917 379.026 345.379C382.112 347.305 383.793 349.694 383.821 353.729C384.044 381.487 381.959 408.959 375.107 435.954C374.141 439.785 374.131 439.856 370.457 439.122C364.39 437.907 358.332 436.621 352.278 435.391C351.817 435.294 351.311 435.385 350.401 435.389C351.01 449.377 358.645 460.635 363.716 473.301L363.614 473.265ZM210.921 116.104C214.844 119.068 218.209 121.757 221.73 124.236C238.04 135.738 254.443 147.134 270.728 158.681C276.221 162.577 276.472 163.356 273.567 169.449C270.475 175.939 266.913 182.189 263.541 188.527C262.847 189.838 262.006 191.088 261.37 192.424C260.733 193.732 260.825 194.692 262.076 195.959C266.134 200.079 269.884 204.49 273.954 209.008C272.066 210.954 270.442 212.825 268.618 214.468C257.398 224.627 243.948 229.948 229.198 232.185C213.265 234.601 197.521 233.266 182.115 228.683C155.073 220.627 132.747 205.917 117.098 181.977C116.781 181.501 116.547 180.976 116.237 180.386C117.014 180.092 117.599 179.911 118.165 179.66C119.629 179.008 121.14 178.437 122.523 177.648C123.496 177.1 124.474 176.196 123.734 174.924C122.964 173.611 121.886 174.28 120.837 174.762C119.279 175.478 117.686 176.323 116.04 176.59C113.493 176.988 110.873 176.921 108.283 177.109C107.406 177.167 106.559 177.466 105.396 177.728C107.425 181.061 110.528 180.057 112.872 180.668C115.462 186.436 119.263 191.17 123.224 195.766C148.778 225.355 193.429 242.438 233.331 234.879C248.381 232.025 261.909 225.96 272.95 215.031C273.377 214.618 273.866 214.273 274.782 213.515C275.746 215.17 277.504 216.801 277.243 217.998C276.734 220.378 275.129 222.518 273.895 224.903C275.065 226.871 276.585 228.987 277.65 231.303C279.999 236.434 280.934 241.914 281.282 247.534C281.941 258.235 277.951 266.589 269.072 272.656C253.627 283.212 236.565 288.93 217.876 289.469C200.862 289.968 184.299 287.224 168.269 281.403C166.724 280.838 165.082 280.521 163.156 279.996C164.18 282.97 164.671 283.719 167.535 284.664C172.593 286.315 177.734 287.706 182.838 289.198C184.23 289.602 185.634 289.963 187.096 290.363C189.375 311.232 196.015 330.36 207.195 348.047C204.088 353.258 199.269 356.451 193.687 358.445C176.939 364.412 160.566 363.219 144.704 355.24C140.32 353.032 136.654 349.88 133.865 345.817C133.345 345.056 132.982 344.099 132.864 343.183C132.239 338.52 132.092 333.769 131.09 329.202C126.329 307.362 120.343 285.902 110.018 265.898C109.659 265.211 109.519 264.396 109.253 263.604C114.428 262.888 117.261 261.661 117.751 259.923C115.574 259.045 113.36 259.747 111.19 259.821C93.6509 260.341 80.0849 252.877 69.8173 239.037C66.6597 234.771 65.1024 229.773 65.3096 224.372C65.5337 218.586 69.3572 213.683 74.8262 211.91C79.8356 210.281 84.6787 211.265 89.3861 212.983C98.9604 216.464 107.406 221.769 114.3 229.395C115.544 230.776 116.776 232.186 118.179 233.4C119.583 234.614 120.549 234.18 121.202 232.459C121.999 230.359 120.959 228.836 119.754 227.396C113.206 219.633 106.603 211.902 100.041 204.14C99.3922 203.373 98.7984 202.574 98.1773 201.791C99.7164 201.845 100.791 202.398 101.926 202.777C104.413 203.606 107.267 205.888 109.399 203.116C111.504 200.374 108.77 197.97 107.197 195.929C104.331 192.198 101.115 188.746 98.0326 185.185C97.1548 184.178 96.2505 183.201 95.0527 181.874C95.9812 181.94 96.3483 181.901 96.6824 182.007C101.378 183.341 102.711 180.097 101.383 176.618C100.503 174.303 99.6779 171.956 98.6743 169.707C93.9845 159.119 87.803 149.398 81.0479 140.028C80.2946 138.97 79.5687 137.896 78.468 136.321C80.6837 136.499 82.1729 136.869 83.5817 136.675C84.6811 136.53 86.2191 135.93 86.5756 135.096C86.9198 134.291 86.3013 132.698 85.6066 131.877C84.5258 130.599 83.0129 129.663 81.734 128.612C86.1071 125.761 90.4832 123.165 94.5619 120.163C98.7491 117.083 102.854 113.838 106.624 110.26C111.305 105.839 115.663 101.07 120.038 96.329C126.19 89.6778 132.267 82.9747 139.441 77.3637C140.685 76.3993 141.974 75.4886 142.841 74.8479C157.989 84.2673 172.719 93.4162 187.955 102.887C186.081 104.192 184.502 105.25 182.971 106.375C182.429 106.781 181.543 107.565 181.661 107.842C181.919 108.507 182.602 109.157 183.264 109.483C183.882 109.797 184.716 109.727 185.457 109.748C188.549 109.84 191.663 110.058 194.74 109.937C196.853 109.853 198.17 110.632 199.35 112.33C201.885 115.998 204.529 119.602 207.267 123.128C207.75 123.75 208.928 124.14 209.734 124.086C210.117 124.06 210.625 122.733 210.701 121.96C210.879 120.158 210.843 118.341 210.904 116.077L210.921 116.104ZM108.22 218.005C107.994 218.233 107.767 218.462 107.556 218.703C106.101 217.791 104.672 216.835 103.192 215.954C97.208 212.374 91.0394 209.219 84.0297 208.153C66.2458 205.434 59.1588 220.207 62.6596 231.301C64.301 236.492 66.6066 241.199 70.2444 245.206C78.75 254.6 89.1016 260.773 101.76 262.755C103.413 263.014 105.048 263.018 105.941 265.105C108.973 272.165 112.405 279.042 115.311 286.139C117.403 291.258 118.913 296.615 120.672 301.87C119.092 301.62 118.041 301.008 117.016 300.352C109.135 295.407 101.013 290.89 92.3996 287.316C91.2586 286.838 90.0987 286.291 88.9069 286.114C88.217 286.004 87.0337 286.382 86.7828 286.882C86.5197 287.411 86.8692 288.596 87.3704 289.074C88.251 289.911 89.4496 290.399 90.4764 291.084C93.3635 293.008 96.4346 294.707 99.3995 298.006C97.3733 297.473 96.1786 297.255 95.0423 296.847C87.582 294.148 80.1482 291.419 72.7143 288.69C71.6649 288.305 70.6654 287.818 69.6169 287.447C68.3646 287.005 66.8866 286.166 65.999 287.775C65.2765 289.088 66.3383 290.083 67.2907 290.929C68.4092 291.92 69.5257 292.883 70.6046 293.92C71.1511 294.437 71.5778 295.077 72.3509 296.006C70.3606 295.585 68.7685 294.739 67.5418 295.105C65.4942 295.74 63.9106 295.021 62.2043 294.382C29.7592 282.069 5.90003 260.17 -9.54867 229.251C-23.5028 201.332 -27.8774 171.662 -22.8505 140.98C-14.0934 87.4351 14.0026 47.094 61.7424 20.9032C77.7608 12.1138 95.0776 7.00405 113.287 5.03267C114.642 4.88517 116.104 4.41785 117.827 5.31173C111.557 9.78195 105.294 13.4984 98.8074 16.8461C97.928 17.3029 96.943 17.6673 96.2476 18.325C95.8335 18.7222 95.6695 19.6713 95.8093 20.2731C95.8915 20.6514 96.7343 21.1351 97.2307 21.1161C98.465 21.0762 99.686 20.8382 100.906 20.586C107.823 19.1994 114.727 17.6289 121.671 16.4396C131.679 14.7183 141.726 13.1508 151.783 11.7389C158.066 10.8639 164.388 10.3699 170.699 9.70608C170.074 10.5581 169.331 10.9347 168.568 11.2131C150.528 17.8352 132.859 25.3279 115.692 33.9525C114.44 34.5764 112.323 34.8175 112.851 36.7578C113.472 39.0189 115.562 37.9552 116.979 37.6757C125.118 36.0652 133.252 34.3982 141.367 32.6472C149.44 30.8991 157.489 29.0104 165.542 27.1783C164.67 28.1747 163.647 28.8259 162.576 29.395C156.547 32.5699 150.502 35.7175 144.473 38.8924C143.264 39.5276 142.011 40.1373 140.988 41.0017C140.423 41.4801 139.793 42.6877 140.023 43.1414C140.397 43.8555 141.393 44.4995 142.243 44.6701C143.152 44.8651 144.195 44.5111 145.165 44.3467C152.617 43.0949 160.067 41.829 167.532 40.5621C166.337 41.6086 164.998 42.2099 163.658 42.797C151.879 48.0053 140.1 53.2136 128.335 58.4352C127.203 58.9373 126.136 59.563 125.085 60.2161C124.142 60.7908 123.54 61.7692 124.325 62.669C124.725 63.1255 125.848 63.1214 126.626 63.0552C127.192 63.0173 127.712 62.4993 128.263 62.235C133.293 59.8518 138.319 57.412 143.398 55.125C144.585 54.5908 146.026 54.2385 147.299 54.3524C151.491 54.74 155.655 55.3569 159.832 55.9445C161.124 56.1281 162.386 56.4986 163.656 56.7832C161.797 58.7411 159.783 59.8849 157.85 61.1655C151.721 65.1857 144.866 67.7052 139.262 72.9837C132.227 79.6088 124.869 85.8858 118.505 93.1908C107.427 105.9 95.2029 117.207 80.3243 125.394C78.7609 126.252 77.4401 127.549 75.4927 129.043C77.4445 130.377 78.8744 131.347 80.8423 132.708C79.5636 132.509 78.8511 132.486 78.2112 132.273C76.6843 131.764 75.2281 131.037 73.6804 130.643C73.116 130.496 72.2329 130.896 71.7932 131.337C71.514 131.626 71.6161 132.515 71.82 133.013C72.1061 133.676 72.6545 134.222 73.0935 134.832C76.5589 139.66 80.1205 144.44 83.4773 149.346C88.7269 157.04 93.2651 165.151 96.8559 173.765C97.4498 175.204 97.8645 176.725 98.6483 179.089C96.7277 178.223 95.5934 177.844 94.5854 177.229C91.7389 175.486 88.9423 173.641 86.1204 171.84C85.3927 171.377 84.6961 170.741 83.9015 170.553C83.324 170.421 82.4653 170.762 82.0247 171.19C81.7445 171.464 81.8089 172.427 82.0648 172.85C82.5755 173.683 83.3183 174.372 83.9923 175.095C90.4354 182.14 96.8918 189.17 103.294 196.247C104.292 197.346 104.994 198.692 105.844 199.928C105.644 200.126 105.443 200.31 105.243 200.508C103.91 199.915 102.514 199.454 101.285 198.726C96.28 195.749 91.326 192.684 86.3729 189.632C85.5282 189.12 84.8043 188.288 83.8907 188.022C83.0933 187.791 82.1214 188.14 81.2183 188.243C81.3572 189.044 81.3169 189.928 81.6888 190.6C82.0929 191.326 82.8942 191.827 83.5181 192.439C86.4527 195.284 89.4815 198.052 92.3236 201.003C97.718 206.612 102.993 212.342 108.32 218.013L108.22 218.005ZM307.742 145.587C307.857 145.167 307.956 144.749 308.071 144.329C310.355 144.048 312.627 143.583 314.912 143.516C326.547 143.164 337.872 144.979 348.988 148.329C349.466 148.467 349.921 148.679 350.398 148.789C351.481 149.043 352.79 149.482 353.263 148.057C353.822 146.414 352.427 145.967 351.22 145.564C350.042 145.174 348.863 144.77 347.665 144.494C346.307 144.173 345.685 143.376 345.185 142.074C343.749 138.247 342.229 134.454 340.572 130.727C334.667 117.477 328.678 104.261 324.601 90.3063C322.904 84.4928 321.526 78.5585 320.276 72.6298C319.836 70.513 319.934 68.1612 320.288 66.0055C320.658 63.6782 322.441 62.9193 324.443 64.1499C325.881 65.0344 327.258 66.2642 328.203 67.6507C330.505 71.0217 332.755 74.4672 334.618 78.0949C338.918 86.4633 342.944 94.9921 347.188 103.393C347.959 104.919 349.239 106.198 350.425 107.781C350.544 111.256 350.447 115.114 350.829 118.912C351.471 125.109 352.702 131.181 356.133 136.551C358.674 140.532 363.048 142.357 366.791 137.743C366.909 137.593 367.193 137.588 367.401 137.517C370.748 145.452 377.054 146.636 381.656 137.857C381.942 138.094 382.267 138.271 382.498 138.54C385.952 142.559 389.153 142.373 391.915 137.967C392.314 137.343 392.725 136.69 392.935 135.994C394.514 130.914 396.093 125.833 397.557 120.718C397.913 119.458 398.206 117.676 396.404 117.299C394.356 116.867 394.632 118.867 394.271 120.057C392.838 124.786 391.523 129.565 390.004 134.271C389.485 135.869 388.757 137.524 386.876 138.091C384.633 135.81 383.87 133.545 383.907 129.207C383.98 122.223 385.016 115.403 387.215 108.746C388.219 105.694 389.884 103.166 392.096 100.957C396.322 96.7515 400.226 97.3006 403.179 102.547C405.098 105.943 406.187 109.68 406.319 113.551C406.536 119.99 406.655 126.435 406.446 132.873C406.145 142.189 404.77 151.377 402.273 160.385C401.059 164.759 401.208 168.899 402.575 173.384C415.11 214.518 427.38 255.727 439.762 296.899C449.762 330.115 459.903 363.307 469.793 396.559C471.48 402.231 470.932 407.84 466.335 412.454C462.979 415.834 459.364 418.762 455.053 420.841C448.043 424.224 440.545 425.848 432.882 426.716C422.003 427.956 411.095 427.704 400.196 426.941C398.382 426.821 396.567 426.672 394.666 426.529C393.242 419.916 391.854 413.627 390.537 407.333C389.552 402.595 388.553 397.872 387.764 393.092C387.142 389.31 386.517 385.5 386.446 381.681C386.344 376.117 386.738 370.533 386.948 364.961C387.008 363.308 387.138 361.651 387.255 359.781C388.527 360.307 389.434 360.687 390.34 361.053C394.285 362.637 398.325 363.731 402.643 363.456C409.015 363.059 413.366 359.669 414.971 353.478C415.614 350.991 415.892 348.343 415.876 345.771C415.858 336.15 413.867 326.788 411.429 317.556C405.249 294.048 397.829 270.936 389.741 248.025C382.493 227.46 375.467 206.823 368.287 186.224C367.776 184.752 367.13 183.161 366.076 182.08C364.457 180.411 362.452 179.124 360.58 177.714C348.922 169.014 336.727 161.216 323.543 154.991C319.739 153.185 315.996 151.218 312.331 149.146C310.662 148.206 309.26 146.808 307.73 145.617L307.742 145.587ZM343.11 559.69C343.086 559.976 343.063 560.262 343.038 560.533C342.25 560.643 341.451 560.824 340.657 560.849C338.175 560.944 335.698 560.897 333.222 561.076C324.574 561.669 315.917 562.333 307.273 562.983C300.724 563.478 294.064 563.397 287.649 564.637C276.449 566.807 265.583 570.377 255.333 575.483C249.017 578.62 242.966 582.322 236.616 585.377C217.412 594.578 198.128 603.643 178.826 612.666C155.956 623.378 133.286 634.545 109.65 643.588C102.025 646.5 94.8086 650.423 87.2894 653.641C79.1474 657.113 70.6861 659.427 61.7573 659.641C56.6616 659.769 52.5072 658.028 49.593 653.789C47.9864 651.451 46.4448 649.024 45.1249 646.512C40.6121 637.93 37.2203 628.89 34.4521 619.609C30.8085 607.444 29.0464 594.926 27.7628 582.334C27.3674 578.551 27.24 574.736 26.9587 570.534C44.0346 576.057 61.4335 578.76 79.5074 578.801C79.4721 580.822 79.3961 582.661 79.4324 584.478C79.5194 589.176 79.48 593.898 79.8501 598.578C80.1142 601.886 81.8338 602.723 85.0438 601.613C86.0997 601.244 87.1055 600.765 88.1283 600.327C92.9112 598.287 97.6091 596.04 102.478 594.221C122.203 586.861 142.068 579.89 161.708 572.308C185.741 563.025 209.587 553.3 233.501 543.726C238.776 541.611 243.985 539.344 249.194 537.091C251.35 536.165 253.389 534.976 255.546 534.065C269.902 528.044 284.86 524.031 300.2 521.668C309.615 520.228 319.157 519.604 328.654 518.756C330.619 518.582 332.637 518.987 335.279 519.165C332.879 521.117 331.098 522.558 329.264 524.045C326.265 523.848 323.175 523.557 320.084 523.479C312.136 523.258 304.219 523.503 296.422 525.332C295.162 525.63 293.822 525.791 292.891 527.601C294.356 527.617 295.411 527.66 296.461 527.618C304.007 527.355 311.569 526.906 319.114 526.828C327.611 526.742 335.879 528.35 343.843 531.342C344.688 531.655 345.45 532.201 347.087 533.086C341.589 534.421 337.076 535.817 332.445 536.511C329.967 536.875 327.321 536.015 324.744 535.747C323.026 535.563 321.273 535.297 319.558 535.369C314.24 535.582 308.912 535.839 303.612 536.322C302.071 536.453 300.111 536.485 299.234 538.675C301.147 540.495 303.319 539.809 305.243 539.439C311.405 538.259 317.581 538.543 323.772 539.066C325.13 539.175 326.542 539.237 327.783 539.722C334.015 542.134 340.213 544.661 346.395 547.176C347.083 547.457 347.687 547.985 348.325 548.383C345.773 549.349 343.342 549.782 340.906 549.917C336.826 550.133 332.723 550.222 328.643 550.239C326.681 550.243 324.709 550.09 322.757 549.823C316.86 549.023 310.985 548.123 305.102 547.323C304.011 547.168 302.844 547.147 301.777 547.36C301.23 547.468 300.473 548.258 300.463 548.756C300.455 549.268 301.137 550.118 301.674 550.281C302.849 550.629 304.118 550.672 305.346 550.76C316.683 551.466 327.634 554.073 338.357 557.72C339.972 558.266 341.529 559.014 343.123 559.675L343.11 559.69ZM374.509 93.5202C377.798 94.2383 379.529 96.3114 380.544 98.9299C381.249 100.759 381.78 102.742 381.867 104.683C382.34 115.141 380.724 125.412 378.504 135.581C378.242 136.764 377.667 137.939 376.98 138.938C375.477 141.127 373.214 141.094 371.976 138.732C371.143 137.125 370.548 135.246 370.428 133.449C370.222 130.378 370.47 127.291 370.548 124.202C370.752 116.414 370.627 108.605 371.916 100.886C372.345 98.3696 372.481 95.731 374.479 93.508L374.509 93.5202ZM353.508 116.458C353.62 116.423 353.745 116.386 353.858 116.364C353.883 113.775 353.65 111.133 354.006 108.594C354.495 105.064 355.254 101.545 356.292 98.15C356.667 96.9452 358.123 95.3412 359.185 95.2702C360.232 95.2001 361.527 96.7054 362.491 97.7211C363.148 98.4021 363.57 99.3972 363.86 100.33C364.826 103.506 366.276 106.692 366.465 109.935C366.85 116.319 366.683 122.755 366.358 129.158C366.258 131.269 365.195 133.443 364.143 135.362C362.926 137.561 361.309 137.626 359.754 135.627C358.556 134.087 357.428 132.328 356.907 130.487C355.589 125.871 354.619 121.16 353.51 116.487L353.508 116.458ZM207.381 116.54C207.172 116.61 206.977 116.666 206.769 116.737C204.878 114.191 202.932 111.678 201.123 109.07C200.052 107.521 198.844 106.678 196.844 106.741C194.545 106.809 192.25 106.508 188.967 106.315C191.16 104.463 192.707 103.137 194.255 101.84C196.543 99.9147 196.936 97.7185 195.435 95.251C195.051 94.6229 194.831 93.8843 194.362 92.8212C195.209 93.1484 195.582 93.2087 195.866 93.4171C199.871 96.3188 203.948 96.6857 208.134 93.8046C208.257 93.7253 208.538 93.8913 208.958 94.0053C208.954 94.8015 209.142 95.6986 208.925 96.4807C207.975 99.927 209.635 101.777 212.568 103.116C214.416 103.959 216.102 105.154 217.864 106.202C217.81 106.447 217.755 106.692 217.686 106.938C215.28 107.099 212.877 107.317 210.466 107.407C208.467 107.484 207.574 108.382 207.581 110.4C207.59 112.446 207.429 114.49 207.352 116.527L207.381 116.54ZM385.11 399.538C385.237 399.515 385.377 399.477 385.503 399.454C387.66 408.321 389.818 417.188 392.074 426.461C388.377 426.254 384.767 426.054 381.028 425.85C382.427 416.802 383.77 408.184 385.111 399.552L385.11 399.538ZM310.845 512.471C308.804 515.535 306.694 517.368 303.073 517.866C296.481 518.79 289.99 520.376 283.45 521.652C282.58 521.824 281.667 521.785 280.776 521.845C289.31 517.223 298.069 513.411 307.74 512.181C308.657 512.063 309.628 512.339 310.845 512.471ZM207.934 343.591C205.4 338.445 202.867 333.313 199.97 327.409C206.452 331.225 209.58 337.383 207.934 343.591Z" fill="white"/>
<path d="M179.174 88.5214C181.012 88.5832 181.668 87.118 182.177 85.8047C183.987 81.2064 184.436 76.4291 183.626 71.5512C183.457 70.5249 183.12 69.524 181.843 69.5668C180.539 69.6256 180.207 70.6143 180.421 71.6803C181.362 76.6062 179.997 81.2743 179.005 86.0027C178.888 86.5932 178.758 87.1989 178.727 87.7979C178.712 87.9979 178.968 88.2082 179.159 88.5082L179.174 88.5214Z" fill="white"/>
<path d="M166.93 166.662C171.999 165.711 176.746 164.825 181.478 163.94C182.208 163.806 182.975 163.783 183.652 163.496C185.23 162.851 185.375 161.405 183.955 160.378C183.268 159.883 182.422 159.57 181.657 159.181C177.672 157.216 173.675 155.266 169.397 153.179C170.003 149.698 170.573 146.32 171.186 142.939C171.681 140.134 172.262 137.352 172.714 134.536C172.883 133.459 173.005 132.299 172.805 131.232C172.452 129.351 171.036 128.807 169.517 129.903C168.622 130.546 167.884 131.419 167.098 132.211C162.57 136.778 158.055 141.344 153.421 146.032C152.028 145.4 150.799 144.871 149.593 144.284C142.92 141.021 136.285 137.698 129.573 134.494C128.354 133.907 126.866 132.5 125.563 134.051C124.298 135.557 125.847 136.818 126.58 137.992C130.988 145.003 135.45 151.981 140.01 159.138C137.718 163.343 132.126 165.408 130.736 171.414C136.418 171.972 141.492 170.453 146.914 170.531C149.002 173.688 151.184 176.968 153.338 180.263C155.111 182.959 156.842 185.672 158.6 188.354C159.25 189.348 159.633 190.829 161.222 190.567C162.825 190.303 162.757 188.858 162.976 187.664C163.859 182.8 164.741 177.923 165.652 173.058C166.04 170.999 166.457 168.939 166.913 166.62L166.93 166.662ZM169.161 135.2C168.061 141.286 167.145 146.507 166.157 151.718C165.537 154.986 165.48 154.976 168.51 156.493C171.32 157.897 174.114 159.288 176.924 160.691C173.879 161.933 170.998 162.651 168.081 163.031C164.853 163.46 163.486 165.13 163.061 168.328C162.366 173.448 161.254 178.512 160.188 184.254C159.173 182.886 158.478 182.066 157.907 181.18C155.39 177.355 152.818 173.547 150.451 169.626C149.123 167.412 147.543 166.537 144.947 167.052C142.506 167.542 139.981 167.839 136.801 167.711C138.517 165.947 139.73 164.729 140.913 163.498C143.733 160.595 143.953 160.282 141.983 156.761C139.269 151.896 136.226 147.225 133.348 142.457C132.884 141.692 132.557 140.833 131.895 139.441C138.704 142.61 144.854 145.482 151.018 148.367C153.239 149.403 155.242 149.023 157.027 147.226C159.997 144.227 162.938 141.217 165.909 138.232C166.748 137.394 167.648 136.609 169.162 135.214L169.161 135.2Z" fill="white"/>
<path d="M121.905 245.73C120.206 245.417 119.022 245.141 117.833 245.007C108.244 243.858 100.314 237.111 97.777 227.672C97.283 225.815 96.4023 224.552 94.7695 223.737C92.2251 222.472 89.6562 221.265 87.0872 220.058C86.0444 219.559 84.8345 219.114 84.1856 220.466C83.4244 222.051 84.7853 222.629 85.8877 223.166C87.6657 224.028 89.4438 224.89 91.2718 225.648C93.2178 226.471 94.2175 227.811 94.9532 229.879C98.7058 240.274 106.036 246.55 117.085 248.269C118.967 248.57 120.701 248.553 121.89 245.717L121.905 245.73Z" fill="white"/>
<path d="M113.652 140.704C114.998 139.776 116.064 139.349 116.666 138.57C122.384 131.166 127.232 123.308 129.312 114.03C129.498 113.193 129.777 112.265 129.597 111.481C129.437 110.795 128.789 110.028 128.157 109.729C127.849 109.579 127.052 110.414 126.528 110.876C126.38 110.999 126.374 111.341 126.334 111.585C124.817 120.783 120.023 128.396 114.687 135.774C113.478 137.461 113.508 137.487 113.653 140.718L113.652 140.704Z" fill="white"/>
<path d="M246.304 192.494C247.065 191.761 247.946 191.119 248.574 190.295C250.809 187.36 252.954 184.36 255.128 181.371C255.832 180.415 256.378 179.227 255.137 178.528C254.59 178.224 253.101 178.707 252.657 179.291C250.372 182.329 248.208 185.473 246.177 188.679C245.584 189.6 245.571 190.894 245.29 192.007C245.628 192.169 245.966 192.332 246.304 192.494Z" fill="white"/>
<path d="M377.504 163.975C379.212 161.672 380.487 159.895 381.821 158.157C385.458 153.451 389.142 148.798 394.382 145.719C395.299 145.188 396.212 144.388 395.336 143.409C394.845 142.874 393.569 142.717 392.756 142.885C391.844 143.074 390.994 143.757 390.224 144.362C385.664 148.022 381.712 152.28 378.469 157.145C377.28 158.93 376.015 160.848 377.504 163.975Z" fill="white"/>
<path d="M363.614 473.265C365.669 471.465 364.924 470.107 364.392 468.736C362.339 463.557 360.146 458.417 358.316 453.166C356.871 448.999 355.885 444.673 354.628 440.124C355.562 440.061 356.038 439.944 356.468 440C361.847 440.92 367.211 441.826 372.566 442.804C375.43 443.323 376.357 442.948 377.307 440.142C378.054 437.917 378.552 435.595 379.14 433.324C379.444 432.139 379.734 430.939 380.152 429.334C383.857 429.455 387.52 429.594 391.211 429.717C402.595 430.078 414.007 430.85 425.381 430.629C435.42 430.427 445.361 428.767 454.727 424.686C460.516 422.167 465.419 418.527 469.596 413.799C473.521 409.358 474.868 404.194 473.454 398.574C471.459 390.649 469.142 382.802 466.798 374.97C449.064 315.863 431.289 256.773 413.514 197.683C410.733 188.431 407.966 179.164 405.116 169.931C404.551 168.079 404.535 166.346 404.894 164.488C406.433 156.468 408.258 148.472 409.237 140.376C410.4 130.775 410.747 121.087 409.461 111.436C408.94 107.477 407.888 103.653 405.754 100.228C401.726 93.789 395.718 93.0396 390.163 98.2011C388.53 99.7175 386.867 101.207 385.233 102.71C385.159 102.459 384.866 101.483 384.63 100.504C383.749 96.8961 382.103 93.7655 378.921 91.6758C374.86 89.0053 371.495 90.1258 369.939 94.7072C369.286 96.6412 368.896 98.6714 368.245 101.259C367.707 100.243 367.447 99.7491 367.187 99.269C366.474 97.9664 365.87 96.5854 365.021 95.3772C361.278 89.9991 356.491 90.2909 353.583 96.114C352.541 98.1877 351.869 100.464 350.839 103.134C349.724 100.92 348.777 99.0933 347.873 97.2634C343.884 89.2865 339.963 81.2623 335.878 73.3344C334.521 70.6962 332.834 68.2222 331.095 65.8227C330.015 64.3457 328.712 62.9262 327.219 61.8606C322.424 58.4148 317.066 60.7773 316.833 66.6488C316.689 70.4392 317.107 74.3484 317.924 78.0603C321.023 92.2797 326.042 105.873 331.88 119.184C334.767 125.771 337.666 132.343 340.553 138.929C341.04 140.048 341.443 141.187 342.075 142.765C337.837 142.11 334.001 141.301 330.112 140.978C324.565 140.525 318.991 140.301 313.426 140.218C311.49 140.191 309.459 140.64 307.609 141.261C304.008 142.469 303.302 145.316 305.854 148.173C306.991 149.447 308.377 150.605 309.856 151.458C313.274 153.461 316.745 155.404 320.327 157.083C333.523 163.264 345.847 170.868 357.517 179.54C357.817 179.761 358.091 180.041 358.415 180.204C363.158 182.46 365.01 186.543 366.626 191.353C374.366 214.373 382.591 237.218 390.484 260.185C397.741 281.29 404.495 302.542 409.646 324.271C411.529 332.232 413.078 340.287 412.522 348.554C412.473 349.296 412.423 350.039 412.287 350.773C411.002 357.695 406.416 361.2 399.497 360C395.383 359.28 391.403 357.812 387.07 356.596L386.298 345.063C384.291 344.174 382.65 343.659 381.227 342.787C354.306 326.338 325.219 315.989 293.997 311.539C273.742 308.644 253.466 308.622 233.184 311.286C223.22 312.592 213.387 314.6 203.742 317.491C201.638 318.13 199.587 318.935 197.198 319.777C193.911 310.388 191.449 301.016 190.753 291.255C197.372 291.793 203.661 292.495 209.949 292.757C231.665 293.692 251.679 288.303 269.839 276.243C270.247 275.974 270.639 275.664 271.061 275.394C282.27 267.821 285.954 257.014 284.432 244.04C283.634 237.214 281.734 230.703 278.117 224.89C282.02 218.205 281.733 215.822 276.442 211.969C278.196 208.866 276.608 206.599 274.396 204.345C271.101 200.998 267.992 197.467 264.543 193.733C265.165 192.611 265.891 191.354 266.573 190.072C269.895 183.837 273.481 177.727 276.481 171.344C280.315 163.199 279.754 160.977 272.392 155.713C257.264 144.885 241.994 134.265 226.723 123.632C222.145 120.442 217.437 117.445 212.742 114.433C211.331 113.532 210.391 112.657 211.449 110.611C213.911 110.446 216.488 110.274 219.064 110.101C220.423 110.01 221.799 109.975 223.14 109.829C224.297 109.694 226.009 109.992 226.009 108.286C226.011 107.476 224.959 106.409 224.128 105.896C220.215 103.514 216.213 101.281 212.103 98.926C212.193 95.8214 212.289 92.7876 212.406 89.4396C208.241 89.0359 205.709 91.9911 201.904 92.9137C199.898 91.8397 197.393 90.5149 194.901 89.1892C193.471 88.432 192.056 87.688 190.614 86.9601C189.599 86.4453 188.363 85.8315 187.664 87.058C187.295 87.7081 187.552 88.9985 187.971 89.738C189.579 92.5158 191.364 95.1822 193.049 97.8411C190.872 100.588 190.833 100.633 188.268 99.0564C178.437 93.0195 168.633 86.9523 158.802 80.9154C154.591 78.326 150.328 75.8111 145.661 72.9963C148.979 70.7418 152.154 68.4685 155.441 66.3867C158.264 64.5917 161.247 63.0561 164.103 61.33C165.045 60.7553 165.95 60.0409 166.691 59.2238C168.557 57.1517 168.158 54.7906 165.486 53.9602C162.553 53.0477 159.433 52.7447 156.398 52.2229C155.103 51.9968 153.802 51.8848 152.46 51.1645C158.269 48.7292 164.093 46.3212 169.887 43.8727C172.279 42.8599 174.67 41.833 177.043 40.7504C177.939 40.3351 178.846 39.8622 179.555 39.2036C180.893 37.9486 180.374 36.1356 178.555 35.9445C176.98 35.7798 175.328 35.9472 173.738 36.1957C167.492 37.1963 161.267 38.2949 155.039 39.3511C153.9 39.541 152.742 39.6611 151.423 39.2803C152.464 38.6848 153.488 38.0619 154.532 37.5089C161.078 33.9866 167.64 30.4918 174.17 26.9422C175.255 26.358 176.378 25.7285 177.246 24.8887C177.781 24.3839 178.308 23.1263 178.054 22.7169C177.625 22.0491 176.6 21.606 175.734 21.4081C175.069 21.2536 174.284 21.633 173.57 21.7945C161.865 24.4963 150.146 27.2132 138.44 29.9009C135.681 30.5402 132.888 31.0824 129.88 31.1699C130.633 30.7358 131.367 30.2319 132.153 29.8666C146.534 23.1624 161.32 17.426 176.262 12.0914C178.011 11.4627 179.792 10.8745 181.409 9.97041C182.108 9.58252 182.879 8.35125 182.735 7.69282C182.605 7.0193 181.449 6.32904 180.622 6.07171C179.722 5.79081 178.652 5.96182 177.675 6.01301C160.451 6.99456 143.375 9.33074 126.383 12.2725C121.745 13.0802 117.112 13.9587 112.476 14.7947C111.815 14.91 111.131 14.8847 110.38 14.7075C115.763 10.7941 121.542 7.49374 126.291 2.61354C125.274 0.805373 123.622 0.972754 122.076 1.03351C113.625 1.37142 105.285 2.52626 97.0492 4.38481C33.1179 18.7245 -16.2727 74.206 -26.0687 139.632C-31.1307 173.401 -26.411 205.676 -9.90753 235.785C7.30782 267.182 33.0665 288.57 67.1787 299.664C70.26 300.666 73.6411 300.837 76.9176 301.144C78.7776 301.318 79.6934 299.494 78.6974 297.784C78.0224 296.621 77.087 295.604 75.9335 294.089C77.116 294.337 77.8756 294.428 78.5891 294.679C84.4403 296.704 90.2802 298.772 96.1436 300.768C97.5403 301.243 99.0125 301.571 100.479 301.814C104.233 302.458 105.102 301.632 104.821 297.43C105.802 297.862 106.674 298.144 107.444 298.605C111.917 301.276 116.39 303.947 120.797 306.709C121.554 307.184 122.364 308.025 122.59 308.849C125.522 319.099 128.399 329.368 129.328 340.051C129.367 340.646 129.295 341.262 129.281 341.902C115.468 349.45 102.513 358.119 90.2216 367.782C75.1336 379.636 61.6332 393.118 49.4268 407.878C37.2855 422.549 28.859 439.401 22.1832 457.131C17.0031 470.867 13.8312 485.079 11.1718 499.513C9.73272 507.327 9.79123 514.999 10.0526 522.727C10.3235 530.385 11.1774 538.045 12.0012 545.68C12.547 550.86 13.6713 555.972 14.1311 561.144C14.4037 564.153 15.5743 566.349 18.3441 566.945C23.1202 567.99 23.5042 571.39 23.8354 575.277C25.0677 589.862 26.751 604.39 30.7131 618.551C33.5919 628.848 37.2888 638.835 42.3142 648.277C44.0542 651.544 46.1395 654.659 48.438 657.561C51.3737 661.274 55.463 662.891 60.1898 662.987C66.3264 663.116 72.3439 662.316 78.1639 660.477C92.3526 656.002 106.126 650.419 119.63 644.214C143.604 633.201 167.527 622.078 191.385 610.817C214.347 599.985 237.374 589.263 259.872 577.453C270.984 571.622 283.143 568.25 295.768 567.192C302.075 566.671 308.407 566.531 314.718 566.081C323.872 565.412 333.004 564.616 342.137 563.849C343.127 563.768 344.22 563.738 345.027 563.272C346.013 562.708 347.289 561.798 347.441 560.879C347.605 559.93 346.838 558.46 345.996 557.777C344.688 556.713 342.984 556.103 341.44 555.339C340.513 554.875 339.549 554.499 337.82 553.733C341.503 553.316 344.305 553.115 347.059 552.632C348.62 552.371 350.252 551.907 351.577 551.093C353.911 549.644 353.833 547.63 351.582 546.061C350.776 545.504 349.841 545.126 348.957 544.659C348.515 544.433 347.735 544.243 347.702 543.961C347.226 539.829 343.572 540.471 341.056 539.417C340.749 539.281 340.502 538.999 339.976 538.58C341.58 538.103 342.933 537.714 344.298 537.295C345.482 536.932 346.684 536.61 347.832 536.135C349.437 535.474 351.316 534.879 351.302 532.748C351.287 530.83 349.603 530.09 348.101 529.536C344.501 528.214 340.851 527.008 337.217 525.816C336.068 525.438 334.874 525.219 333.197 524.805C334.919 523.766 336.291 523.035 337.568 522.139C338.804 521.275 339.969 520.202 339.612 518.478C339.239 516.726 337.746 516.3 336.237 516.06C330.43 515.126 324.621 515.43 318.808 515.889C317.098 516.032 315.397 516.118 313.231 516.263C313.772 515.203 314.18 514.508 314.501 513.776C315.497 511.449 314.857 509.957 312.366 509.285C311.193 508.965 309.925 508.922 308.69 508.948C303.153 509.077 297.945 510.704 292.811 512.597C289.092 513.969 285.427 515.507 281.843 517.182C276.687 519.603 271.627 522.172 266.153 523.875C264.176 524.49 262.412 525.76 260.526 526.682C258.434 527.717 256.312 528.726 254.188 529.707C252.836 530.323 251.34 530.693 250.112 531.472C240.131 537.839 229.161 542.183 218.247 546.509C187.371 558.709 156.442 570.741 125.449 582.664C112.28 587.724 98.9237 592.313 85.6533 597.124C84.9729 597.368 84.2766 597.585 83.1782 597.957C82.2245 591.355 83.0807 585.029 83.0047 579.221C89.8524 577.228 96.2546 575.379 102.639 573.473C103.684 573.162 104.806 572.717 105.613 572.023C106.11 571.592 106.068 570.543 106.272 569.762C105.522 569.599 104.679 569.115 104.052 569.314C100.044 570.605 96.1604 572.272 92.1115 573.382C83.5116 575.748 74.6893 575.855 65.8895 575.022C53.1545 573.813 40.5741 571.726 28.4707 567.419C24.975 566.175 21.552 564.741 17.9469 563.347C17.2002 558.352 16.4186 553.472 15.7634 548.569C15.1687 544.146 14.6873 539.715 14.1908 535.271C11.4954 511.146 15.4097 487.845 22.9656 464.996C32.6459 435.651 49.2189 410.721 71.1924 389.153C87.576 373.076 105.727 359.397 125.527 347.853C126.704 347.163 127.897 346.5 129.09 345.852C129.296 345.739 129.566 345.735 129.79 345.691C139.058 359.882 153.434 363.952 169.055 365.366C178.21 366.189 187.107 364.869 195.663 361.411C200.19 359.588 204.301 357.067 207.58 353.379C213.387 346.879 214.103 338.673 209.145 331.514C207.349 328.905 204.819 326.786 202.575 324.491C201.842 323.73 200.948 323.122 199.652 322.029C205.676 320.475 211.102 318.904 216.621 317.667C230.209 314.627 243.994 312.837 257.902 312.66C284.907 312.318 311.252 316.34 336.753 325.38C350.691 330.332 364.095 336.428 376.802 344.021C377.543 344.469 378.284 344.917 379.026 345.379C382.112 347.305 383.793 349.694 383.821 353.729C384.044 381.487 381.959 408.959 375.107 435.954C374.141 439.785 374.131 439.856 370.457 439.122C364.39 437.907 358.332 436.621 352.278 435.391C351.817 435.294 351.311 435.385 350.401 435.389C351.01 449.377 358.645 460.635 363.716 473.301L363.614 473.265ZM210.921 116.104C214.844 119.068 218.209 121.757 221.73 124.236C238.04 135.738 254.443 147.134 270.728 158.681C276.221 162.577 276.472 163.356 273.567 169.449C270.475 175.939 266.913 182.189 263.541 188.527C262.847 189.838 262.006 191.088 261.37 192.424C260.733 193.732 260.825 194.692 262.076 195.959C266.134 200.079 269.884 204.49 273.954 209.008C272.066 210.954 270.442 212.825 268.618 214.468C257.398 224.627 243.948 229.948 229.198 232.185C213.265 234.601 197.521 233.266 182.115 228.683C155.073 220.627 132.747 205.917 117.098 181.977C116.781 181.501 116.547 180.976 116.237 180.386C117.014 180.092 117.599 179.911 118.165 179.66C119.629 179.008 121.14 178.437 122.523 177.648C123.496 177.1 124.474 176.196 123.734 174.924C122.964 173.611 121.886 174.28 120.837 174.762C119.279 175.478 117.686 176.323 116.04 176.59C113.493 176.988 110.873 176.921 108.283 177.109C107.406 177.167 106.559 177.466 105.396 177.728C107.425 181.061 110.528 180.057 112.872 180.668C115.462 186.436 119.263 191.17 123.224 195.766C148.778 225.355 193.429 242.438 233.331 234.879C248.381 232.025 261.909 225.96 272.95 215.031C273.377 214.618 273.866 214.273 274.782 213.515C275.746 215.17 277.504 216.801 277.243 217.998C276.734 220.378 275.129 222.518 273.895 224.903C275.065 226.871 276.585 228.987 277.65 231.303C279.999 236.434 280.934 241.914 281.282 247.534C281.941 258.235 277.951 266.589 269.072 272.656C253.627 283.212 236.565 288.93 217.876 289.469C200.862 289.968 184.299 287.224 168.269 281.403C166.724 280.838 165.082 280.521 163.156 279.996C164.18 282.97 164.671 283.719 167.535 284.664C172.593 286.315 177.734 287.706 182.838 289.198C184.23 289.602 185.634 289.963 187.096 290.363C189.375 311.232 196.015 330.36 207.195 348.047C204.088 353.258 199.269 356.451 193.687 358.445C176.939 364.412 160.566 363.219 144.704 355.24C140.32 353.032 136.654 349.88 133.865 345.817C133.345 345.056 132.982 344.099 132.864 343.183C132.239 338.52 132.092 333.769 131.09 329.202C126.329 307.362 120.343 285.902 110.018 265.898C109.659 265.211 109.519 264.396 109.253 263.604C114.428 262.888 117.261 261.661 117.751 259.923C115.574 259.045 113.36 259.747 111.19 259.821C93.6509 260.341 80.0849 252.877 69.8173 239.037C66.6597 234.771 65.1024 229.773 65.3096 224.372C65.5337 218.586 69.3572 213.683 74.8262 211.91C79.8356 210.281 84.6787 211.265 89.3861 212.983C98.9604 216.464 107.406 221.769 114.3 229.395C115.544 230.776 116.776 232.186 118.179 233.4C119.583 234.614 120.549 234.18 121.202 232.459C121.999 230.359 120.959 228.836 119.754 227.396C113.206 219.633 106.603 211.902 100.041 204.14C99.3922 203.373 98.7984 202.574 98.1773 201.791C99.7164 201.845 100.791 202.398 101.926 202.777C104.413 203.606 107.267 205.888 109.399 203.116C111.504 200.374 108.77 197.97 107.197 195.929C104.331 192.198 101.115 188.746 98.0326 185.185C97.1548 184.178 96.2505 183.201 95.0527 181.874C95.9812 181.94 96.3483 181.901 96.6824 182.007C101.378 183.341 102.711 180.097 101.383 176.618C100.503 174.303 99.6779 171.956 98.6743 169.707C93.9845 159.119 87.803 149.398 81.0479 140.028C80.2946 138.97 79.5687 137.896 78.468 136.321C80.6837 136.499 82.1729 136.869 83.5817 136.675C84.6811 136.53 86.2191 135.93 86.5756 135.096C86.9198 134.291 86.3013 132.698 85.6066 131.877C84.5258 130.599 83.0129 129.663 81.734 128.612C86.1071 125.761 90.4832 123.165 94.5619 120.163C98.7491 117.083 102.854 113.838 106.624 110.26C111.305 105.839 115.663 101.07 120.038 96.329C126.19 89.6778 132.267 82.9747 139.441 77.3637C140.685 76.3993 141.974 75.4886 142.841 74.8479C157.989 84.2673 172.719 93.4162 187.955 102.887C186.081 104.192 184.502 105.25 182.971 106.375C182.429 106.781 181.543 107.565 181.661 107.842C181.919 108.507 182.602 109.157 183.264 109.483C183.882 109.797 184.716 109.727 185.457 109.748C188.549 109.84 191.663 110.058 194.74 109.937C196.853 109.853 198.17 110.632 199.35 112.33C201.885 115.998 204.529 119.602 207.267 123.128C207.75 123.75 208.928 124.14 209.734 124.086C210.117 124.06 210.625 122.733 210.701 121.96C210.879 120.158 210.843 118.341 210.904 116.077L210.921 116.104ZM108.22 218.005C107.994 218.233 107.767 218.462 107.556 218.703C106.101 217.791 104.672 216.835 103.192 215.954C97.208 212.374 91.0394 209.219 84.0297 208.153C66.2458 205.434 59.1588 220.207 62.6596 231.301C64.301 236.492 66.6066 241.199 70.2444 245.206C78.75 254.6 89.1016 260.773 101.76 262.755C103.413 263.014 105.048 263.018 105.941 265.105C108.973 272.165 112.405 279.042 115.311 286.139C117.403 291.258 118.913 296.615 120.672 301.87C119.092 301.62 118.041 301.008 117.016 300.352C109.135 295.407 101.013 290.89 92.3996 287.316C91.2586 286.838 90.0987 286.291 88.9069 286.114C88.217 286.004 87.0337 286.382 86.7828 286.882C86.5197 287.411 86.8692 288.596 87.3704 289.074C88.251 289.911 89.4496 290.399 90.4764 291.084C93.3635 293.008 96.4346 294.707 99.3995 298.006C97.3733 297.473 96.1786 297.255 95.0423 296.847C87.582 294.148 80.1482 291.419 72.7143 288.69C71.6649 288.305 70.6654 287.818 69.6169 287.447C68.3646 287.005 66.8866 286.166 65.999 287.775C65.2765 289.088 66.3383 290.083 67.2907 290.929C68.4092 291.92 69.5257 292.883 70.6046 293.92C71.1511 294.437 71.5778 295.077 72.3509 296.006C70.3606 295.585 68.7685 294.739 67.5418 295.105C65.4942 295.74 63.9106 295.021 62.2043 294.382C29.7592 282.069 5.90003 260.17 -9.54867 229.251C-23.5028 201.332 -27.8774 171.662 -22.8505 140.98C-14.0934 87.4351 14.0026 47.094 61.7424 20.9032C77.7608 12.1138 95.0776 7.00405 113.287 5.03267C114.642 4.88517 116.104 4.41785 117.827 5.31173C111.557 9.78195 105.294 13.4984 98.8074 16.8461C97.928 17.3029 96.943 17.6673 96.2476 18.325C95.8335 18.7222 95.6695 19.6713 95.8093 20.2731C95.8915 20.6514 96.7343 21.1351 97.2307 21.1161C98.465 21.0762 99.686 20.8382 100.906 20.586C107.823 19.1994 114.727 17.6289 121.671 16.4396C131.679 14.7183 141.726 13.1508 151.783 11.7389C158.066 10.8639 164.388 10.3699 170.699 9.70608C170.074 10.5581 169.331 10.9347 168.568 11.2131C150.528 17.8352 132.859 25.3279 115.692 33.9525C114.44 34.5764 112.323 34.8175 112.851 36.7578C113.472 39.0189 115.562 37.9552 116.979 37.6757C125.118 36.0652 133.252 34.3982 141.367 32.6472C149.44 30.8991 157.489 29.0104 165.542 27.1783C164.67 28.1747 163.647 28.8259 162.576 29.395C156.547 32.5699 150.502 35.7175 144.473 38.8924C143.264 39.5276 142.011 40.1373 140.988 41.0017C140.423 41.4801 139.793 42.6877 140.023 43.1414C140.397 43.8555 141.393 44.4995 142.243 44.6701C143.152 44.8651 144.195 44.5111 145.165 44.3467C152.617 43.0949 160.067 41.829 167.532 40.5621C166.337 41.6086 164.998 42.2099 163.658 42.797C151.879 48.0053 140.1 53.2136 128.335 58.4352C127.203 58.9373 126.136 59.563 125.085 60.2161C124.142 60.7908 123.54 61.7692 124.325 62.669C124.725 63.1255 125.848 63.1214 126.626 63.0552C127.192 63.0173 127.712 62.4993 128.263 62.235C133.293 59.8518 138.319 57.412 143.398 55.125C144.585 54.5908 146.026 54.2385 147.299 54.3524C151.491 54.74 155.655 55.3569 159.832 55.9445C161.124 56.1281 162.386 56.4986 163.656 56.7832C161.797 58.7411 159.783 59.8849 157.85 61.1655C151.721 65.1857 144.866 67.7052 139.262 72.9837C132.227 79.6088 124.869 85.8858 118.505 93.1908C107.427 105.9 95.2029 117.207 80.3243 125.394C78.7609 126.252 77.4401 127.549 75.4927 129.043C77.4445 130.377 78.8744 131.347 80.8423 132.708C79.5636 132.509 78.8511 132.486 78.2112 132.273C76.6843 131.764 75.2281 131.037 73.6804 130.643C73.116 130.496 72.2329 130.896 71.7932 131.337C71.514 131.626 71.6161 132.515 71.82 133.013C72.1061 133.676 72.6545 134.222 73.0935 134.832C76.5589 139.66 80.1205 144.44 83.4773 149.346C88.7269 157.04 93.2651 165.151 96.8559 173.765C97.4498 175.204 97.8645 176.725 98.6483 179.089C96.7277 178.223 95.5934 177.844 94.5854 177.229C91.7389 175.486 88.9423 173.641 86.1204 171.84C85.3927 171.377 84.6961 170.741 83.9015 170.553C83.324 170.421 82.4653 170.762 82.0247 171.19C81.7445 171.464 81.8089 172.427 82.0648 172.85C82.5755 173.683 83.3183 174.372 83.9923 175.095C90.4354 182.14 96.8918 189.17 103.294 196.247C104.292 197.346 104.994 198.692 105.844 199.928C105.644 200.126 105.443 200.31 105.243 200.508C103.91 199.915 102.514 199.454 101.285 198.726C96.28 195.749 91.326 192.684 86.3729 189.632C85.5282 189.12 84.8043 188.288 83.8907 188.022C83.0933 187.791 82.1214 188.14 81.2183 188.243C81.3572 189.044 81.3169 189.928 81.6888 190.6C82.0929 191.326 82.8942 191.827 83.5181 192.439C86.4527 195.284 89.4815 198.052 92.3236 201.003C97.718 206.612 102.993 212.342 108.32 218.013L108.22 218.005ZM307.742 145.587C307.857 145.167 307.956 144.749 308.071 144.329C310.355 144.048 312.627 143.583 314.912 143.516C326.547 143.164 337.872 144.979 348.988 148.329C349.466 148.467 349.921 148.679 350.398 148.789C351.481 149.043 352.79 149.482 353.263 148.057C353.822 146.414 352.427 145.967 351.22 145.564C350.042 145.174 348.863 144.77 347.665 144.494C346.307 144.173 345.685 143.376 345.185 142.074C343.749 138.247 342.229 134.454 340.572 130.727C334.667 117.477 328.678 104.261 324.601 90.3063C322.904 84.4928 321.526 78.5585 320.276 72.6298C319.836 70.513 319.934 68.1612 320.288 66.0055C320.658 63.6782 322.441 62.9193 324.443 64.1499C325.881 65.0344 327.258 66.2642 328.203 67.6507C330.505 71.0217 332.755 74.4672 334.618 78.0949C338.918 86.4633 342.944 94.9921 347.188 103.393C347.959 104.919 349.239 106.198 350.425 107.781C350.544 111.256 350.447 115.114 350.829 118.912C351.471 125.109 352.702 131.181 356.133 136.551C358.674 140.532 363.048 142.357 366.791 137.743C366.909 137.593 367.193 137.588 367.401 137.517C370.748 145.452 377.054 146.636 381.656 137.857C381.942 138.094 382.267 138.271 382.498 138.54C385.952 142.559 389.153 142.373 391.915 137.967C392.314 137.343 392.725 136.69 392.935 135.994C394.514 130.914 396.093 125.833 397.557 120.718C397.913 119.458 398.206 117.676 396.404 117.299C394.356 116.867 394.632 118.867 394.271 120.057C392.838 124.786 391.523 129.565 390.004 134.271C389.485 135.869 388.757 137.524 386.876 138.091C384.633 135.81 383.87 133.545 383.907 129.207C383.98 122.223 385.016 115.403 387.215 108.746C388.219 105.694 389.884 103.166 392.096 100.957C396.322 96.7515 400.226 97.3006 403.179 102.547C405.098 105.943 406.187 109.68 406.319 113.551C406.536 119.99 406.655 126.435 406.446 132.873C406.145 142.189 404.77 151.377 402.273 160.385C401.059 164.759 401.208 168.899 402.575 173.384C415.11 214.518 427.38 255.727 439.762 296.899C449.762 330.115 459.903 363.307 469.793 396.559C471.48 402.231 470.932 407.84 466.335 412.454C462.979 415.834 459.364 418.762 455.053 420.841C448.043 424.224 440.545 425.848 432.882 426.716C422.003 427.956 411.095 427.704 400.196 426.941C398.382 426.821 396.567 426.672 394.666 426.529C393.242 419.916 391.854 413.627 390.537 407.333C389.552 402.595 388.553 397.872 387.764 393.092C387.142 389.31 386.517 385.5 386.446 381.681C386.344 376.117 386.738 370.533 386.948 364.961C387.008 363.308 387.138 361.651 387.255 359.781C388.527 360.307 389.434 360.687 390.34 361.053C394.285 362.637 398.325 363.731 402.643 363.456C409.015 363.059 413.366 359.669 414.971 353.478C415.614 350.991 415.892 348.343 415.876 345.771C415.858 336.15 413.867 326.788 411.429 317.556C405.249 294.048 397.829 270.936 389.741 248.025C382.493 227.46 375.467 206.823 368.287 186.224C367.776 184.752 367.13 183.161 366.076 182.08C364.457 180.411 362.452 179.124 360.58 177.714C348.922 169.014 336.727 161.216 323.543 154.991C319.739 153.185 315.996 151.218 312.331 149.146C310.662 148.206 309.26 146.808 307.73 145.617L307.742 145.587ZM343.11 559.69C343.086 559.976 343.063 560.262 343.038 560.533C342.25 560.643 341.451 560.824 340.657 560.849C338.175 560.944 335.698 560.897 333.222 561.076C324.574 561.669 315.917 562.333 307.273 562.983C300.724 563.478 294.064 563.397 287.649 564.637C276.449 566.807 265.583 570.377 255.333 575.483C249.017 578.62 242.966 582.322 236.616 585.377C217.412 594.578 198.128 603.643 178.826 612.666C155.956 623.378 133.286 634.545 109.65 643.588C102.025 646.5 94.8086 650.423 87.2894 653.641C79.1474 657.113 70.6861 659.427 61.7573 659.641C56.6616 659.769 52.5072 658.028 49.593 653.789C47.9864 651.451 46.4448 649.024 45.1249 646.512C40.6121 637.93 37.2203 628.89 34.4521 619.609C30.8085 607.444 29.0464 594.926 27.7628 582.334C27.3674 578.551 27.24 574.736 26.9587 570.534C44.0346 576.057 61.4335 578.76 79.5074 578.801C79.4721 580.822 79.3961 582.661 79.4324 584.478C79.5194 589.176 79.48 593.898 79.8501 598.578C80.1142 601.886 81.8338 602.723 85.0438 601.613C86.0997 601.244 87.1055 600.765 88.1283 600.327C92.9112 598.287 97.6091 596.04 102.478 594.221C122.203 586.861 142.068 579.89 161.708 572.308C185.741 563.025 209.587 553.3 233.501 543.726C238.776 541.611 243.985 539.344 249.194 537.091C251.35 536.165 253.389 534.976 255.546 534.065C269.902 528.044 284.86 524.031 300.2 521.668C309.615 520.228 319.157 519.604 328.654 518.756C330.619 518.582 332.637 518.987 335.279 519.165C332.879 521.117 331.098 522.558 329.264 524.045C326.265 523.848 323.175 523.557 320.084 523.479C312.136 523.258 304.219 523.503 296.422 525.332C295.162 525.63 293.822 525.791 292.891 527.601C294.356 527.617 295.411 527.66 296.461 527.618C304.007 527.355 311.569 526.906 319.114 526.828C327.611 526.742 335.879 528.35 343.843 531.342C344.688 531.655 345.45 532.201 347.087 533.086C341.589 534.421 337.076 535.817 332.445 536.511C329.967 536.875 327.321 536.015 324.744 535.747C323.026 535.563 321.273 535.297 319.558 535.369C314.24 535.582 308.912 535.839 303.612 536.322C302.071 536.453 300.111 536.485 299.234 538.675C301.147 540.495 303.319 539.809 305.243 539.439C311.405 538.259 317.581 538.543 323.772 539.066C325.13 539.175 326.542 539.237 327.783 539.722C334.015 542.134 340.213 544.661 346.395 547.176C347.083 547.457 347.687 547.985 348.325 548.383C345.773 549.349 343.342 549.782 340.906 549.917C336.826 550.133 332.723 550.222 328.643 550.239C326.681 550.243 324.709 550.09 322.757 549.823C316.86 549.023 310.985 548.123 305.102 547.323C304.011 547.168 302.844 547.147 301.777 547.36C301.23 547.468 300.473 548.258 300.463 548.756C300.455 549.268 301.137 550.118 301.674 550.281C302.849 550.629 304.118 550.672 305.346 550.76C316.683 551.466 327.634 554.073 338.357 557.72C339.972 558.266 341.529 559.014 343.123 559.675L343.11 559.69ZM374.509 93.5202C377.798 94.2383 379.529 96.3114 380.544 98.9299C381.249 100.759 381.78 102.742 381.867 104.683C382.34 115.141 380.724 125.412 378.504 135.581C378.242 136.764 377.667 137.939 376.98 138.938C375.477 141.127 373.214 141.094 371.976 138.732C371.143 137.125 370.548 135.246 370.428 133.449C370.222 130.378 370.47 127.291 370.548 124.202C370.752 116.414 370.627 108.605 371.916 100.886C372.345 98.3696 372.481 95.731 374.479 93.508L374.509 93.5202ZM353.508 116.458C353.62 116.423 353.745 116.386 353.858 116.364C353.883 113.775 353.65 111.133 354.006 108.594C354.495 105.064 355.254 101.545 356.292 98.15C356.667 96.9452 358.123 95.3412 359.185 95.2702C360.232 95.2001 361.527 96.7054 362.491 97.7211C363.148 98.4021 363.57 99.3972 363.86 100.33C364.826 103.506 366.276 106.692 366.465 109.935C366.85 116.319 366.683 122.755 366.358 129.158C366.258 131.269 365.195 133.443 364.143 135.362C362.926 137.561 361.309 137.626 359.754 135.627C358.556 134.087 357.428 132.328 356.907 130.487C355.589 125.871 354.619 121.16 353.51 116.487L353.508 116.458ZM207.381 116.54C207.172 116.61 206.977 116.666 206.769 116.737C204.878 114.191 202.932 111.678 201.123 109.07C200.052 107.521 198.844 106.678 196.844 106.741C194.545 106.809 192.25 106.508 188.967 106.315C191.16 104.463 192.707 103.137 194.255 101.84C196.543 99.9147 196.936 97.7185 195.435 95.251C195.051 94.6229 194.831 93.8843 194.362 92.8212C195.209 93.1484 195.582 93.2087 195.866 93.4171C199.871 96.3188 203.948 96.6857 208.134 93.8046C208.257 93.7253 208.538 93.8913 208.958 94.0053C208.954 94.8015 209.142 95.6986 208.925 96.4807C207.975 99.927 209.635 101.777 212.568 103.116C214.416 103.959 216.102 105.154 217.864 106.202C217.81 106.447 217.755 106.692 217.686 106.938C215.28 107.099 212.877 107.317 210.466 107.407C208.467 107.484 207.574 108.382 207.581 110.4C207.59 112.446 207.429 114.49 207.352 116.527L207.381 116.54ZM385.11 399.538C385.237 399.515 385.377 399.477 385.503 399.454C387.66 408.321 389.818 417.188 392.074 426.461C388.377 426.254 384.767 426.054 381.028 425.85C382.427 416.802 383.77 408.184 385.111 399.552L385.11 399.538ZM310.845 512.471C308.804 515.535 306.694 517.368 303.073 517.866C296.481 518.79 289.99 520.376 283.45 521.652C282.58 521.824 281.667 521.785 280.776 521.845C289.31 517.223 298.069 513.411 307.74 512.181C308.657 512.063 309.628 512.339 310.845 512.471ZM207.934 343.591C205.4 338.445 202.867 333.313 199.97 327.409C206.452 331.225 209.58 337.383 207.934 343.591Z" stroke="white" stroke-width="2"/>
<path d="M179.174 88.5214C181.012 88.5832 181.668 87.118 182.177 85.8047C183.987 81.2064 184.436 76.4291 183.626 71.5512C183.457 70.5249 183.12 69.524 181.843 69.5668C180.539 69.6256 180.207 70.6143 180.421 71.6803C181.362 76.6062 179.997 81.2743 179.005 86.0027C178.888 86.5932 178.758 87.1989 178.727 87.7979C178.712 87.9979 178.968 88.2082 179.159 88.5082L179.174 88.5214Z" stroke="white" stroke-width="2"/>
<path d="M166.93 166.662C171.999 165.711 176.746 164.825 181.478 163.94C182.208 163.806 182.975 163.783 183.652 163.496C185.23 162.851 185.375 161.405 183.955 160.378C183.268 159.883 182.422 159.57 181.657 159.181C177.672 157.216 173.675 155.266 169.397 153.179C170.003 149.698 170.573 146.32 171.186 142.939C171.681 140.134 172.262 137.352 172.714 134.536C172.883 133.459 173.005 132.299 172.805 131.232C172.452 129.351 171.036 128.807 169.517 129.903C168.622 130.546 167.884 131.419 167.098 132.211C162.57 136.778 158.055 141.344 153.421 146.032C152.028 145.4 150.799 144.871 149.593 144.284C142.92 141.021 136.285 137.698 129.573 134.494C128.354 133.907 126.866 132.5 125.563 134.051C124.298 135.557 125.847 136.818 126.58 137.992C130.988 145.003 135.45 151.981 140.01 159.138C137.718 163.343 132.126 165.408 130.736 171.414C136.418 171.972 141.492 170.453 146.914 170.531C149.002 173.688 151.184 176.968 153.338 180.263C155.111 182.959 156.842 185.672 158.6 188.354C159.25 189.348 159.633 190.829 161.222 190.567C162.825 190.303 162.757 188.858 162.976 187.664C163.859 182.8 164.741 177.923 165.652 173.058C166.04 170.999 166.457 168.939 166.913 166.62L166.93 166.662ZM169.161 135.2C168.061 141.286 167.145 146.507 166.157 151.718C165.537 154.986 165.48 154.976 168.51 156.493C171.32 157.897 174.114 159.288 176.924 160.691C173.879 161.933 170.998 162.651 168.081 163.031C164.853 163.46 163.486 165.13 163.061 168.328C162.366 173.448 161.254 178.512 160.188 184.254C159.173 182.886 158.478 182.066 157.907 181.18C155.39 177.355 152.818 173.547 150.451 169.626C149.123 167.412 147.543 166.537 144.947 167.052C142.506 167.542 139.981 167.839 136.801 167.711C138.517 165.947 139.73 164.729 140.913 163.498C143.733 160.595 143.953 160.282 141.983 156.761C139.269 151.896 136.226 147.225 133.348 142.457C132.884 141.692 132.557 140.833 131.895 139.441C138.704 142.61 144.854 145.482 151.018 148.367C153.239 149.403 155.242 149.023 157.027 147.226C159.997 144.227 162.938 141.217 165.909 138.232C166.748 137.394 167.648 136.609 169.162 135.214L169.161 135.2Z" stroke="white" stroke-width="2"/>
<path d="M121.905 245.73C120.206 245.417 119.022 245.141 117.833 245.007C108.244 243.858 100.314 237.111 97.777 227.672C97.283 225.815 96.4023 224.552 94.7695 223.737C92.2251 222.472 89.6562 221.265 87.0872 220.058C86.0444 219.559 84.8345 219.114 84.1856 220.466C83.4244 222.051 84.7853 222.629 85.8877 223.166C87.6657 224.028 89.4438 224.89 91.2718 225.648C93.2178 226.471 94.2175 227.811 94.9532 229.879C98.7058 240.274 106.036 246.55 117.085 248.269C118.967 248.57 120.701 248.553 121.89 245.717L121.905 245.73Z" stroke="white" stroke-width="2"/>
<path d="M113.652 140.704C114.998 139.776 116.064 139.349 116.666 138.57C122.384 131.166 127.232 123.308 129.312 114.03C129.498 113.193 129.777 112.265 129.597 111.481C129.437 110.795 128.789 110.028 128.157 109.729C127.849 109.579 127.052 110.414 126.528 110.876C126.38 110.999 126.374 111.341 126.334 111.585C124.817 120.783 120.023 128.396 114.687 135.774C113.478 137.461 113.508 137.487 113.653 140.718L113.652 140.704Z" stroke="white" stroke-width="2"/>
<path d="M246.304 192.494C247.065 191.761 247.946 191.119 248.574 190.295C250.809 187.36 252.954 184.36 255.128 181.371C255.832 180.415 256.378 179.227 255.137 178.528C254.59 178.224 253.101 178.707 252.657 179.291C250.372 182.329 248.208 185.473 246.177 188.679C245.584 189.6 245.571 190.894 245.29 192.007C245.628 192.169 245.966 192.332 246.304 192.494Z" stroke="white" stroke-width="2"/>
<path d="M377.504 163.975C379.212 161.672 380.487 159.895 381.821 158.157C385.458 153.451 389.142 148.798 394.382 145.719C395.299 145.188 396.212 144.388 395.336 143.409C394.845 142.874 393.569 142.717 392.756 142.885C391.844 143.074 390.994 143.757 390.224 144.362C385.664 148.022 381.712 152.28 378.469 157.145C377.28 158.93 376.015 160.848 377.504 163.975Z" stroke="white" stroke-width="2"/>
</svg>
