<svg width="40" height="31" viewBox="0 0 40 31" fill="none" xmlns="http://www.w3.org/2000/svg">
    <!-- <path
        d="M25.9871
    20.5V11.7727H31.4587V12.9062H27.3039V15.5653H31.1732V16.6946H27.3039V19.3665H31.5099V20.5H25.9871ZM34.2395
    16.6136V20.5H32.9653V13.9545H34.1883V15.0199H34.2693C34.4199 14.6733 34.6557 14.3949 34.9767
    14.1847C35.3006 13.9744 35.7082 13.8693 36.1997 13.8693C36.6457 13.8693 37.0363 13.9631 37.3716
    14.1506C37.7068 14.3352 37.9667 14.6108 38.1514 14.9773C38.3361 15.3437 38.4284 15.7969 38.4284
    16.3366V20.5H37.1542V16.4901C37.1542 16.0156 37.0307 15.6449 36.7835 15.3778C36.5363 15.108
    36.1969 14.973 35.765 14.973C35.4696 14.973 35.2068 15.0369 34.9767 15.1648C34.7494 15.2926
    34.569 15.4801 34.4355 15.7273C34.3048 15.9716 34.2395 16.267 34.2395 16.6136Z"
        fill="#FFED00" /> -->
    <!-- <path d="M42.5 15.5L47 19.5L51.5 15.5" stroke="#FFED00" /> -->
    <path
        d="M29.6465 10.5C27.5873 4.67404 22.0311 0.5 15.5 0.5C7.21573 0.5 0.5 7.21573 0.5 15.5C0.5 23.7843 7.21573 30.5 15.5 30.5C21.651 30.5 26.9372 26.7977 29.2519 21.5"
        stroke="#FFED00" />
    <ellipse cx="15.5" cy="15.5" rx="7" ry="15" stroke="#FFED00" />
    <path
        d="M28 23.7389C24.4501 22.9576 20.143 22.5 15.5 22.5C10.857 22.5 6.54989 22.9576 3 23.7389"
        stroke="#FFED00" />
    <path
        d="M3 7.26099C6.54989 8.04224 10.857 8.49989 15.5 8.49989C20.143 8.49989 24.4501 8.04224 28 7.26099"
        stroke="#FFED00" />
    <path d="M0.5 15.5H25.5" stroke="#FFED00" />
</svg>