<svg width="49" height="48" viewBox="0 0 49 48" fill="none" xmlns="http://www.w3.org/2000/svg">
<circle cx="24.5996" cy="24" r="23.5" stroke="#161616"/>
<g clip-path="url(#clip0_510_6014)">
<path d="M31.7109 22.748C31.7453 21.764 31.5275 20.7873 31.0778 19.9087C30.7727 19.5481 30.3493 19.3048 29.8813 19.2212C27.9456 19.0476 26.002 18.9764 24.0587 19.008C22.1224 18.975 20.1858 19.0439 18.257 19.2143C17.8756 19.2828 17.5227 19.4596 17.2413 19.723C16.6152 20.2937 16.5457 21.2699 16.4761 22.0949C16.3752 23.5782 16.3752 25.0666 16.4761 26.5499C16.4962 27.0143 16.5662 27.4752 16.6848 27.9249C16.7687 28.2721 16.9384 28.5934 17.1787 28.8599C17.462 29.1373 17.8231 29.3241 18.2152 29.3962C19.715 29.5791 21.2262 29.6549 22.737 29.623C25.1717 29.6574 27.3074 29.623 29.8326 29.4305C30.2343 29.3629 30.6056 29.1758 30.8969 28.8943C31.0917 28.7017 31.2372 28.4661 31.3213 28.2068C31.5701 27.4523 31.6923 26.6627 31.683 25.8693C31.7109 25.4843 31.7109 23.1605 31.7109 22.748ZM22.4865 26.2818V22.0262L26.6048 24.1643C25.45 24.7968 23.9265 25.5118 22.4865 26.2818Z" fill="#161616"/>
</g>
<defs>
<clipPath id="clip0_510_6014">
<rect width="16" height="11" fill="white" transform="translate(16.4004 19)"/>
</clipPath>
</defs>
</svg>
