<svg width="26" height="27" viewBox="0 0 26 27" fill="none" xmlns="http://www.w3.org/2000/svg">
<path d="M13.0962 22.1956C13.435 22.1956 13.7599 22.3308 13.9995 22.5716C14.2391 22.8123 14.3737 23.1388 14.3737 23.4792V24.7628C14.3737 25.1033 14.2391 25.4298 13.9995 25.6705C13.7599 25.9112 13.435 26.0465 13.0962 26.0465C12.7573 26.0465 12.4324 25.9112 12.1928 25.6705C11.9532 25.4298 11.8186 25.1033 11.8186 24.7628V23.4792C11.8186 23.1388 11.9532 22.8123 12.1928 22.5716C12.4324 22.3308 12.7573 22.1956 13.0962 22.1956ZM21.2265 19.5642L22.1297 20.4717C22.3625 20.7138 22.4912 21.038 22.4883 21.3746C22.4854 21.7112 22.3511 22.0331 22.1142 22.2711C21.8773 22.5091 21.5569 22.6441 21.2219 22.647C20.887 22.6499 20.5642 22.5206 20.3233 22.2867L19.4201 21.3792C19.1873 21.1371 19.0586 20.8129 19.0615 20.4763C19.0644 20.1398 19.1987 19.8178 19.4356 19.5798C19.6725 19.3418 19.9929 19.2068 20.3279 19.2039C20.6629 19.201 20.9856 19.3304 21.2265 19.5642ZM4.9658 19.5642C5.1957 19.334 5.5042 19.2003 5.82864 19.1904C6.15307 19.1804 6.46911 19.2949 6.71257 19.5106C6.95603 19.7263 7.10865 20.027 7.13943 20.3517C7.17021 20.6763 7.07684 21.0006 6.8783 21.2586L6.77226 21.3792L5.86903 22.2867C5.63912 22.517 5.33062 22.6506 5.00619 22.6606C4.68175 22.6705 4.36571 22.556 4.12225 22.3403C3.8788 22.1246 3.72618 21.8239 3.6954 21.4993C3.66462 21.1746 3.75798 20.8504 3.95653 20.5924L4.06257 20.4717L4.9658 19.5642ZM13.0962 5.50856C15.1291 5.50856 17.0788 6.31999 18.5164 7.76434C19.9539 9.20869 20.7615 11.1677 20.7615 13.2103C20.7615 15.2529 19.9539 17.2119 18.5164 18.6562C17.0788 20.1006 15.1291 20.912 13.0962 20.912C11.0632 20.912 9.11348 20.1006 7.67595 18.6562C6.23842 17.2119 5.43083 15.2529 5.43083 13.2103C5.43083 11.1677 6.23842 9.20869 7.67595 7.76434C9.11348 6.31999 11.0632 5.50856 13.0962 5.50856ZM2.87572 11.9267C3.20134 11.927 3.51454 12.0523 3.75131 12.2769C3.98809 12.5015 4.13058 12.8084 4.14966 13.135C4.16874 13.4617 4.06298 13.7833 3.85399 14.0341C3.64499 14.285 3.34853 14.4463 3.02519 14.4849L2.87572 14.4939H1.59816C1.27254 14.4935 0.959343 14.3683 0.722566 14.1437C0.485788 13.9191 0.343302 13.6121 0.324219 13.2855C0.305136 12.9589 0.410897 12.6373 0.619892 12.3864C0.828888 12.1355 1.12534 11.9743 1.44869 11.9356L1.59816 11.9267H2.87572ZM24.5942 11.9267C24.933 11.9267 25.2579 12.0619 25.4975 12.3026C25.7371 12.5433 25.8717 12.8698 25.8717 13.2103C25.8717 13.5507 25.7371 13.8772 25.4975 14.1179C25.2579 14.3587 24.933 14.4939 24.5942 14.4939H23.3166C22.9778 14.4939 22.6528 14.3587 22.4132 14.1179C22.1736 13.8772 22.039 13.5507 22.039 13.2103C22.039 12.8698 22.1736 12.5433 22.4132 12.3026C22.6528 12.0619 22.9778 11.9267 23.3166 11.9267H24.5942ZM4.06257 4.1338C4.28255 3.91279 4.57524 3.78003 4.88572 3.76041C5.1962 3.7408 5.50313 3.83568 5.74894 4.02726L5.86903 4.1338L6.77226 5.04132C7.00139 5.27232 7.13441 5.58228 7.14432 5.90826C7.15423 6.23423 7.04027 6.55177 6.8256 6.79639C6.61093 7.041 6.31164 7.19434 5.98851 7.22527C5.66539 7.2562 5.34267 7.16239 5.08589 6.9629L4.9658 6.85636L4.06257 5.94884C3.82306 5.70813 3.68851 5.38169 3.68851 5.04132C3.68851 4.70095 3.82306 4.37452 4.06257 4.1338ZM22.1297 4.1338C22.3693 4.37452 22.5038 4.70095 22.5038 5.04132C22.5038 5.38169 22.3693 5.70813 22.1297 5.94884L21.2265 6.85636C21.1087 6.97896 20.9677 7.07675 20.8118 7.14402C20.656 7.21129 20.4883 7.2467 20.3187 7.24818C20.1491 7.24966 19.9808 7.21719 19.8238 7.15265C19.6668 7.0881 19.5242 6.99279 19.4042 6.87227C19.2843 6.75175 19.1894 6.60843 19.1252 6.45068C19.0609 6.29292 19.0286 6.1239 19.0301 5.95346C19.0316 5.78302 19.0668 5.61459 19.1338 5.45798C19.2007 5.30137 19.298 5.15973 19.4201 5.04132L20.3233 4.1338C20.5629 3.89316 20.8878 3.75798 21.2265 3.75798C21.5653 3.75798 21.8902 3.89316 22.1297 4.1338ZM13.0962 0.374084C13.435 0.374084 13.7599 0.509322 13.9995 0.750048C14.2391 0.990773 14.3737 1.31727 14.3737 1.6577V2.94132C14.3737 3.28176 14.2391 3.60825 13.9995 3.84898C13.7599 4.0897 13.435 4.22494 13.0962 4.22494C12.7573 4.22494 12.4324 4.0897 12.1928 3.84898C11.9532 3.60825 11.8186 3.28176 11.8186 2.94132V1.6577C11.8186 1.31727 11.9532 0.990773 12.1928 0.750048C12.4324 0.509322 12.7573 0.374084 13.0962 0.374084Z" fill="#6B6A6A"/>
</svg>
