<svg width="15" height="15" viewBox="0 0 15 15" fill="none" xmlns="http://www.w3.org/2000/svg">
<path d="M9.88827 7.5L14.4972 2.91667C15.1676 2.25 15.1676 1.25 14.4972 0.583333C14.2458 0.25 13.8268 0 13.4078 0C12.9888 0 12.5698 0.166667 12.2346 0.5L7.5419 5.16667L2.93296 0.583333C2.26257 -0.0833335 1.17318 -0.0833335 0.586592 0.583333C0.251396 0.833333 0 1.25 0 1.75C0 2.25 0.167598 2.58333 0.502793 2.91667L5.11173 7.5L0.502793 12.0833C0.251397 12.4167 0 12.8333 0 13.3333C0 13.75 0.167598 14.1667 0.502793 14.5C0.837989 14.8333 1.25698 15 1.67598 15C2.09497 15 2.51397 14.8333 2.84916 14.5L7.4581 9.91667L12.067 14.5C12.7374 15.1667 13.8268 15.1667 14.4134 14.5C15.0838 13.8333 15.0838 12.75 14.4134 12.1667L9.88827 7.5Z" fill="#C35959"/>
</svg>
